<svg xmlns="http://www.w3.org/2000/svg" width="1800" height="1000" viewBox="0 0 1800 1000">
<defs>
<marker id="arrowhead" markerWidth="12" markerHeight="9" refX="10" refY="4.5" orient="auto"><path d="M0,0 L12,4.5 L0,9 Z" fill="#13293D"/></marker>
</defs>
<rect width="1800" height="1000" fill="#FFFFFF"/>
<rect x="126.00" y="355.00" width="1548.00" height="235.00" rx="117.50" fill="#EFF5F7" stroke="none"/>
<line x1="216.00" y1="475.00" x2="1584.00" y2="475.00" stroke="#E6EDF2" stroke-width="8" stroke-linecap="round"/>
<text x="104.40" y="88.00" font-family="Arial, Helvetica, sans-serif" font-size="46.00" font-weight="700" fill="#13293D">Question to claim-ready figure</text>
<text x="108.00" y="138.00" font-family="Arial, Helvetica, sans-serif" font-size="20.00" font-weight="400" fill="#64748B">Brief-first, reference-guided, critic-gated graphical abstract workflow.</text>
<text x="1371.60" y="90.00" font-family="Arial, Helvetica, sans-serif" font-size="20.00" font-weight="700" fill="#8B3A3A">Reference-guided GA</text>
<rect x="108.00" y="205.00" width="462.00" height="555.00" rx="28.00" fill="#FBFDFE" stroke="#245A6B" stroke-width="3.00"/>
<rect x="131.10" y="238.30" width="49.90" height="58.28" rx="29.14" fill="#245A6B" stroke="#245A6B" stroke-width="0.00"/>
<text x="156.05" y="276.76" font-family="Arial, Helvetica, sans-serif" font-size="27.97" font-weight="700" fill="#FFFFFF" text-anchor="middle">A</text>
<rect x="214.26" y="268.82" width="249.48" height="183.15" rx="24.00" fill="#DCEBF0" stroke="#245A6B" stroke-width="2.50"/>
<rect x="271.64" y="305.45" width="134.72" height="24.73" rx="10.00" fill="#FFFFFF" stroke="#245A6B" stroke-width="2.20"/>
<text x="339.00" y="322.02" font-family="Arial, Helvetica, sans-serif" font-size="10.99" font-weight="700" fill="#245A6B" text-anchor="middle">Claim</text>
<rect x="271.64" y="347.58" width="134.72" height="24.73" rx="10.00" fill="#FFFFFF" stroke="#245A6B" stroke-width="2.20"/>
<text x="339.00" y="364.15" font-family="Arial, Helvetica, sans-serif" font-size="10.99" font-weight="700" fill="#245A6B" text-anchor="middle">Evidence</text>
<rect x="271.64" y="389.70" width="134.72" height="24.73" rx="10.00" fill="#FFFFFF" stroke="#245A6B" stroke-width="2.20"/>
<text x="339.00" y="406.27" font-family="Arial, Helvetica, sans-serif" font-size="10.99" font-weight="700" fill="#245A6B" text-anchor="middle">Refs</text>
<path d="M339.00,330.18 L339.00,346.66 M339.00,372.30 L339.00,388.79" stroke="#245A6B" stroke-width="3" stroke-linecap="round"/>
<text x="156.51" y="501.93" font-family="Arial, Helvetica, sans-serif" font-size="28.00" font-weight="700" fill="#13293D">Figure brief</text>
<text x="156.51" y="543.55" font-family="Arial, Helvetica, sans-serif" font-size="18.00" font-weight="400" fill="#64748B">Core claim and evidence chain before</text>
<text x="156.51" y="565.87" font-family="Arial, Helvetica, sans-serif" font-size="18.00" font-weight="400" fill="#64748B">drawing</text>
<rect x="156.51" y="593.50" width="364.98" height="41.63" rx="20.81" fill="#EFF5F7" stroke="#E6EDF2" stroke-width="1.50"/>
<circle cx="177.32" cy="614.31" r="8.33" fill="#245A6B"/>
<text x="192.31" y="620.14" font-family="Arial, Helvetica, sans-serif" font-size="15.00" font-weight="700" fill="#13293D">Claim + evidence refs locked</text>
<rect x="156.51" y="646.23" width="364.98" height="88.80" rx="18.00" fill="#FFFFFF" stroke="#E6EDF2" stroke-width="2.00"/>
<text x="178.41" y="683.52" font-family="Arial, Helvetica, sans-serif" font-size="16.00" font-weight="400" fill="#64748B">Locked inputs</text>
<text x="339.00" y="685.30" font-family="Arial, Helvetica, sans-serif" font-size="28.00" font-weight="700" fill="#245A6B">Brief</text>
<text x="339.00" y="715.93" font-family="Arial, Helvetica, sans-serif" font-size="14.00" font-weight="400" fill="#64748B">refs only</text>
<rect x="669.00" y="205.00" width="462.00" height="555.00" rx="28.00" fill="#FBFDFE" stroke="#2166AC" stroke-width="3.00"/>
<rect x="692.10" y="238.30" width="49.90" height="58.28" rx="29.14" fill="#2166AC" stroke="#2166AC" stroke-width="0.00"/>
<text x="717.05" y="276.76" font-family="Arial, Helvetica, sans-serif" font-size="27.97" font-weight="700" fill="#FFFFFF" text-anchor="middle">B</text>
<rect x="775.26" y="268.82" width="249.48" height="183.15" rx="24.00" fill="#DCE8F4" stroke="#2166AC" stroke-width="2.50"/>
<rect x="821.41" y="306.37" width="72.35" height="38.46" rx="8.00" fill="#FFFFFF" stroke="#2166AC" stroke-width="2.00"/>
<line x1="835.88" y1="320.99" x2="880.74" y2="320.99" stroke="#2166AC" stroke-width="3.5" stroke-linecap="round"/>
<line x1="835.88" y1="330.99" x2="872.06" y2="330.99" stroke="#2166AC" stroke-width="3.5" stroke-linecap="round"/>
<rect x="881.29" y="291.72" width="72.35" height="38.46" rx="8.00" fill="#FFFFFF" stroke="#2166AC" stroke-width="2.00"/>
<line x1="895.76" y1="306.33" x2="940.62" y2="306.33" stroke="#2166AC" stroke-width="3.5" stroke-linecap="round"/>
<line x1="895.76" y1="316.33" x2="931.93" y2="316.33" stroke="#2166AC" stroke-width="3.5" stroke-linecap="round"/>
<rect x="863.83" y="350.33" width="72.35" height="38.46" rx="8.00" fill="#FFFFFF" stroke="#2166AC" stroke-width="2.00"/>
<line x1="878.30" y1="364.94" x2="923.15" y2="364.94" stroke="#2166AC" stroke-width="3.5" stroke-linecap="round"/>
<line x1="878.30" y1="374.94" x2="914.47" y2="374.94" stroke="#2166AC" stroke-width="3.5" stroke-linecap="round"/>
<path d="M840.12,415.35 C872.56,397.03 927.44,397.03 959.88,415.35" fill="none" stroke="#2166AC" stroke-width="5" stroke-linecap="round"/>
<text x="717.51" y="501.93" font-family="Arial, Helvetica, sans-serif" font-size="28.00" font-weight="700" fill="#13293D">Reference style</text>
<text x="717.51" y="543.55" font-family="Arial, Helvetica, sans-serif" font-size="18.00" font-weight="400" fill="#64748B">Journal family, layout cue, labels</text>
<text x="717.51" y="565.87" font-family="Arial, Helvetica, sans-serif" font-size="18.00" font-weight="400" fill="#64748B">to preserve</text>
<rect x="717.51" y="593.50" width="364.98" height="41.63" rx="20.81" fill="#EFF5F7" stroke="#E6EDF2" stroke-width="1.50"/>
<circle cx="738.32" cy="614.31" r="8.33" fill="#2166AC"/>
<text x="753.31" y="620.14" font-family="Arial, Helvetica, sans-serif" font-size="15.00" font-weight="700" fill="#13293D">Reference style + preserve list</text>
<rect x="717.51" y="646.23" width="364.98" height="88.80" rx="18.00" fill="#FFFFFF" stroke="#E6EDF2" stroke-width="2.00"/>
<text x="739.41" y="683.52" font-family="Arial, Helvetica, sans-serif" font-size="16.00" font-weight="400" fill="#64748B">Style brief</text>
<text x="900.00" y="685.30" font-family="Arial, Helvetica, sans-serif" font-size="28.00" font-weight="700" fill="#2166AC">Target</text>
<text x="900.00" y="715.93" font-family="Arial, Helvetica, sans-serif" font-size="14.00" font-weight="400" fill="#64748B">preserve list</text>
<rect x="1230.00" y="205.00" width="462.00" height="555.00" rx="28.00" fill="#FBFDFE" stroke="#8B3A3A" stroke-width="3.00"/>
<rect x="1253.10" y="238.30" width="49.90" height="58.28" rx="29.14" fill="#8B3A3A" stroke="#8B3A3A" stroke-width="0.00"/>
<text x="1278.05" y="276.76" font-family="Arial, Helvetica, sans-serif" font-size="27.97" font-weight="700" fill="#FFFFFF" text-anchor="middle">C</text>
<rect x="1336.26" y="268.82" width="249.48" height="183.15" rx="24.00" fill="#F1DADA" stroke="#8B3A3A" stroke-width="2.50"/>
<rect x="1406.11" y="301.79" width="109.77" height="26.56" rx="10.00" fill="#FFFFFF" stroke="#8B3A3A" stroke-width="2.20"/>
<text x="1461.00" y="319.85" font-family="Arial, Helvetica, sans-serif" font-size="11.90" font-weight="700" fill="#8B3A3A" text-anchor="middle">Critic</text>
<rect x="1387.40" y="375.97" width="62.37" height="24.73" rx="9.00" fill="#FFFFFF" stroke="#8B3A3A" stroke-width="2.00"/>
<text x="1418.59" y="392.04" font-family="Arial, Helvetica, sans-serif" font-size="8.79" font-weight="700" fill="#8B3A3A" text-anchor="middle">Pass</text>
<rect x="1472.23" y="375.97" width="62.37" height="24.73" rx="9.00" fill="#FFFFFF" stroke="#8B3A3A" stroke-width="2.00"/>
<text x="1503.41" y="392.04" font-family="Arial, Helvetica, sans-serif" font-size="8.79" font-weight="700" fill="#8B3A3A" text-anchor="middle">Revise</text>
<text x="1278.51" y="501.93" font-family="Arial, Helvetica, sans-serif" font-size="28.00" font-weight="700" fill="#13293D">Candidate gate</text>
<text x="1278.51" y="543.55" font-family="Arial, Helvetica, sans-serif" font-size="18.00" font-weight="400" fill="#64748B">Readability, source preservation,</text>
<text x="1278.51" y="565.87" font-family="Arial, Helvetica, sans-serif" font-size="18.00" font-weight="400" fill="#64748B">owner review</text>
<rect x="1278.51" y="593.50" width="364.98" height="41.63" rx="20.81" fill="#EFF5F7" stroke="#E6EDF2" stroke-width="1.50"/>
<circle cx="1299.32" cy="614.31" r="8.33" fill="#8B3A3A"/>
<text x="1314.31" y="620.14" font-family="Arial, Helvetica, sans-serif" font-size="15.00" font-weight="700" fill="#13293D">Visual critic before owner use</text>
<rect x="1278.51" y="646.23" width="364.98" height="88.80" rx="18.00" fill="#FFFFFF" stroke="#E6EDF2" stroke-width="2.00"/>
<text x="1300.41" y="683.52" font-family="Arial, Helvetica, sans-serif" font-size="16.00" font-weight="400" fill="#64748B">Required refs</text>
<text x="1461.00" y="685.30" font-family="Arial, Helvetica, sans-serif" font-size="28.00" font-weight="700" fill="#8B3A3A">Review</text>
<text x="1461.00" y="715.93" font-family="Arial, Helvetica, sans-serif" font-size="14.00" font-weight="400" fill="#64748B">owner gate</text>
<line x1="591.60" y1="497.50" x2="647.40" y2="497.50" stroke="#13293D" stroke-width="4.5" stroke-linecap="round" marker-end="url(#arrowhead)"/>
<line x1="1152.60" y1="497.50" x2="1208.40" y2="497.50" stroke="#13293D" stroke-width="4.5" stroke-linecap="round" marker-end="url(#arrowhead)"/>
<rect x="90.00" y="803.00" width="1620.00" height="115.00" rx="22.00" fill="#EEF4F7" stroke="#E6EDF2" stroke-width="2.00"/>
<text x="130.50" y="847.85" font-family="Arial, Helvetica, sans-serif" font-size="18.00" font-weight="700" fill="#13293D">Quality band</text>
<rect x="108.00" y="835.00" width="492.00" height="55.00" rx="18.00" fill="#DCEBF0" stroke="#245A6B" stroke-width="2.00"/>
<text x="142.44" y="869.10" font-family="Arial, Helvetica, sans-serif" font-size="17.00" font-weight="700" fill="#13293D">Claim + evidence</text>
<rect x="654.00" y="835.00" width="492.00" height="55.00" rx="18.00" fill="#DCE8F4" stroke="#2166AC" stroke-width="2.00"/>
<text x="688.44" y="869.10" font-family="Arial, Helvetica, sans-serif" font-size="17.00" font-weight="700" fill="#13293D">Style + preserve</text>
<rect x="1200.00" y="835.00" width="492.00" height="55.00" rx="18.00" fill="#F1DADA" stroke="#8B3A3A" stroke-width="2.00"/>
<text x="1234.44" y="869.10" font-family="Arial, Helvetica, sans-serif" font-size="17.00" font-weight="700" fill="#13293D">Critic + owner gate</text>
</svg>
