<?xml version="1.0" encoding="utf-8" standalone="no"?>
<!DOCTYPE svg PUBLIC "-//W3C//DTD SVG 1.1//EN"
  "http://www.w3.org/Graphics/SVG/1.1/DTD/svg11.dtd">
<svg xmlns:xlink="http://www.w3.org/1999/xlink" width="979.2pt" height="436.589045pt" viewBox="0 0 979.2 436.589045" xmlns="http://www.w3.org/2000/svg" version="1.1">
 <metadata>
  <rdf:RDF xmlns:dc="http://purl.org/dc/elements/1.1/" xmlns:cc="http://creativecommons.org/ns#" xmlns:rdf="http://www.w3.org/1999/02/22-rdf-syntax-ns#">
   <cc:Work>
    <dc:type rdf:resource="http://purl.org/dc/dcmitype/StillImage"/>
    <dc:date>2026-06-18T23:23:53.578175</dc:date>
    <dc:format>image/svg+xml</dc:format>
    <dc:creator>
     <cc:Agent>
      <dc:title>FenggaoLab medical display core</dc:title>
     </cc:Agent>
    </dc:creator>
   </cc:Work>
  </rdf:RDF>
 </metadata>
 <defs>
  <style type="text/css">*{stroke-linejoin: round; stroke-linecap: butt}</style>
 </defs>
 <g id="figure_1">
  <g id="patch_1">
   <path d="M 0 436.589045 
L 979.2 436.589045 
L 979.2 0 
L 0 0 
z
" style="fill: #ffffff"/>
  </g>
  <g id="axes_1">
   <g id="patch_2">
    <path d="M 48.21 125.274461 
L 304.077703 125.274461 
Q 318.287703 125.274461 318.287703 111.064461 
L 318.287703 50.21 
Q 318.287703 36 304.077703 36 
L 48.21 36 
Q 34 36 34 50.21 
L 34 111.064461 
Q 34 125.274461 48.21 125.274461 
z
" clip-path="url(#p95a781cba4)" style="fill: #f2f5f7; stroke: #767676; stroke-width: 1.573735; stroke-linejoin: miter"/>
   </g>
   <g id="patch_3">
    <path d="M 48.21 240.947066 
L 304.077703 240.947066 
Q 318.287703 240.947066 318.287703 226.737066 
L 318.287703 165.882605 
Q 318.287703 151.672605 304.077703 151.672605 
L 48.21 151.672605 
Q 34 151.672605 34 165.882605 
L 34 226.737066 
Q 34 240.947066 48.21 240.947066 
z
" clip-path="url(#p95a781cba4)" style="fill: #f2f5f7; stroke: #767676; stroke-width: 1.573735; stroke-linejoin: miter"/>
   </g>
   <g id="patch_4">
    <path d="M 350.773341 311.130825 
L 545.722251 311.130825 
Q 559.932251 311.130825 559.932251 296.920825 
L 559.932251 267.340825 
Q 559.932251 253.130825 545.722251 253.130825 
L 350.773341 253.130825 
Q 336.563341 253.130825 336.563341 267.340825 
L 336.563341 296.920825 
Q 336.563341 311.130825 350.773341 311.130825 
z
" clip-path="url(#p95a781cba4)" style="fill: #f6cfcb; stroke: #b64342; stroke-width: 1.370673; stroke-linejoin: miter"/>
   </g>
   <g id="patch_5">
    <path d="M 48.21 412.589045 
L 304.077703 412.589045 
Q 318.287703 412.589045 318.287703 398.379045 
L 318.287703 337.524584 
Q 318.287703 323.314584 304.077703 323.314584 
L 48.21 323.314584 
Q 34 323.314584 34 337.524584 
L 34 398.379045 
Q 34 412.589045 48.21 412.589045 
z
" clip-path="url(#p95a781cba4)" style="fill: #f2f5f7; stroke: #767676; stroke-width: 1.573735; stroke-linejoin: miter"/>
   </g>
   <g id="patch_6">
    <path d="M 176.143852 127.27559 
Q 176.143852 138.474928 176.143852 148.652626 
" clip-path="url(#p95a781cba4)" style="fill: none; stroke: #4d4d4d; stroke-width: 0.913782; stroke-linecap: round"/>
    <path d="M 178.580603 143.779123 
L 176.143852 148.652626 
L 173.7071 143.779123 
z
" clip-path="url(#p95a781cba4)" style="fill: #4d4d4d; stroke: #4d4d4d; stroke-width: 0.913782; stroke-linecap: round"/>
   </g>
   <g id="patch_7">
    <path d="M 176.143852 284.129182 
Q 176.143852 302.719766 176.143852 320.288711 
" clip-path="url(#p95a781cba4)" style="fill: none; stroke: #4d4d4d; stroke-width: 0.913782; stroke-linecap: round"/>
    <path d="M 178.580603 315.415207 
L 176.143852 320.288711 
L 173.7071 315.415207 
z
" clip-path="url(#p95a781cba4)" style="fill: #4d4d4d; stroke: #4d4d4d; stroke-width: 0.913782; stroke-linecap: round"/>
   </g>
   <g id="patch_8">
    <path d="M 178.146158 282.130825 
Q 256.356423 282.130825 333.54505 282.130825 
" clip-path="url(#p95a781cba4)" style="fill: none; stroke: #4d4d4d; stroke-width: 0.913782; stroke-linecap: round"/>
    <path d="M 329.077672 279.897136 
L 333.54505 282.130825 
L 329.077672 284.364514 
z
" clip-path="url(#p95a781cba4)" style="fill: #4d4d4d; stroke: #4d4d4d; stroke-width: 0.913782; stroke-linecap: round"/>
   </g>
   <g id="patch_9">
    <path d="M 610.142251 145.637583 
L 930.99 145.637583 
Q 945.2 145.637583 945.2 131.427583 
L 945.2 50.21 
Q 945.2 36 930.99 36 
L 610.142251 36 
Q 595.932251 36 595.932251 50.21 
L 595.932251 131.427583 
Q 595.932251 145.637583 610.142251 145.637583 
z
" clip-path="url(#p95a781cba4)" style="fill: #dceaf7; stroke: #0f4d92; stroke-width: 2.030626; stroke-linejoin: miter"/>
   </g>
   <g id="patch_10">
    <path d="M 610.142251 273.550805 
L 930.99 273.550805 
Q 945.2 273.550805 945.2 259.340805 
L 945.2 178.123221 
Q 945.2 163.913221 930.99 163.913221 
L 610.142251 163.913221 
Q 595.932251 163.913221 595.932251 178.123221 
L 595.932251 259.340805 
Q 595.932251 273.550805 610.142251 273.550805 
z
" clip-path="url(#p95a781cba4)" style="fill: #e7e1f5; stroke: #7c6ccf; stroke-width: 1.573735; stroke-linejoin: miter"/>
   </g>
   <g id="patch_11">
    <path d="M 624.356636 405.525279 
L 916.775615 405.525279 
Q 930.985615 405.525279 930.985615 391.315279 
L 930.985615 310.097696 
Q 930.985615 295.887696 916.775615 295.887696 
L 624.356636 295.887696 
Q 610.146636 295.887696 610.146636 310.097696 
L 610.146636 391.315279 
Q 610.146636 405.525279 624.356636 405.525279 
z
" clip-path="url(#p95a781cba4)" style="fill: #f6cfcb; stroke: #b64342; stroke-width: 1.573735; stroke-linejoin: miter"/>
   </g>
   <g id="line2d_1">
    <path d="M 176.143852 240.947066 
L 176.143852 282.130825 
" clip-path="url(#p95a781cba4)" style="fill: none; stroke: #4d4d4d; stroke-width: 0.913782; stroke-linecap: square"/>
   </g>
   <g id="line2d_2">
    <path d="M 770.566125 145.637583 
L 770.566125 163.913221 
" clip-path="url(#p95a781cba4)" style="fill: none; stroke: #4d4d4d; stroke-width: 0.913782; stroke-linecap: square"/>
   </g>
   <g id="text_1">
    <!-- Patients screened -->
    <g style="fill: #4d4d4d" transform="translate(45.168445 56.796185) scale(0.124884 -0.124884)">
     <defs>
      <path id="LucidaGrande-50" d="M 597 0 
L 597 4625 
L 1856 4625 
Q 2694 4625 3059 4342 
Q 3425 4059 3425 3413 
Q 3425 2675 2925 2256 
Q 2425 1838 1538 1838 
L 1247 1838 
L 1247 0 
L 597 0 
z
M 1247 2334 
L 1513 2334 
Q 2097 2334 2415 2603 
Q 2734 2872 2734 3363 
Q 2734 3778 2484 3956 
Q 2234 4134 1650 4134 
L 1247 4134 
L 1247 2334 
z
" transform="scale(0.015625)"/>
      <path id="LucidaGrande-61" d="M 2366 431 
Q 1813 -78 1300 -78 
Q 878 -78 600 186 
Q 322 450 322 853 
Q 322 1409 789 1707 
Q 1256 2006 2128 2006 
L 2275 2006 
L 2275 2416 
Q 2275 3006 1669 3006 
Q 1181 3006 616 2706 
L 616 3216 
Q 1238 3469 1781 3469 
Q 2350 3469 2620 3212 
Q 2891 2956 2891 2416 
L 2891 878 
Q 2891 350 3216 350 
Q 3256 350 3334 363 
L 3378 22 
Q 3169 -78 2916 -78 
Q 2484 -78 2366 431 
z
M 2275 766 
L 2275 1644 
L 2069 1650 
Q 1563 1650 1250 1458 
Q 938 1266 938 953 
Q 938 731 1094 578 
Q 1250 425 1475 425 
Q 1859 425 2275 766 
z
" transform="scale(0.015625)"/>
      <path id="LucidaGrande-74" d="M 1634 -78 
Q 1166 -78 903 190 
Q 641 459 641 938 
L 641 2931 
L 216 2931 
L 216 3394 
L 641 3394 
L 641 4009 
L 1256 4069 
L 1256 3394 
L 2144 3394 
L 2144 2931 
L 1256 2931 
L 1256 1050 
Q 1256 384 1831 384 
Q 1953 384 2128 425 
L 2128 0 
Q 1844 -78 1634 -78 
z
" transform="scale(0.015625)"/>
      <path id="LucidaGrande-69" d="M 616 0 
L 616 3394 
L 1231 3394 
L 1231 0 
L 616 0 
z
M 616 4009 
L 616 4625 
L 1231 4625 
L 1231 4009 
L 616 4009 
z
" transform="scale(0.015625)"/>
      <path id="LucidaGrande-65" d="M 3103 109 
Q 2484 -78 2044 -78 
Q 1294 -78 820 420 
Q 347 919 347 1713 
Q 347 2484 764 2978 
Q 1181 3472 1831 3472 
Q 2447 3472 2783 3034 
Q 3119 2597 3119 1791 
L 3116 1600 
L 975 1600 
Q 1109 391 2159 391 
Q 2544 391 3103 597 
L 3103 109 
z
M 1003 2063 
L 2500 2063 
Q 2500 3009 1794 3009 
Q 1084 3009 1003 2063 
z
" transform="scale(0.015625)"/>
      <path id="LucidaGrande-6e" d="M 616 0 
L 616 3394 
L 1231 3394 
L 1231 2756 
Q 1719 3469 2425 3469 
Q 2866 3469 3128 3189 
Q 3391 2909 3391 2438 
L 3391 0 
L 2775 0 
L 2775 2238 
Q 2775 2616 2664 2777 
Q 2553 2938 2297 2938 
Q 1731 2938 1231 2197 
L 1231 0 
L 616 0 
z
" transform="scale(0.015625)"/>
      <path id="LucidaGrande-73" d="M 1516 -78 
Q 1094 -78 491 119 
L 491 684 
Q 1094 384 1541 384 
Q 1806 384 1981 528 
Q 2156 672 2156 888 
Q 2156 1203 1666 1409 
L 1306 1563 
Q 509 1894 509 2516 
Q 509 2959 823 3214 
Q 1138 3469 1684 3469 
Q 1969 3469 2388 3391 
L 2516 3366 
L 2516 2853 
Q 2000 3006 1697 3006 
Q 1103 3006 1103 2575 
Q 1103 2297 1553 2106 
L 1850 1981 
Q 2353 1769 2562 1533 
Q 2772 1297 2772 944 
Q 2772 497 2419 209 
Q 2066 -78 1516 -78 
z
" transform="scale(0.015625)"/>
      <path id="LucidaGrande-20" transform="scale(0.015625)"/>
      <path id="LucidaGrande-63" d="M 1941 -78 
Q 1253 -78 800 431 
Q 347 941 347 1716 
Q 347 2544 795 3006 
Q 1244 3469 2047 3469 
Q 2444 3469 2934 3359 
L 2934 2844 
Q 2413 2997 2084 2997 
Q 1613 2997 1327 2642 
Q 1041 2288 1041 1697 
Q 1041 1125 1334 772 
Q 1628 419 2103 419 
Q 2525 419 2972 634 
L 2972 103 
Q 2375 -78 1941 -78 
z
" transform="scale(0.015625)"/>
      <path id="LucidaGrande-72" d="M 616 0 
L 616 3394 
L 1231 3394 
L 1231 2756 
Q 1597 3469 2294 3469 
Q 2388 3469 2491 3453 
L 2491 2878 
Q 2331 2931 2209 2931 
Q 1625 2931 1231 2238 
L 1231 0 
L 616 0 
z
" transform="scale(0.015625)"/>
      <path id="LucidaGrande-64" d="M 2794 0 
L 2794 638 
Q 2419 -78 1663 -78 
Q 1050 -78 698 369 
Q 347 816 347 1591 
Q 347 2438 745 2953 
Q 1144 3469 1794 3469 
Q 2397 3469 2794 3006 
L 2794 4934 
L 3413 4934 
L 3413 0 
L 2794 0 
z
M 2794 2584 
Q 2316 3006 1888 3006 
Q 1003 3006 1003 1653 
Q 1003 463 1791 463 
Q 2303 463 2794 1022 
L 2794 2584 
z
" transform="scale(0.015625)"/>
     </defs>
     <use xlink:href="#LucidaGrande-50"/>
     <use xlink:href="#LucidaGrande-61" transform="translate(55.273438 0)"/>
     <use xlink:href="#LucidaGrande-74" transform="translate(110.498047 0)"/>
     <use xlink:href="#LucidaGrande-69" transform="translate(147.900391 0)"/>
     <use xlink:href="#LucidaGrande-65" transform="translate(176.806641 0)"/>
     <use xlink:href="#LucidaGrande-6e" transform="translate(232.519531 0)"/>
     <use xlink:href="#LucidaGrande-74" transform="translate(294.580078 0)"/>
     <use xlink:href="#LucidaGrande-73" transform="translate(331.982422 0)"/>
     <use xlink:href="#LucidaGrande-20" transform="translate(382.958984 0)"/>
     <use xlink:href="#LucidaGrande-73" transform="translate(414.599609 0)"/>
     <use xlink:href="#LucidaGrande-63" transform="translate(465.576172 0)"/>
     <use xlink:href="#LucidaGrande-72" transform="translate(516.796875 0)"/>
     <use xlink:href="#LucidaGrande-65" transform="translate(557.714844 0)"/>
     <use xlink:href="#LucidaGrande-65" transform="translate(613.427734 0)"/>
     <use xlink:href="#LucidaGrande-6e" transform="translate(669.140625 0)"/>
     <use xlink:href="#LucidaGrande-65" transform="translate(731.201172 0)"/>
     <use xlink:href="#LucidaGrande-64" transform="translate(786.914062 0)"/>
    </g>
   </g>
   <g id="text_2">
    <!-- n = 186 -->
    <g style="fill: #4d4d4d" transform="translate(45.168445 84.759148) scale(0.105593 -0.105593)">
     <defs>
      <path id="LucidaGrande-3d" d="M 694 1041 
L 694 1503 
L 4394 1503 
L 4394 1041 
L 694 1041 
z
M 694 2197 
L 694 2659 
L 4394 2659 
L 4394 2197 
L 694 2197 
z
" transform="scale(0.015625)"/>
      <path id="LucidaGrande-31" d="M 963 0 
L 963 463 
L 1888 463 
L 1888 4113 
L 963 3881 
L 963 4356 
L 2506 4741 
L 2506 463 
L 3431 463 
L 3431 0 
L 963 0 
z
" transform="scale(0.015625)"/>
      <path id="LucidaGrande-38" d="M 1472 2519 
Q 794 2991 794 3563 
Q 794 4088 1178 4416 
Q 1563 4744 2181 4744 
Q 2753 4744 3108 4466 
Q 3463 4188 3463 3744 
Q 3463 3072 2600 2519 
Q 3647 2006 3647 1197 
Q 3647 616 3208 250 
Q 2769 -116 2075 -116 
Q 1394 -116 973 229 
Q 553 575 553 1138 
Q 553 1969 1472 2519 
z
M 2256 2713 
Q 2903 3138 2903 3659 
Q 2903 3938 2687 4108 
Q 2472 4278 2119 4278 
Q 1778 4278 1565 4111 
Q 1353 3944 1353 3678 
Q 1353 3419 1545 3214 
Q 1738 3009 2256 2713 
z
M 1806 2269 
Q 1434 1981 1301 1767 
Q 1169 1553 1169 1234 
Q 1169 838 1425 592 
Q 1681 347 2100 347 
Q 2503 347 2758 556 
Q 3013 766 3013 1100 
Q 3013 1369 2855 1555 
Q 2697 1741 2244 2009 
L 1806 2269 
z
" transform="scale(0.015625)"/>
      <path id="LucidaGrande-36" d="M 1100 2397 
Q 1541 2969 2209 2969 
Q 2816 2969 3202 2567 
Q 3588 2166 3588 1538 
Q 3588 816 3155 350 
Q 2722 -116 2056 -116 
Q 1291 -116 859 500 
Q 428 1116 428 2209 
Q 428 3413 923 4078 
Q 1419 4744 2319 4744 
Q 2731 4744 3350 4569 
L 3350 4031 
Q 2697 4281 2281 4281 
Q 1100 4281 1100 2397 
z
M 2969 1400 
Q 2969 1925 2733 2225 
Q 2497 2525 2078 2525 
Q 1688 2525 1406 2262 
Q 1125 2000 1125 1631 
Q 1125 1050 1392 698 
Q 1659 347 2100 347 
Q 2497 347 2733 633 
Q 2969 919 2969 1400 
z
" transform="scale(0.015625)"/>
     </defs>
     <use xlink:href="#LucidaGrande-6e"/>
     <use xlink:href="#LucidaGrande-20" transform="translate(62.060547 0)"/>
     <use xlink:href="#LucidaGrande-3d" transform="translate(93.701172 0)"/>
     <use xlink:href="#LucidaGrande-20" transform="translate(173.193359 0)"/>
     <use xlink:href="#LucidaGrande-31" transform="translate(204.833984 0)"/>
     <use xlink:href="#LucidaGrande-38" transform="translate(268.066406 0)"/>
     <use xlink:href="#LucidaGrande-36" transform="translate(331.298828 0)"/>
    </g>
   </g>
   <g id="text_3">
    <!-- Consecutive eligible records -->
    <g style="fill: #4d4d4d" transform="translate(45.168445 109.120733) scale(0.096455 -0.096455)">
     <defs>
      <path id="LucidaGrande-43" d="M 2578 -116 
Q 1500 -116 912 517 
Q 325 1150 325 2309 
Q 325 3466 923 4103 
Q 1522 4741 2609 4741 
Q 3231 4741 4066 4538 
L 4066 3922 
Q 3116 4250 2600 4250 
Q 1847 4250 1434 3740 
Q 1022 3231 1022 2303 
Q 1022 1419 1462 908 
Q 1903 397 2666 397 
Q 3322 397 4072 800 
L 4072 238 
Q 3388 -116 2578 -116 
z
" transform="scale(0.015625)"/>
      <path id="LucidaGrande-6f" d="M 1944 -78 
Q 1216 -78 781 405 
Q 347 888 347 1697 
Q 347 2516 783 2992 
Q 1219 3469 1966 3469 
Q 2713 3469 3148 2992 
Q 3584 2516 3584 1703 
Q 3584 872 3146 397 
Q 2709 -78 1944 -78 
z
M 1953 384 
Q 2931 384 2931 1703 
Q 2931 3006 1966 3006 
Q 1003 3006 1003 1697 
Q 1003 384 1953 384 
z
" transform="scale(0.015625)"/>
      <path id="LucidaGrande-75" d="M 2738 0 
L 2738 638 
Q 2247 -78 1547 -78 
Q 1103 -78 840 201 
Q 578 481 578 956 
L 578 3394 
L 1194 3394 
L 1194 1156 
Q 1194 775 1305 614 
Q 1416 453 1675 453 
Q 2238 453 2738 1194 
L 2738 3394 
L 3353 3394 
L 3353 0 
L 2738 0 
z
" transform="scale(0.015625)"/>
      <path id="LucidaGrande-76" d="M 1319 0 
L 56 3394 
L 672 3394 
L 1659 753 
L 2700 3394 
L 3275 3394 
L 1934 0 
L 1319 0 
z
" transform="scale(0.015625)"/>
      <path id="LucidaGrande-6c" d="M 616 0 
L 616 4934 
L 1231 4934 
L 1231 0 
L 616 0 
z
" transform="scale(0.015625)"/>
      <path id="LucidaGrande-67" d="M 628 -1128 
L 700 -594 
Q 1234 -847 1753 -847 
Q 2794 -847 2794 256 
L 2794 791 
Q 2453 78 1675 78 
Q 1066 78 706 522 
Q 347 966 347 1719 
Q 347 2494 756 2981 
Q 1166 3469 1816 3469 
Q 2384 3469 2794 3006 
L 2794 3394 
L 3413 3394 
L 3413 925 
Q 3413 128 3330 -255 
Q 3247 -638 3019 -881 
Q 2616 -1309 1766 -1309 
Q 1172 -1309 628 -1128 
z
M 2794 1175 
L 2794 2584 
Q 2388 3006 1909 3006 
Q 1484 3006 1243 2665 
Q 1003 2325 1003 1731 
Q 1003 616 1788 616 
Q 2322 616 2794 1175 
z
" transform="scale(0.015625)"/>
      <path id="LucidaGrande-62" d="M 616 -38 
L 616 4934 
L 1231 4934 
L 1231 2756 
Q 1609 3469 2366 3469 
Q 2978 3469 3329 3022 
Q 3681 2575 3681 1800 
Q 3681 956 3282 439 
Q 2884 -78 2234 -78 
Q 1631 -78 1231 384 
L 1156 -38 
L 616 -38 
z
M 1231 809 
Q 1706 384 2138 384 
Q 3025 384 3025 1738 
Q 3025 2931 2238 2931 
Q 1722 2931 1231 2372 
L 1231 809 
z
" transform="scale(0.015625)"/>
     </defs>
     <use xlink:href="#LucidaGrande-43"/>
     <use xlink:href="#LucidaGrande-6f" transform="translate(69.189453 0)"/>
     <use xlink:href="#LucidaGrande-6e" transform="translate(130.615234 0)"/>
     <use xlink:href="#LucidaGrande-73" transform="translate(192.675781 0)"/>
     <use xlink:href="#LucidaGrande-65" transform="translate(243.652344 0)"/>
     <use xlink:href="#LucidaGrande-63" transform="translate(299.365234 0)"/>
     <use xlink:href="#LucidaGrande-75" transform="translate(350.585938 0)"/>
     <use xlink:href="#LucidaGrande-74" transform="translate(412.646484 0)"/>
     <use xlink:href="#LucidaGrande-69" transform="translate(450.048828 0)"/>
     <use xlink:href="#LucidaGrande-76" transform="translate(478.955078 0)"/>
     <use xlink:href="#LucidaGrande-65" transform="translate(530.712891 0)"/>
     <use xlink:href="#LucidaGrande-20" transform="translate(586.425781 0)"/>
     <use xlink:href="#LucidaGrande-65" transform="translate(618.066406 0)"/>
     <use xlink:href="#LucidaGrande-6c" transform="translate(673.779297 0)"/>
     <use xlink:href="#LucidaGrande-69" transform="translate(702.685547 0)"/>
     <use xlink:href="#LucidaGrande-67" transform="translate(731.591797 0)"/>
     <use xlink:href="#LucidaGrande-69" transform="translate(793.945312 0)"/>
     <use xlink:href="#LucidaGrande-62" transform="translate(822.851562 0)"/>
     <use xlink:href="#LucidaGrande-6c" transform="translate(885.791016 0)"/>
     <use xlink:href="#LucidaGrande-65" transform="translate(914.697266 0)"/>
     <use xlink:href="#LucidaGrande-20" transform="translate(970.410156 0)"/>
     <use xlink:href="#LucidaGrande-72" transform="translate(1002.050781 0)"/>
     <use xlink:href="#LucidaGrande-65" transform="translate(1042.96875 0)"/>
     <use xlink:href="#LucidaGrande-63" transform="translate(1098.681641 0)"/>
     <use xlink:href="#LucidaGrande-6f" transform="translate(1149.902344 0)"/>
     <use xlink:href="#LucidaGrande-72" transform="translate(1211.328125 0)"/>
     <use xlink:href="#LucidaGrande-64" transform="translate(1252.246094 0)"/>
     <use xlink:href="#LucidaGrande-73" transform="translate(1315.185547 0)"/>
    </g>
   </g>
   <g id="text_4">
    <!-- Eligible after criteria review -->
    <g style="fill: #4d4d4d" transform="translate(45.168445 172.622943) scale(0.124884 -0.124884)">
     <defs>
      <path id="LucidaGrande-45" d="M 597 0 
L 597 4625 
L 3181 4625 
L 3181 4134 
L 1253 4134 
L 1253 2650 
L 2869 2650 
L 2869 2166 
L 1253 2166 
L 1253 491 
L 3316 491 
L 3316 0 
L 597 0 
z
" transform="scale(0.015625)"/>
      <path id="LucidaGrande-66" d="M 1350 2931 
L 1350 0 
L 731 0 
L 731 2931 
L 250 2931 
L 250 3394 
L 731 3394 
L 731 3800 
Q 731 5013 1838 5013 
Q 2147 5013 2541 4909 
L 2541 4422 
Q 2125 4550 1875 4550 
Q 1572 4550 1461 4404 
Q 1350 4259 1350 3866 
L 1350 3394 
L 2197 3394 
L 2197 2931 
L 1350 2931 
z
" transform="scale(0.015625)"/>
      <path id="LucidaGrande-77" d="M 1009 0 
L 38 3394 
L 641 3394 
L 1384 766 
L 2188 3394 
L 2803 3394 
L 3506 766 
L 4359 3394 
L 4888 3394 
L 3781 0 
L 3163 0 
L 2444 2628 
L 1631 0 
L 1009 0 
z
" transform="scale(0.015625)"/>
     </defs>
     <use xlink:href="#LucidaGrande-45"/>
     <use xlink:href="#LucidaGrande-6c" transform="translate(54.199219 0)"/>
     <use xlink:href="#LucidaGrande-69" transform="translate(83.105469 0)"/>
     <use xlink:href="#LucidaGrande-67" transform="translate(112.011719 0)"/>
     <use xlink:href="#LucidaGrande-69" transform="translate(174.365234 0)"/>
     <use xlink:href="#LucidaGrande-62" transform="translate(203.271484 0)"/>
     <use xlink:href="#LucidaGrande-6c" transform="translate(266.210938 0)"/>
     <use xlink:href="#LucidaGrande-65" transform="translate(295.117188 0)"/>
     <use xlink:href="#LucidaGrande-20" transform="translate(350.830078 0)"/>
     <use xlink:href="#LucidaGrande-61" transform="translate(382.470703 0)"/>
     <use xlink:href="#LucidaGrande-66" transform="translate(437.695312 0)"/>
     <use xlink:href="#LucidaGrande-74" transform="translate(474.462891 0)"/>
     <use xlink:href="#LucidaGrande-65" transform="translate(511.865234 0)"/>
     <use xlink:href="#LucidaGrande-72" transform="translate(567.578125 0)"/>
     <use xlink:href="#LucidaGrande-20" transform="translate(608.496094 0)"/>
     <use xlink:href="#LucidaGrande-63" transform="translate(640.136719 0)"/>
     <use xlink:href="#LucidaGrande-72" transform="translate(691.357422 0)"/>
     <use xlink:href="#LucidaGrande-69" transform="translate(732.275391 0)"/>
     <use xlink:href="#LucidaGrande-74" transform="translate(761.181641 0)"/>
     <use xlink:href="#LucidaGrande-65" transform="translate(798.583984 0)"/>
     <use xlink:href="#LucidaGrande-72" transform="translate(854.296875 0)"/>
     <use xlink:href="#LucidaGrande-69" transform="translate(895.214844 0)"/>
     <use xlink:href="#LucidaGrande-61" transform="translate(924.121094 0)"/>
     <use xlink:href="#LucidaGrande-20" transform="translate(979.345703 0)"/>
     <use xlink:href="#LucidaGrande-72" transform="translate(1010.986328 0)"/>
     <use xlink:href="#LucidaGrande-65" transform="translate(1051.904297 0)"/>
     <use xlink:href="#LucidaGrande-76" transform="translate(1107.617188 0)"/>
     <use xlink:href="#LucidaGrande-69" transform="translate(1159.375 0)"/>
     <use xlink:href="#LucidaGrande-65" transform="translate(1188.28125 0)"/>
     <use xlink:href="#LucidaGrande-77" transform="translate(1243.994141 0)"/>
    </g>
   </g>
   <g id="text_5">
    <!-- n = 142 -->
    <g style="fill: #4d4d4d" transform="translate(45.168445 200.431754) scale(0.105593 -0.105593)">
     <defs>
      <path id="LucidaGrande-34" d="M 2409 0 
L 2409 1309 
L 328 1309 
L 328 1775 
L 2409 4625 
L 2988 4625 
L 2988 1813 
L 3606 1813 
L 3606 1309 
L 2988 1309 
L 2988 0 
L 2409 0 
z
M 931 1813 
L 2450 1813 
L 2450 3869 
L 931 1813 
z
" transform="scale(0.015625)"/>
      <path id="LucidaGrande-32" d="M 531 0 
L 531 541 
Q 800 1169 1619 1909 
L 1972 2225 
Q 2653 2841 2653 3447 
Q 2653 3834 2420 4056 
Q 2188 4278 1781 4278 
Q 1300 4278 647 3906 
L 647 4450 
Q 1263 4741 1869 4741 
Q 2519 4741 2912 4391 
Q 3306 4041 3306 3463 
Q 3306 3047 3107 2725 
Q 2909 2403 2369 1944 
L 2131 1741 
Q 1391 1113 1275 541 
L 3284 541 
L 3284 0 
L 531 0 
z
" transform="scale(0.015625)"/>
     </defs>
     <use xlink:href="#LucidaGrande-6e"/>
     <use xlink:href="#LucidaGrande-20" transform="translate(62.060547 0)"/>
     <use xlink:href="#LucidaGrande-3d" transform="translate(93.701172 0)"/>
     <use xlink:href="#LucidaGrande-20" transform="translate(173.193359 0)"/>
     <use xlink:href="#LucidaGrande-31" transform="translate(204.833984 0)"/>
     <use xlink:href="#LucidaGrande-34" transform="translate(268.066406 0)"/>
     <use xlink:href="#LucidaGrande-32" transform="translate(331.298828 0)"/>
    </g>
   </g>
   <g id="text_6">
    <!-- Complete baseline variables -->
    <g style="fill: #4d4d4d" transform="translate(45.168445 224.793338) scale(0.096455 -0.096455)">
     <defs>
      <path id="LucidaGrande-6d" d="M 616 0 
L 616 3394 
L 1231 3394 
L 1231 2756 
Q 1681 3469 2388 3469 
Q 3069 3469 3316 2756 
Q 3753 3472 4453 3472 
Q 4903 3472 5150 3208 
Q 5397 2944 5397 2469 
L 5397 0 
L 4778 0 
L 4778 2372 
Q 4778 2953 4319 2953 
Q 3841 2953 3316 2275 
L 3316 0 
L 2697 0 
L 2697 2372 
Q 2697 2956 2228 2956 
Q 1763 2956 1231 2275 
L 1231 0 
L 616 0 
z
" transform="scale(0.015625)"/>
      <path id="LucidaGrande-70" d="M 616 -1234 
L 616 3394 
L 1231 3394 
L 1231 2756 
Q 1609 3469 2366 3469 
Q 2978 3469 3329 3022 
Q 3681 2575 3681 1800 
Q 3681 956 3282 439 
Q 2884 -78 2234 -78 
Q 1631 -78 1231 384 
L 1231 -1234 
L 616 -1234 
z
M 1231 809 
Q 1706 384 2138 384 
Q 3025 384 3025 1738 
Q 3025 2931 2238 2931 
Q 1722 2931 1231 2372 
L 1231 809 
z
" transform="scale(0.015625)"/>
     </defs>
     <use xlink:href="#LucidaGrande-43"/>
     <use xlink:href="#LucidaGrande-6f" transform="translate(69.189453 0)"/>
     <use xlink:href="#LucidaGrande-6d" transform="translate(130.615234 0)"/>
     <use xlink:href="#LucidaGrande-70" transform="translate(223.974609 0)"/>
     <use xlink:href="#LucidaGrande-6c" transform="translate(286.914062 0)"/>
     <use xlink:href="#LucidaGrande-65" transform="translate(315.820312 0)"/>
     <use xlink:href="#LucidaGrande-74" transform="translate(371.533203 0)"/>
     <use xlink:href="#LucidaGrande-65" transform="translate(408.935547 0)"/>
     <use xlink:href="#LucidaGrande-20" transform="translate(464.648438 0)"/>
     <use xlink:href="#LucidaGrande-62" transform="translate(496.289062 0)"/>
     <use xlink:href="#LucidaGrande-61" transform="translate(559.228516 0)"/>
     <use xlink:href="#LucidaGrande-73" transform="translate(614.453125 0)"/>
     <use xlink:href="#LucidaGrande-65" transform="translate(665.429688 0)"/>
     <use xlink:href="#LucidaGrande-6c" transform="translate(721.142578 0)"/>
     <use xlink:href="#LucidaGrande-69" transform="translate(750.048828 0)"/>
     <use xlink:href="#LucidaGrande-6e" transform="translate(778.955078 0)"/>
     <use xlink:href="#LucidaGrande-65" transform="translate(841.015625 0)"/>
     <use xlink:href="#LucidaGrande-20" transform="translate(896.728516 0)"/>
     <use xlink:href="#LucidaGrande-76" transform="translate(928.369141 0)"/>
     <use xlink:href="#LucidaGrande-61" transform="translate(980.126953 0)"/>
     <use xlink:href="#LucidaGrande-72" transform="translate(1035.351562 0)"/>
     <use xlink:href="#LucidaGrande-69" transform="translate(1076.269531 0)"/>
     <use xlink:href="#LucidaGrande-61" transform="translate(1105.175781 0)"/>
     <use xlink:href="#LucidaGrande-62" transform="translate(1160.400391 0)"/>
     <use xlink:href="#LucidaGrande-6c" transform="translate(1223.339844 0)"/>
     <use xlink:href="#LucidaGrande-65" transform="translate(1252.246094 0)"/>
     <use xlink:href="#LucidaGrande-73" transform="translate(1307.958984 0)"/>
    </g>
   </g>
   <g id="text_7">
    <!-- Missing follow-up (n=14) -->
    <g style="fill: #b64342" transform="translate(344.685847 269.524199) scale(0.105593 -0.105593)">
     <defs>
      <path id="LucidaGrande-4d" d="M 597 0 
L 597 4625 
L 1506 4625 
L 2788 1047 
L 4106 4625 
L 4919 4625 
L 4919 0 
L 4306 0 
L 4306 3763 
L 3031 309 
L 2397 309 
L 1159 3772 
L 1159 0 
L 597 0 
z
" transform="scale(0.015625)"/>
      <path id="LucidaGrande-2d" d="M 463 1619 
L 463 2081 
L 3238 2081 
L 3238 1619 
L 463 1619 
z
" transform="scale(0.015625)"/>
      <path id="LucidaGrande-28" d="M 1850 -500 
L 1850 -925 
Q 1175 -466 779 323 
Q 384 1113 384 2006 
Q 384 2897 779 3686 
Q 1175 4475 1850 4934 
L 1850 4509 
Q 1391 4009 1195 3434 
Q 1000 2859 1000 2006 
Q 1000 1150 1195 575 
Q 1391 0 1850 -500 
z
" transform="scale(0.015625)"/>
      <path id="LucidaGrande-29" d="M 231 -500 
L 231 -925 
Q 906 -466 1301 323 
Q 1697 1113 1697 2006 
Q 1697 2897 1301 3686 
Q 906 4475 231 4934 
L 231 4509 
Q 691 4009 886 3434 
Q 1081 2859 1081 2006 
Q 1081 1150 886 575 
Q 691 0 231 -500 
z
" transform="scale(0.015625)"/>
     </defs>
     <use xlink:href="#LucidaGrande-4d"/>
     <use xlink:href="#LucidaGrande-69" transform="translate(86.132812 0)"/>
     <use xlink:href="#LucidaGrande-73" transform="translate(115.039062 0)"/>
     <use xlink:href="#LucidaGrande-73" transform="translate(166.015625 0)"/>
     <use xlink:href="#LucidaGrande-69" transform="translate(216.992188 0)"/>
     <use xlink:href="#LucidaGrande-6e" transform="translate(245.898438 0)"/>
     <use xlink:href="#LucidaGrande-67" transform="translate(307.958984 0)"/>
     <use xlink:href="#LucidaGrande-20" transform="translate(370.3125 0)"/>
     <use xlink:href="#LucidaGrande-66" transform="translate(401.953125 0)"/>
     <use xlink:href="#LucidaGrande-6f" transform="translate(438.720703 0)"/>
     <use xlink:href="#LucidaGrande-6c" transform="translate(500.146484 0)"/>
     <use xlink:href="#LucidaGrande-6c" transform="translate(529.052734 0)"/>
     <use xlink:href="#LucidaGrande-6f" transform="translate(557.958984 0)"/>
     <use xlink:href="#LucidaGrande-77" transform="translate(619.384766 0)"/>
     <use xlink:href="#LucidaGrande-2d" transform="translate(696.435547 0)"/>
     <use xlink:href="#LucidaGrande-75" transform="translate(754.296875 0)"/>
     <use xlink:href="#LucidaGrande-70" transform="translate(816.357422 0)"/>
     <use xlink:href="#LucidaGrande-20" transform="translate(879.296875 0)"/>
     <use xlink:href="#LucidaGrande-28" transform="translate(910.9375 0)"/>
     <use xlink:href="#LucidaGrande-6e" transform="translate(943.457031 0)"/>
     <use xlink:href="#LucidaGrande-3d" transform="translate(1005.517578 0)"/>
     <use xlink:href="#LucidaGrande-31" transform="translate(1085.009766 0)"/>
     <use xlink:href="#LucidaGrande-34" transform="translate(1148.242188 0)"/>
     <use xlink:href="#LucidaGrande-29" transform="translate(1211.474609 0)"/>
    </g>
   </g>
   <g id="text_8">
    <!-- Excluded before model evaluation -->
    <g style="fill: #b64342" transform="translate(344.685847 289.69419) scale(0.096455 -0.096455)">
     <defs>
      <path id="LucidaGrande-78" d="M 275 0 
L 1566 1753 
L 313 3394 
L 1044 3394 
L 2034 2088 
L 2931 3394 
L 3531 3394 
L 2356 1672 
L 3634 0 
L 2903 0 
L 1881 1344 
L 894 0 
L 275 0 
z
" transform="scale(0.015625)"/>
     </defs>
     <use xlink:href="#LucidaGrande-45"/>
     <use xlink:href="#LucidaGrande-78" transform="translate(54.199219 0)"/>
     <use xlink:href="#LucidaGrande-63" transform="translate(115.527344 0)"/>
     <use xlink:href="#LucidaGrande-6c" transform="translate(166.748047 0)"/>
     <use xlink:href="#LucidaGrande-75" transform="translate(195.654297 0)"/>
     <use xlink:href="#LucidaGrande-64" transform="translate(257.714844 0)"/>
     <use xlink:href="#LucidaGrande-65" transform="translate(320.654297 0)"/>
     <use xlink:href="#LucidaGrande-64" transform="translate(376.367188 0)"/>
     <use xlink:href="#LucidaGrande-20" transform="translate(439.306641 0)"/>
     <use xlink:href="#LucidaGrande-62" transform="translate(470.947266 0)"/>
     <use xlink:href="#LucidaGrande-65" transform="translate(533.886719 0)"/>
     <use xlink:href="#LucidaGrande-66" transform="translate(589.599609 0)"/>
     <use xlink:href="#LucidaGrande-6f" transform="translate(626.367188 0)"/>
     <use xlink:href="#LucidaGrande-72" transform="translate(687.792969 0)"/>
     <use xlink:href="#LucidaGrande-65" transform="translate(728.710938 0)"/>
     <use xlink:href="#LucidaGrande-20" transform="translate(784.423828 0)"/>
     <use xlink:href="#LucidaGrande-6d" transform="translate(816.064453 0)"/>
     <use xlink:href="#LucidaGrande-6f" transform="translate(909.423828 0)"/>
     <use xlink:href="#LucidaGrande-64" transform="translate(970.849609 0)"/>
     <use xlink:href="#LucidaGrande-65" transform="translate(1033.789062 0)"/>
     <use xlink:href="#LucidaGrande-6c" transform="translate(1089.501953 0)"/>
     <use xlink:href="#LucidaGrande-20" transform="translate(1118.408203 0)"/>
     <use xlink:href="#LucidaGrande-65" transform="translate(1150.048828 0)"/>
     <use xlink:href="#LucidaGrande-76" transform="translate(1205.761719 0)"/>
     <use xlink:href="#LucidaGrande-61" transform="translate(1257.519531 0)"/>
     <use xlink:href="#LucidaGrande-6c" transform="translate(1312.744141 0)"/>
     <use xlink:href="#LucidaGrande-75" transform="translate(1341.650391 0)"/>
     <use xlink:href="#LucidaGrande-61" transform="translate(1403.710938 0)"/>
     <use xlink:href="#LucidaGrande-74" transform="translate(1458.935547 0)"/>
     <use xlink:href="#LucidaGrande-69" transform="translate(1496.337891 0)"/>
     <use xlink:href="#LucidaGrande-6f" transform="translate(1525.244141 0)"/>
     <use xlink:href="#LucidaGrande-6e" transform="translate(1586.669922 0)"/>
    </g>
   </g>
   <g id="text_9">
    <!-- Included in analysis -->
    <g style="fill: #4d4d4d" transform="translate(45.168445 344.110769) scale(0.124884 -0.124884)">
     <defs>
      <path id="LucidaGrande-49" d="M 594 0 
L 594 4625 
L 1250 4625 
L 1250 0 
L 594 0 
z
" transform="scale(0.015625)"/>
      <path id="LucidaGrande-79" d="M 813 -1234 
L 1363 0 
L 50 3394 
L 716 3394 
L 1688 838 
L 2725 3394 
L 3306 3394 
L 1453 -1234 
L 813 -1234 
z
" transform="scale(0.015625)"/>
     </defs>
     <use xlink:href="#LucidaGrande-49"/>
     <use xlink:href="#LucidaGrande-6e" transform="translate(28.808594 0)"/>
     <use xlink:href="#LucidaGrande-63" transform="translate(90.869141 0)"/>
     <use xlink:href="#LucidaGrande-6c" transform="translate(142.089844 0)"/>
     <use xlink:href="#LucidaGrande-75" transform="translate(170.996094 0)"/>
     <use xlink:href="#LucidaGrande-64" transform="translate(233.056641 0)"/>
     <use xlink:href="#LucidaGrande-65" transform="translate(295.996094 0)"/>
     <use xlink:href="#LucidaGrande-64" transform="translate(351.708984 0)"/>
     <use xlink:href="#LucidaGrande-20" transform="translate(414.648438 0)"/>
     <use xlink:href="#LucidaGrande-69" transform="translate(446.289062 0)"/>
     <use xlink:href="#LucidaGrande-6e" transform="translate(475.195312 0)"/>
     <use xlink:href="#LucidaGrande-20" transform="translate(537.255859 0)"/>
     <use xlink:href="#LucidaGrande-61" transform="translate(568.896484 0)"/>
     <use xlink:href="#LucidaGrande-6e" transform="translate(624.121094 0)"/>
     <use xlink:href="#LucidaGrande-61" transform="translate(686.181641 0)"/>
     <use xlink:href="#LucidaGrande-6c" transform="translate(741.40625 0)"/>
     <use xlink:href="#LucidaGrande-79" transform="translate(770.3125 0)"/>
     <use xlink:href="#LucidaGrande-73" transform="translate(822.558594 0)"/>
     <use xlink:href="#LucidaGrande-69" transform="translate(873.535156 0)"/>
     <use xlink:href="#LucidaGrande-73" transform="translate(902.441406 0)"/>
    </g>
   </g>
   <g id="text_10">
    <!-- n = 128 -->
    <g style="fill: #4d4d4d" transform="translate(45.168445 372.073732) scale(0.105593 -0.105593)">
     <use xlink:href="#LucidaGrande-6e"/>
     <use xlink:href="#LucidaGrande-20" transform="translate(62.060547 0)"/>
     <use xlink:href="#LucidaGrande-3d" transform="translate(93.701172 0)"/>
     <use xlink:href="#LucidaGrande-20" transform="translate(173.193359 0)"/>
     <use xlink:href="#LucidaGrande-31" transform="translate(204.833984 0)"/>
     <use xlink:href="#LucidaGrande-32" transform="translate(268.066406 0)"/>
     <use xlink:href="#LucidaGrande-38" transform="translate(331.298828 0)"/>
    </g>
   </g>
   <g id="text_11">
    <!-- Primary analytic cohort -->
    <g style="fill: #4d4d4d" transform="translate(45.168445 396.435316) scale(0.096455 -0.096455)">
     <defs>
      <path id="LucidaGrande-68" d="M 616 0 
L 616 4934 
L 1231 4934 
L 1231 2756 
Q 1719 3469 2425 3469 
Q 2866 3469 3128 3189 
Q 3391 2909 3391 2438 
L 3391 0 
L 2775 0 
L 2775 2238 
Q 2775 2616 2664 2777 
Q 2553 2938 2297 2938 
Q 1731 2938 1231 2197 
L 1231 0 
L 616 0 
z
" transform="scale(0.015625)"/>
     </defs>
     <use xlink:href="#LucidaGrande-50"/>
     <use xlink:href="#LucidaGrande-72" transform="translate(55.273438 0)"/>
     <use xlink:href="#LucidaGrande-69" transform="translate(96.191406 0)"/>
     <use xlink:href="#LucidaGrande-6d" transform="translate(125.097656 0)"/>
     <use xlink:href="#LucidaGrande-61" transform="translate(218.457031 0)"/>
     <use xlink:href="#LucidaGrande-72" transform="translate(273.681641 0)"/>
     <use xlink:href="#LucidaGrande-79" transform="translate(314.599609 0)"/>
     <use xlink:href="#LucidaGrande-20" transform="translate(366.845703 0)"/>
     <use xlink:href="#LucidaGrande-61" transform="translate(398.486328 0)"/>
     <use xlink:href="#LucidaGrande-6e" transform="translate(453.710938 0)"/>
     <use xlink:href="#LucidaGrande-61" transform="translate(515.771484 0)"/>
     <use xlink:href="#LucidaGrande-6c" transform="translate(570.996094 0)"/>
     <use xlink:href="#LucidaGrande-79" transform="translate(599.902344 0)"/>
     <use xlink:href="#LucidaGrande-74" transform="translate(652.148438 0)"/>
     <use xlink:href="#LucidaGrande-69" transform="translate(689.550781 0)"/>
     <use xlink:href="#LucidaGrande-63" transform="translate(718.457031 0)"/>
     <use xlink:href="#LucidaGrande-20" transform="translate(769.677734 0)"/>
     <use xlink:href="#LucidaGrande-63" transform="translate(801.318359 0)"/>
     <use xlink:href="#LucidaGrande-6f" transform="translate(852.539062 0)"/>
     <use xlink:href="#LucidaGrande-68" transform="translate(913.964844 0)"/>
     <use xlink:href="#LucidaGrande-6f" transform="translate(976.025391 0)"/>
     <use xlink:href="#LucidaGrande-72" transform="translate(1037.451172 0)"/>
     <use xlink:href="#LucidaGrande-74" transform="translate(1078.369141 0)"/>
    </g>
   </g>
   <g id="text_12">
    <!-- Analysis split -->
    <g style="fill: #4d4d4d" transform="translate(605.07007 54.374187) scale(0.119807 -0.119807)">
     <defs>
      <path id="LucidaGrande-41" d="M 2941 1769 
L 2153 3763 
L 1363 1769 
L 2941 1769 
z
M 3634 0 
L 3131 1281 
L 1172 1281 
L 663 0 
L 53 0 
L 1888 4625 
L 2538 4625 
L 4344 0 
L 3634 0 
z
" transform="scale(0.015625)"/>
     </defs>
     <use xlink:href="#LucidaGrande-41"/>
     <use xlink:href="#LucidaGrande-6e" transform="translate(68.994141 0)"/>
     <use xlink:href="#LucidaGrande-61" transform="translate(131.054688 0)"/>
     <use xlink:href="#LucidaGrande-6c" transform="translate(186.279297 0)"/>
     <use xlink:href="#LucidaGrande-79" transform="translate(215.185547 0)"/>
     <use xlink:href="#LucidaGrande-73" transform="translate(267.431641 0)"/>
     <use xlink:href="#LucidaGrande-69" transform="translate(318.408203 0)"/>
     <use xlink:href="#LucidaGrande-73" transform="translate(347.314453 0)"/>
     <use xlink:href="#LucidaGrande-20" transform="translate(398.291016 0)"/>
     <use xlink:href="#LucidaGrande-73" transform="translate(429.931641 0)"/>
     <use xlink:href="#LucidaGrande-70" transform="translate(480.908203 0)"/>
     <use xlink:href="#LucidaGrande-6c" transform="translate(543.847656 0)"/>
     <use xlink:href="#LucidaGrande-69" transform="translate(572.753906 0)"/>
     <use xlink:href="#LucidaGrande-74" transform="translate(601.660156 0)"/>
    </g>
   </g>
   <g id="text_13">
    <!-- Training -->
    <g style="fill: #4d4d4d" transform="translate(605.07007 75.89356) scale(0.105593 -0.105593)">
     <defs>
      <path id="LucidaGrande-54" d="M 1697 0 
L 1697 4134 
L 56 4134 
L 56 4625 
L 3994 4625 
L 3994 4134 
L 2353 4134 
L 2353 0 
L 1697 0 
z
" transform="scale(0.015625)"/>
     </defs>
     <use xlink:href="#LucidaGrande-54"/>
     <use xlink:href="#LucidaGrande-72" transform="translate(63.232422 0)"/>
     <use xlink:href="#LucidaGrande-61" transform="translate(104.150391 0)"/>
     <use xlink:href="#LucidaGrande-69" transform="translate(159.375 0)"/>
     <use xlink:href="#LucidaGrande-6e" transform="translate(188.28125 0)"/>
     <use xlink:href="#LucidaGrande-69" transform="translate(250.341797 0)"/>
     <use xlink:href="#LucidaGrande-6e" transform="translate(279.248047 0)"/>
     <use xlink:href="#LucidaGrande-67" transform="translate(341.308594 0)"/>
    </g>
   </g>
   <g id="text_14">
    <!-- 70% temporal derivation -->
    <g style="fill: #4d4d4d" transform="translate(605.07007 92.25638) scale(0.096455 -0.096455)">
     <defs>
      <path id="LucidaGrande-37" d="M 963 0 
Q 1053 541 1220 934 
Q 1388 1328 1813 2016 
L 3075 4047 
L 694 4047 
L 694 4625 
L 3663 4625 
L 3663 4047 
Q 1884 1425 1672 0 
L 963 0 
z
" transform="scale(0.015625)"/>
      <path id="LucidaGrande-30" d="M 2006 -116 
Q 1291 -116 848 557 
Q 406 1231 406 2316 
Q 406 3409 851 4075 
Q 1297 4741 2025 4741 
Q 2753 4741 3198 4075 
Q 3644 3409 3644 2325 
Q 3644 1213 3198 548 
Q 2753 -116 2006 -116 
z
M 2013 347 
Q 2991 347 2991 2334 
Q 2991 4278 2025 4278 
Q 1063 4278 1063 2316 
Q 1063 347 2013 347 
z
" transform="scale(0.015625)"/>
      <path id="LucidaGrande-25" d="M 75 -116 
L 3719 4741 
L 4200 4741 
L 559 -116 
L 75 -116 
z
M 1006 2313 
Q 566 2313 302 2628 
Q 38 2944 38 3472 
Q 38 4003 303 4314 
Q 569 4625 1022 4625 
Q 1472 4625 1737 4314 
Q 2003 4003 2003 3475 
Q 2003 2934 1737 2623 
Q 1472 2313 1006 2313 
z
M 1016 2622 
Q 1541 2622 1541 3475 
Q 1541 3859 1400 4089 
Q 1259 4319 1022 4319 
Q 781 4319 640 4089 
Q 500 3859 500 3472 
Q 500 3084 640 2853 
Q 781 2622 1016 2622 
z
M 3244 0 
Q 2800 0 2537 314 
Q 2275 628 2275 1156 
Q 2275 1688 2540 2000 
Q 2806 2313 3256 2313 
Q 3706 2313 3973 2002 
Q 4241 1691 4241 1163 
Q 4241 619 3975 309 
Q 3709 0 3244 0 
z
M 3250 309 
Q 3778 309 3778 1163 
Q 3778 1547 3636 1776 
Q 3494 2006 3256 2006 
Q 3019 2006 2878 1776 
Q 2738 1547 2738 1156 
Q 2738 772 2877 540 
Q 3016 309 3250 309 
z
" transform="scale(0.015625)"/>
     </defs>
     <use xlink:href="#LucidaGrande-37"/>
     <use xlink:href="#LucidaGrande-30" transform="translate(63.232422 0)"/>
     <use xlink:href="#LucidaGrande-25" transform="translate(126.464844 0)"/>
     <use xlink:href="#LucidaGrande-20" transform="translate(193.310547 0)"/>
     <use xlink:href="#LucidaGrande-74" transform="translate(224.951172 0)"/>
     <use xlink:href="#LucidaGrande-65" transform="translate(262.353516 0)"/>
     <use xlink:href="#LucidaGrande-6d" transform="translate(318.066406 0)"/>
     <use xlink:href="#LucidaGrande-70" transform="translate(411.425781 0)"/>
     <use xlink:href="#LucidaGrande-6f" transform="translate(474.365234 0)"/>
     <use xlink:href="#LucidaGrande-72" transform="translate(535.791016 0)"/>
     <use xlink:href="#LucidaGrande-61" transform="translate(576.708984 0)"/>
     <use xlink:href="#LucidaGrande-6c" transform="translate(631.933594 0)"/>
     <use xlink:href="#LucidaGrande-20" transform="translate(660.839844 0)"/>
     <use xlink:href="#LucidaGrande-64" transform="translate(692.480469 0)"/>
     <use xlink:href="#LucidaGrande-65" transform="translate(755.419922 0)"/>
     <use xlink:href="#LucidaGrande-72" transform="translate(811.132812 0)"/>
     <use xlink:href="#LucidaGrande-69" transform="translate(852.050781 0)"/>
     <use xlink:href="#LucidaGrande-76" transform="translate(880.957031 0)"/>
     <use xlink:href="#LucidaGrande-61" transform="translate(932.714844 0)"/>
     <use xlink:href="#LucidaGrande-74" transform="translate(987.939453 0)"/>
     <use xlink:href="#LucidaGrande-69" transform="translate(1025.341797 0)"/>
     <use xlink:href="#LucidaGrande-6f" transform="translate(1054.248047 0)"/>
     <use xlink:href="#LucidaGrande-6e" transform="translate(1115.673828 0)"/>
    </g>
   </g>
   <g id="text_15">
    <!-- Validation -->
    <g style="fill: #4d4d4d" transform="translate(605.07007 114.881461) scale(0.105593 -0.105593)">
     <defs>
      <path id="LucidaGrande-56" d="M 1859 0 
L 113 4625 
L 769 4625 
L 2200 838 
L 3581 4625 
L 4156 4625 
L 2478 0 
L 1859 0 
z
" transform="scale(0.015625)"/>
     </defs>
     <use xlink:href="#LucidaGrande-56"/>
     <use xlink:href="#LucidaGrande-61" transform="translate(65.380859 0)"/>
     <use xlink:href="#LucidaGrande-6c" transform="translate(120.605469 0)"/>
     <use xlink:href="#LucidaGrande-69" transform="translate(149.511719 0)"/>
     <use xlink:href="#LucidaGrande-64" transform="translate(178.417969 0)"/>
     <use xlink:href="#LucidaGrande-61" transform="translate(241.357422 0)"/>
     <use xlink:href="#LucidaGrande-74" transform="translate(296.582031 0)"/>
     <use xlink:href="#LucidaGrande-69" transform="translate(333.984375 0)"/>
     <use xlink:href="#LucidaGrande-6f" transform="translate(362.890625 0)"/>
     <use xlink:href="#LucidaGrande-6e" transform="translate(424.316406 0)"/>
    </g>
   </g>
   <g id="text_16">
    <!-- 30% locked holdout -->
    <g style="fill: #4d4d4d" transform="translate(605.07007 131.12054) scale(0.096455 -0.096455)">
     <defs>
      <path id="LucidaGrande-33" d="M 650 34 
L 650 609 
Q 1313 347 1694 347 
Q 2134 347 2411 605 
Q 2688 863 2688 1272 
Q 2688 2247 1322 2247 
L 1078 2247 
L 1078 2663 
L 1294 2666 
Q 2575 2666 2575 3569 
Q 2575 4278 1731 4278 
Q 1269 4278 713 4019 
L 713 4556 
Q 1259 4741 1775 4741 
Q 3194 4741 3194 3669 
Q 3194 2853 2228 2506 
Q 3347 2247 3347 1281 
Q 3347 628 2915 256 
Q 2484 -116 1731 -116 
Q 1303 -116 650 34 
z
" transform="scale(0.015625)"/>
      <path id="LucidaGrande-6b" d="M 616 0 
L 616 4934 
L 1231 4934 
L 1231 1747 
L 2669 3394 
L 3331 3394 
L 1959 1809 
L 3616 0 
L 2828 0 
L 1231 1741 
L 1231 0 
L 616 0 
z
" transform="scale(0.015625)"/>
     </defs>
     <use xlink:href="#LucidaGrande-33"/>
     <use xlink:href="#LucidaGrande-30" transform="translate(63.232422 0)"/>
     <use xlink:href="#LucidaGrande-25" transform="translate(126.464844 0)"/>
     <use xlink:href="#LucidaGrande-20" transform="translate(193.310547 0)"/>
     <use xlink:href="#LucidaGrande-6c" transform="translate(224.951172 0)"/>
     <use xlink:href="#LucidaGrande-6f" transform="translate(253.857422 0)"/>
     <use xlink:href="#LucidaGrande-63" transform="translate(315.283203 0)"/>
     <use xlink:href="#LucidaGrande-6b" transform="translate(366.503906 0)"/>
     <use xlink:href="#LucidaGrande-65" transform="translate(424.951172 0)"/>
     <use xlink:href="#LucidaGrande-64" transform="translate(480.664062 0)"/>
     <use xlink:href="#LucidaGrande-20" transform="translate(543.603516 0)"/>
     <use xlink:href="#LucidaGrande-68" transform="translate(575.244141 0)"/>
     <use xlink:href="#LucidaGrande-6f" transform="translate(637.304688 0)"/>
     <use xlink:href="#LucidaGrande-6c" transform="translate(698.730469 0)"/>
     <use xlink:href="#LucidaGrande-64" transform="translate(727.636719 0)"/>
     <use xlink:href="#LucidaGrande-6f" transform="translate(790.576172 0)"/>
     <use xlink:href="#LucidaGrande-75" transform="translate(852.001953 0)"/>
     <use xlink:href="#LucidaGrande-74" transform="translate(914.0625 0)"/>
    </g>
   </g>
   <g id="text_17">
    <!-- Review boundary -->
    <g style="fill: #4d4d4d" transform="translate(605.07007 182.287408) scale(0.119807 -0.119807)">
     <defs>
      <path id="LucidaGrande-52" d="M 597 0 
L 597 4625 
L 1997 4625 
Q 2663 4625 3017 4331 
Q 3372 4038 3372 3478 
Q 3372 2553 2438 2166 
L 3981 0 
L 3175 0 
L 1859 1956 
L 1247 1956 
L 1247 0 
L 597 0 
z
M 1247 2447 
L 1459 2447 
Q 2697 2447 2697 3419 
Q 2697 4134 1659 4134 
L 1247 4134 
L 1247 2447 
z
" transform="scale(0.015625)"/>
     </defs>
     <use xlink:href="#LucidaGrande-52"/>
     <use xlink:href="#LucidaGrande-65" transform="translate(63.232422 0)"/>
     <use xlink:href="#LucidaGrande-76" transform="translate(118.945312 0)"/>
     <use xlink:href="#LucidaGrande-69" transform="translate(170.703125 0)"/>
     <use xlink:href="#LucidaGrande-65" transform="translate(199.609375 0)"/>
     <use xlink:href="#LucidaGrande-77" transform="translate(255.322266 0)"/>
     <use xlink:href="#LucidaGrande-20" transform="translate(332.373047 0)"/>
     <use xlink:href="#LucidaGrande-62" transform="translate(364.013672 0)"/>
     <use xlink:href="#LucidaGrande-6f" transform="translate(426.953125 0)"/>
     <use xlink:href="#LucidaGrande-75" transform="translate(488.378906 0)"/>
     <use xlink:href="#LucidaGrande-6e" transform="translate(550.439453 0)"/>
     <use xlink:href="#LucidaGrande-64" transform="translate(612.5 0)"/>
     <use xlink:href="#LucidaGrande-61" transform="translate(675.439453 0)"/>
     <use xlink:href="#LucidaGrande-72" transform="translate(730.664062 0)"/>
     <use xlink:href="#LucidaGrande-79" transform="translate(771.582031 0)"/>
    </g>
   </g>
   <g id="text_18">
    <!-- Outcome adjudication -->
    <g style="fill: #4d4d4d" transform="translate(605.07007 203.930523) scale(0.105593 -0.105593)">
     <defs>
      <path id="LucidaGrande-4f" d="M 2459 -116 
Q 1497 -116 911 551 
Q 325 1219 325 2316 
Q 325 3419 914 4080 
Q 1503 4741 2488 4741 
Q 3469 4741 4059 4081 
Q 4650 3422 4650 2322 
Q 4650 1200 4059 542 
Q 3469 -116 2459 -116 
z
M 2469 375 
Q 3178 375 3565 886 
Q 3953 1397 3953 2328 
Q 3953 3231 3564 3740 
Q 3175 4250 2488 4250 
Q 1797 4250 1409 3739 
Q 1022 3228 1022 2319 
Q 1022 1413 1406 894 
Q 1791 375 2469 375 
z
" transform="scale(0.015625)"/>
      <path id="LucidaGrande-6a" d="M -481 -1153 
L -481 -666 
Q -50 -847 175 -847 
Q 500 -847 606 -678 
Q 713 -509 713 0 
L 713 3394 
L 1331 3394 
L 1331 0 
Q 1331 -1309 225 -1309 
Q -103 -1309 -481 -1153 
z
M 713 4009 
L 713 4625 
L 1331 4625 
L 1331 4009 
L 713 4009 
z
" transform="scale(0.015625)"/>
     </defs>
     <use xlink:href="#LucidaGrande-4f"/>
     <use xlink:href="#LucidaGrande-75" transform="translate(77.685547 0)"/>
     <use xlink:href="#LucidaGrande-74" transform="translate(139.746094 0)"/>
     <use xlink:href="#LucidaGrande-63" transform="translate(177.148438 0)"/>
     <use xlink:href="#LucidaGrande-6f" transform="translate(228.369141 0)"/>
     <use xlink:href="#LucidaGrande-6d" transform="translate(289.794922 0)"/>
     <use xlink:href="#LucidaGrande-65" transform="translate(383.154297 0)"/>
     <use xlink:href="#LucidaGrande-20" transform="translate(438.867188 0)"/>
     <use xlink:href="#LucidaGrande-61" transform="translate(470.507812 0)"/>
     <use xlink:href="#LucidaGrande-64" transform="translate(525.732422 0)"/>
     <use xlink:href="#LucidaGrande-6a" transform="translate(588.671875 0)"/>
     <use xlink:href="#LucidaGrande-75" transform="translate(619.091797 0)"/>
     <use xlink:href="#LucidaGrande-64" transform="translate(681.152344 0)"/>
     <use xlink:href="#LucidaGrande-69" transform="translate(744.091797 0)"/>
     <use xlink:href="#LucidaGrande-63" transform="translate(772.998047 0)"/>
     <use xlink:href="#LucidaGrande-61" transform="translate(824.21875 0)"/>
     <use xlink:href="#LucidaGrande-74" transform="translate(879.443359 0)"/>
     <use xlink:href="#LucidaGrande-69" transform="translate(916.845703 0)"/>
     <use xlink:href="#LucidaGrande-6f" transform="translate(945.751953 0)"/>
     <use xlink:href="#LucidaGrande-6e" transform="translate(1007.177734 0)"/>
    </g>
   </g>
   <g id="text_19">
    <!-- Source ledger required -->
    <g style="fill: #4d4d4d" transform="translate(605.07007 220.169601) scale(0.096455 -0.096455)">
     <defs>
      <path id="LucidaGrande-53" d="M 1503 -116 
Q 1038 -116 313 88 
L 313 738 
Q 1094 375 1597 375 
Q 1984 375 2220 578 
Q 2456 781 2456 1113 
Q 2456 1384 2301 1575 
Q 2147 1766 1731 2000 
L 1413 2184 
Q 822 2522 580 2820 
Q 338 3119 338 3516 
Q 338 4050 725 4395 
Q 1113 4741 1713 4741 
Q 2247 4741 2841 4563 
L 2841 3963 
Q 2109 4250 1750 4250 
Q 1409 4250 1187 4069 
Q 966 3888 966 3613 
Q 966 3381 1128 3203 
Q 1291 3025 1722 2778 
L 2053 2591 
Q 2653 2250 2890 1947 
Q 3128 1644 3128 1219 
Q 3128 616 2683 250 
Q 2238 -116 1503 -116 
z
" transform="scale(0.015625)"/>
      <path id="LucidaGrande-71" d="M 2794 -1234 
L 2794 638 
Q 2419 -78 1663 -78 
Q 1050 -78 698 369 
Q 347 816 347 1591 
Q 347 2438 745 2953 
Q 1144 3469 1794 3469 
Q 2397 3469 2794 3006 
L 2794 3394 
L 3413 3394 
L 3413 -1234 
L 2794 -1234 
z
M 2794 2584 
Q 2316 3006 1888 3006 
Q 1003 3006 1003 1653 
Q 1003 463 1791 463 
Q 2303 463 2794 1022 
L 2794 2584 
z
" transform="scale(0.015625)"/>
     </defs>
     <use xlink:href="#LucidaGrande-53"/>
     <use xlink:href="#LucidaGrande-6f" transform="translate(53.857422 0)"/>
     <use xlink:href="#LucidaGrande-75" transform="translate(115.283203 0)"/>
     <use xlink:href="#LucidaGrande-72" transform="translate(177.34375 0)"/>
     <use xlink:href="#LucidaGrande-63" transform="translate(218.261719 0)"/>
     <use xlink:href="#LucidaGrande-65" transform="translate(269.482422 0)"/>
     <use xlink:href="#LucidaGrande-20" transform="translate(325.195312 0)"/>
     <use xlink:href="#LucidaGrande-6c" transform="translate(356.835938 0)"/>
     <use xlink:href="#LucidaGrande-65" transform="translate(385.742188 0)"/>
     <use xlink:href="#LucidaGrande-64" transform="translate(441.455078 0)"/>
     <use xlink:href="#LucidaGrande-67" transform="translate(504.394531 0)"/>
     <use xlink:href="#LucidaGrande-65" transform="translate(566.748047 0)"/>
     <use xlink:href="#LucidaGrande-72" transform="translate(622.460938 0)"/>
     <use xlink:href="#LucidaGrande-20" transform="translate(663.378906 0)"/>
     <use xlink:href="#LucidaGrande-72" transform="translate(695.019531 0)"/>
     <use xlink:href="#LucidaGrande-65" transform="translate(735.9375 0)"/>
     <use xlink:href="#LucidaGrande-71" transform="translate(791.650391 0)"/>
     <use xlink:href="#LucidaGrande-75" transform="translate(854.589844 0)"/>
     <use xlink:href="#LucidaGrande-69" transform="translate(916.650391 0)"/>
     <use xlink:href="#LucidaGrande-72" transform="translate(945.556641 0)"/>
     <use xlink:href="#LucidaGrande-65" transform="translate(986.474609 0)"/>
     <use xlink:href="#LucidaGrande-64" transform="translate(1042.1875 0)"/>
    </g>
   </g>
   <g id="text_20">
    <!-- Publication surface -->
    <g style="fill: #4d4d4d" transform="translate(605.07007 242.794683) scale(0.105593 -0.105593)">
     <use xlink:href="#LucidaGrande-50"/>
     <use xlink:href="#LucidaGrande-75" transform="translate(55.273438 0)"/>
     <use xlink:href="#LucidaGrande-62" transform="translate(117.333984 0)"/>
     <use xlink:href="#LucidaGrande-6c" transform="translate(180.273438 0)"/>
     <use xlink:href="#LucidaGrande-69" transform="translate(209.179688 0)"/>
     <use xlink:href="#LucidaGrande-63" transform="translate(238.085938 0)"/>
     <use xlink:href="#LucidaGrande-61" transform="translate(289.306641 0)"/>
     <use xlink:href="#LucidaGrande-74" transform="translate(344.53125 0)"/>
     <use xlink:href="#LucidaGrande-69" transform="translate(381.933594 0)"/>
     <use xlink:href="#LucidaGrande-6f" transform="translate(410.839844 0)"/>
     <use xlink:href="#LucidaGrande-6e" transform="translate(472.265625 0)"/>
     <use xlink:href="#LucidaGrande-20" transform="translate(534.326172 0)"/>
     <use xlink:href="#LucidaGrande-73" transform="translate(565.966797 0)"/>
     <use xlink:href="#LucidaGrande-75" transform="translate(616.943359 0)"/>
     <use xlink:href="#LucidaGrande-72" transform="translate(679.003906 0)"/>
     <use xlink:href="#LucidaGrande-66" transform="translate(719.921875 0)"/>
     <use xlink:href="#LucidaGrande-61" transform="translate(756.689453 0)"/>
     <use xlink:href="#LucidaGrande-63" transform="translate(811.914062 0)"/>
     <use xlink:href="#LucidaGrande-65" transform="translate(863.134766 0)"/>
    </g>
   </g>
   <g id="text_21">
    <!-- Figure catalog controlled -->
    <g style="fill: #4d4d4d" transform="translate(605.07007 259.033761) scale(0.096455 -0.096455)">
     <defs>
      <path id="LucidaGrande-46" d="M 597 0 
L 597 4625 
L 3181 4625 
L 3181 4134 
L 1253 4134 
L 1253 2584 
L 2872 2584 
L 2872 2100 
L 1253 2100 
L 1253 0 
L 597 0 
z
" transform="scale(0.015625)"/>
     </defs>
     <use xlink:href="#LucidaGrande-46"/>
     <use xlink:href="#LucidaGrande-69" transform="translate(53.613281 0)"/>
     <use xlink:href="#LucidaGrande-67" transform="translate(82.519531 0)"/>
     <use xlink:href="#LucidaGrande-75" transform="translate(144.873047 0)"/>
     <use xlink:href="#LucidaGrande-72" transform="translate(206.933594 0)"/>
     <use xlink:href="#LucidaGrande-65" transform="translate(247.851562 0)"/>
     <use xlink:href="#LucidaGrande-20" transform="translate(303.564453 0)"/>
     <use xlink:href="#LucidaGrande-63" transform="translate(335.205078 0)"/>
     <use xlink:href="#LucidaGrande-61" transform="translate(386.425781 0)"/>
     <use xlink:href="#LucidaGrande-74" transform="translate(441.650391 0)"/>
     <use xlink:href="#LucidaGrande-61" transform="translate(479.052734 0)"/>
     <use xlink:href="#LucidaGrande-6c" transform="translate(534.277344 0)"/>
     <use xlink:href="#LucidaGrande-6f" transform="translate(563.183594 0)"/>
     <use xlink:href="#LucidaGrande-67" transform="translate(624.609375 0)"/>
     <use xlink:href="#LucidaGrande-20" transform="translate(686.962891 0)"/>
     <use xlink:href="#LucidaGrande-63" transform="translate(718.603516 0)"/>
     <use xlink:href="#LucidaGrande-6f" transform="translate(769.824219 0)"/>
     <use xlink:href="#LucidaGrande-6e" transform="translate(831.25 0)"/>
     <use xlink:href="#LucidaGrande-74" transform="translate(893.310547 0)"/>
     <use xlink:href="#LucidaGrande-72" transform="translate(930.712891 0)"/>
     <use xlink:href="#LucidaGrande-6f" transform="translate(971.630859 0)"/>
     <use xlink:href="#LucidaGrande-6c" transform="translate(1033.056641 0)"/>
     <use xlink:href="#LucidaGrande-6c" transform="translate(1061.962891 0)"/>
     <use xlink:href="#LucidaGrande-65" transform="translate(1090.869141 0)"/>
     <use xlink:href="#LucidaGrande-64" transform="translate(1146.582031 0)"/>
    </g>
   </g>
   <g id="text_22">
    <!-- Endpoint inventory -->
    <g style="fill: #4d4d4d" transform="translate(619.284455 314.261882) scale(0.119807 -0.119807)">
     <use xlink:href="#LucidaGrande-45"/>
     <use xlink:href="#LucidaGrande-6e" transform="translate(54.199219 0)"/>
     <use xlink:href="#LucidaGrande-64" transform="translate(116.259766 0)"/>
     <use xlink:href="#LucidaGrande-70" transform="translate(179.199219 0)"/>
     <use xlink:href="#LucidaGrande-6f" transform="translate(242.138672 0)"/>
     <use xlink:href="#LucidaGrande-69" transform="translate(303.564453 0)"/>
     <use xlink:href="#LucidaGrande-6e" transform="translate(332.470703 0)"/>
     <use xlink:href="#LucidaGrande-74" transform="translate(394.53125 0)"/>
     <use xlink:href="#LucidaGrande-20" transform="translate(431.933594 0)"/>
     <use xlink:href="#LucidaGrande-69" transform="translate(463.574219 0)"/>
     <use xlink:href="#LucidaGrande-6e" transform="translate(492.480469 0)"/>
     <use xlink:href="#LucidaGrande-76" transform="translate(554.541016 0)"/>
     <use xlink:href="#LucidaGrande-65" transform="translate(606.298828 0)"/>
     <use xlink:href="#LucidaGrande-6e" transform="translate(662.011719 0)"/>
     <use xlink:href="#LucidaGrande-74" transform="translate(724.072266 0)"/>
     <use xlink:href="#LucidaGrande-6f" transform="translate(761.474609 0)"/>
     <use xlink:href="#LucidaGrande-72" transform="translate(822.900391 0)"/>
     <use xlink:href="#LucidaGrande-79" transform="translate(863.818359 0)"/>
    </g>
   </g>
   <g id="text_23">
    <!-- Primary endpoint (n=31) -->
    <g style="fill: #4d4d4d" transform="translate(619.284455 335.904997) scale(0.105593 -0.105593)">
     <use xlink:href="#LucidaGrande-50"/>
     <use xlink:href="#LucidaGrande-72" transform="translate(55.273438 0)"/>
     <use xlink:href="#LucidaGrande-69" transform="translate(96.191406 0)"/>
     <use xlink:href="#LucidaGrande-6d" transform="translate(125.097656 0)"/>
     <use xlink:href="#LucidaGrande-61" transform="translate(218.457031 0)"/>
     <use xlink:href="#LucidaGrande-72" transform="translate(273.681641 0)"/>
     <use xlink:href="#LucidaGrande-79" transform="translate(314.599609 0)"/>
     <use xlink:href="#LucidaGrande-20" transform="translate(366.845703 0)"/>
     <use xlink:href="#LucidaGrande-65" transform="translate(398.486328 0)"/>
     <use xlink:href="#LucidaGrande-6e" transform="translate(454.199219 0)"/>
     <use xlink:href="#LucidaGrande-64" transform="translate(516.259766 0)"/>
     <use xlink:href="#LucidaGrande-70" transform="translate(579.199219 0)"/>
     <use xlink:href="#LucidaGrande-6f" transform="translate(642.138672 0)"/>
     <use xlink:href="#LucidaGrande-69" transform="translate(703.564453 0)"/>
     <use xlink:href="#LucidaGrande-6e" transform="translate(732.470703 0)"/>
     <use xlink:href="#LucidaGrande-74" transform="translate(794.53125 0)"/>
     <use xlink:href="#LucidaGrande-20" transform="translate(831.933594 0)"/>
     <use xlink:href="#LucidaGrande-28" transform="translate(863.574219 0)"/>
     <use xlink:href="#LucidaGrande-6e" transform="translate(896.09375 0)"/>
     <use xlink:href="#LucidaGrande-3d" transform="translate(958.154297 0)"/>
     <use xlink:href="#LucidaGrande-33" transform="translate(1037.646484 0)"/>
     <use xlink:href="#LucidaGrande-31" transform="translate(1100.878906 0)"/>
     <use xlink:href="#LucidaGrande-29" transform="translate(1164.111328 0)"/>
    </g>
   </g>
   <g id="text_24">
    <!-- Cardiovascular event -->
    <g style="fill: #4d4d4d" transform="translate(619.284455 352.144076) scale(0.096455 -0.096455)">
     <use xlink:href="#LucidaGrande-43"/>
     <use xlink:href="#LucidaGrande-61" transform="translate(69.189453 0)"/>
     <use xlink:href="#LucidaGrande-72" transform="translate(124.414062 0)"/>
     <use xlink:href="#LucidaGrande-64" transform="translate(165.332031 0)"/>
     <use xlink:href="#LucidaGrande-69" transform="translate(228.271484 0)"/>
     <use xlink:href="#LucidaGrande-6f" transform="translate(257.177734 0)"/>
     <use xlink:href="#LucidaGrande-76" transform="translate(318.603516 0)"/>
     <use xlink:href="#LucidaGrande-61" transform="translate(370.361328 0)"/>
     <use xlink:href="#LucidaGrande-73" transform="translate(425.585938 0)"/>
     <use xlink:href="#LucidaGrande-63" transform="translate(476.5625 0)"/>
     <use xlink:href="#LucidaGrande-75" transform="translate(527.783203 0)"/>
     <use xlink:href="#LucidaGrande-6c" transform="translate(589.84375 0)"/>
     <use xlink:href="#LucidaGrande-61" transform="translate(618.75 0)"/>
     <use xlink:href="#LucidaGrande-72" transform="translate(673.974609 0)"/>
     <use xlink:href="#LucidaGrande-20" transform="translate(714.892578 0)"/>
     <use xlink:href="#LucidaGrande-65" transform="translate(746.533203 0)"/>
     <use xlink:href="#LucidaGrande-76" transform="translate(802.246094 0)"/>
     <use xlink:href="#LucidaGrande-65" transform="translate(854.003906 0)"/>
     <use xlink:href="#LucidaGrande-6e" transform="translate(909.716797 0)"/>
     <use xlink:href="#LucidaGrande-74" transform="translate(971.777344 0)"/>
    </g>
   </g>
   <g id="text_25">
    <!-- Secondary endpoint (n=44) -->
    <g style="fill: #4d4d4d" transform="translate(619.284455 374.769157) scale(0.105593 -0.105593)">
     <use xlink:href="#LucidaGrande-53"/>
     <use xlink:href="#LucidaGrande-65" transform="translate(53.857422 0)"/>
     <use xlink:href="#LucidaGrande-63" transform="translate(109.570312 0)"/>
     <use xlink:href="#LucidaGrande-6f" transform="translate(160.791016 0)"/>
     <use xlink:href="#LucidaGrande-6e" transform="translate(222.216797 0)"/>
     <use xlink:href="#LucidaGrande-64" transform="translate(284.277344 0)"/>
     <use xlink:href="#LucidaGrande-61" transform="translate(347.216797 0)"/>
     <use xlink:href="#LucidaGrande-72" transform="translate(402.441406 0)"/>
     <use xlink:href="#LucidaGrande-79" transform="translate(443.359375 0)"/>
     <use xlink:href="#LucidaGrande-20" transform="translate(495.605469 0)"/>
     <use xlink:href="#LucidaGrande-65" transform="translate(527.246094 0)"/>
     <use xlink:href="#LucidaGrande-6e" transform="translate(582.958984 0)"/>
     <use xlink:href="#LucidaGrande-64" transform="translate(645.019531 0)"/>
     <use xlink:href="#LucidaGrande-70" transform="translate(707.958984 0)"/>
     <use xlink:href="#LucidaGrande-6f" transform="translate(770.898438 0)"/>
     <use xlink:href="#LucidaGrande-69" transform="translate(832.324219 0)"/>
     <use xlink:href="#LucidaGrande-6e" transform="translate(861.230469 0)"/>
     <use xlink:href="#LucidaGrande-74" transform="translate(923.291016 0)"/>
     <use xlink:href="#LucidaGrande-20" transform="translate(960.693359 0)"/>
     <use xlink:href="#LucidaGrande-28" transform="translate(992.333984 0)"/>
     <use xlink:href="#LucidaGrande-6e" transform="translate(1024.853516 0)"/>
     <use xlink:href="#LucidaGrande-3d" transform="translate(1086.914062 0)"/>
     <use xlink:href="#LucidaGrande-34" transform="translate(1166.40625 0)"/>
     <use xlink:href="#LucidaGrande-34" transform="translate(1229.638672 0)"/>
     <use xlink:href="#LucidaGrande-29" transform="translate(1292.871094 0)"/>
    </g>
   </g>
   <g id="text_26">
    <!-- Hospitalization -->
    <g style="fill: #4d4d4d" transform="translate(619.284455 391.008235) scale(0.096455 -0.096455)">
     <defs>
      <path id="LucidaGrande-48" d="M 597 0 
L 597 4625 
L 1253 4625 
L 1253 2675 
L 3453 2675 
L 3453 4625 
L 4109 4625 
L 4109 0 
L 3453 0 
L 3453 2184 
L 1253 2184 
L 1253 0 
L 597 0 
z
" transform="scale(0.015625)"/>
      <path id="LucidaGrande-7a" d="M 384 0 
L 384 463 
L 2484 2931 
L 481 2931 
L 481 3394 
L 3244 3394 
L 3244 2931 
L 1144 463 
L 3284 463 
L 3284 0 
L 384 0 
z
" transform="scale(0.015625)"/>
     </defs>
     <use xlink:href="#LucidaGrande-48"/>
     <use xlink:href="#LucidaGrande-6f" transform="translate(73.486328 0)"/>
     <use xlink:href="#LucidaGrande-73" transform="translate(134.912109 0)"/>
     <use xlink:href="#LucidaGrande-70" transform="translate(185.888672 0)"/>
     <use xlink:href="#LucidaGrande-69" transform="translate(248.828125 0)"/>
     <use xlink:href="#LucidaGrande-74" transform="translate(277.734375 0)"/>
     <use xlink:href="#LucidaGrande-61" transform="translate(315.136719 0)"/>
     <use xlink:href="#LucidaGrande-6c" transform="translate(370.361328 0)"/>
     <use xlink:href="#LucidaGrande-69" transform="translate(399.267578 0)"/>
     <use xlink:href="#LucidaGrande-7a" transform="translate(428.173828 0)"/>
     <use xlink:href="#LucidaGrande-61" transform="translate(485.498047 0)"/>
     <use xlink:href="#LucidaGrande-74" transform="translate(540.722656 0)"/>
     <use xlink:href="#LucidaGrande-69" transform="translate(578.125 0)"/>
     <use xlink:href="#LucidaGrande-6f" transform="translate(607.03125 0)"/>
     <use xlink:href="#LucidaGrande-6e" transform="translate(668.457031 0)"/>
    </g>
   </g>
   <g id="text_27">
    <!-- A -->
    <g style="fill: #4d4d4d" transform="translate(34 20.766722) scale(0.113715 -0.113715)">
     <use xlink:href="#LucidaGrande-41"/>
    </g>
   </g>
   <g id="text_28">
    <!-- Cohort assembly -->
    <g style="fill: #4d4d4d" transform="translate(54.874078 22.236368) scale(0.119807 -0.119807)">
     <use xlink:href="#LucidaGrande-43"/>
     <use xlink:href="#LucidaGrande-6f" transform="translate(69.189453 0)"/>
     <use xlink:href="#LucidaGrande-68" transform="translate(130.615234 0)"/>
     <use xlink:href="#LucidaGrande-6f" transform="translate(192.675781 0)"/>
     <use xlink:href="#LucidaGrande-72" transform="translate(254.101562 0)"/>
     <use xlink:href="#LucidaGrande-74" transform="translate(295.019531 0)"/>
     <use xlink:href="#LucidaGrande-20" transform="translate(332.421875 0)"/>
     <use xlink:href="#LucidaGrande-61" transform="translate(364.0625 0)"/>
     <use xlink:href="#LucidaGrande-73" transform="translate(419.287109 0)"/>
     <use xlink:href="#LucidaGrande-73" transform="translate(470.263672 0)"/>
     <use xlink:href="#LucidaGrande-65" transform="translate(521.240234 0)"/>
     <use xlink:href="#LucidaGrande-6d" transform="translate(576.953125 0)"/>
     <use xlink:href="#LucidaGrande-62" transform="translate(670.3125 0)"/>
     <use xlink:href="#LucidaGrande-6c" transform="translate(733.251953 0)"/>
     <use xlink:href="#LucidaGrande-79" transform="translate(762.158203 0)"/>
    </g>
   </g>
   <g id="text_29">
    <!-- B -->
    <g style="fill: #4d4d4d" transform="translate(595.932251 20.766722) scale(0.113715 -0.113715)">
     <defs>
      <path id="LucidaGrande-42" d="M 597 0 
L 597 4625 
L 1797 4625 
Q 2491 4625 2861 4362 
Q 3231 4100 3231 3606 
Q 3231 2766 2281 2409 
Q 3416 2063 3416 1156 
Q 3416 594 3041 297 
Q 2666 0 1959 0 
L 597 0 
z
M 1247 491 
L 1381 491 
Q 2103 491 2316 581 
Q 2722 753 2722 1219 
Q 2722 1631 2353 1904 
Q 1984 2178 1431 2178 
L 1247 2178 
L 1247 491 
z
M 1247 2594 
L 1456 2594 
Q 1981 2594 2270 2819 
Q 2559 3044 2559 3453 
Q 2559 4134 1503 4134 
L 1247 4134 
L 1247 2594 
z
" transform="scale(0.015625)"/>
     </defs>
     <use xlink:href="#LucidaGrande-42"/>
    </g>
   </g>
   <g id="text_30">
    <!-- Validation and model hierarchy -->
    <g style="fill: #4d4d4d" transform="translate(614.938914 22.236368) scale(0.119807 -0.119807)">
     <use xlink:href="#LucidaGrande-56"/>
     <use xlink:href="#LucidaGrande-61" transform="translate(65.380859 0)"/>
     <use xlink:href="#LucidaGrande-6c" transform="translate(120.605469 0)"/>
     <use xlink:href="#LucidaGrande-69" transform="translate(149.511719 0)"/>
     <use xlink:href="#LucidaGrande-64" transform="translate(178.417969 0)"/>
     <use xlink:href="#LucidaGrande-61" transform="translate(241.357422 0)"/>
     <use xlink:href="#LucidaGrande-74" transform="translate(296.582031 0)"/>
     <use xlink:href="#LucidaGrande-69" transform="translate(333.984375 0)"/>
     <use xlink:href="#LucidaGrande-6f" transform="translate(362.890625 0)"/>
     <use xlink:href="#LucidaGrande-6e" transform="translate(424.316406 0)"/>
     <use xlink:href="#LucidaGrande-20" transform="translate(486.376953 0)"/>
     <use xlink:href="#LucidaGrande-61" transform="translate(518.017578 0)"/>
     <use xlink:href="#LucidaGrande-6e" transform="translate(573.242188 0)"/>
     <use xlink:href="#LucidaGrande-64" transform="translate(635.302734 0)"/>
     <use xlink:href="#LucidaGrande-20" transform="translate(698.242188 0)"/>
     <use xlink:href="#LucidaGrande-6d" transform="translate(729.882812 0)"/>
     <use xlink:href="#LucidaGrande-6f" transform="translate(823.242188 0)"/>
     <use xlink:href="#LucidaGrande-64" transform="translate(884.667969 0)"/>
     <use xlink:href="#LucidaGrande-65" transform="translate(947.607422 0)"/>
     <use xlink:href="#LucidaGrande-6c" transform="translate(1003.320312 0)"/>
     <use xlink:href="#LucidaGrande-20" transform="translate(1032.226562 0)"/>
     <use xlink:href="#LucidaGrande-68" transform="translate(1063.867188 0)"/>
     <use xlink:href="#LucidaGrande-69" transform="translate(1125.927734 0)"/>
     <use xlink:href="#LucidaGrande-65" transform="translate(1154.833984 0)"/>
     <use xlink:href="#LucidaGrande-72" transform="translate(1210.546875 0)"/>
     <use xlink:href="#LucidaGrande-61" transform="translate(1251.464844 0)"/>
     <use xlink:href="#LucidaGrande-72" transform="translate(1306.689453 0)"/>
     <use xlink:href="#LucidaGrande-63" transform="translate(1347.607422 0)"/>
     <use xlink:href="#LucidaGrande-68" transform="translate(1398.828125 0)"/>
     <use xlink:href="#LucidaGrande-79" transform="translate(1460.888672 0)"/>
    </g>
   </g>
  </g>
 </g>
 <defs>
  <clipPath id="p95a781cba4">
   <rect x="0" y="0" width="979.2" height="436.589045"/>
  </clipPath>
 </defs>
</svg>
