<?xml version="1.0" encoding="utf-8" standalone="no"?>
<!DOCTYPE svg PUBLIC "-//W3C//DTD SVG 1.1//EN"
  "http://www.w3.org/Graphics/SVG/1.1/DTD/svg11.dtd">
<svg xmlns:xlink="http://www.w3.org/1999/xlink" width="950.4pt" height="590.4pt" viewBox="0 0 950.4 590.4" xmlns="http://www.w3.org/2000/svg" version="1.1">
 <metadata>
  <rdf:RDF xmlns:dc="http://purl.org/dc/elements/1.1/" xmlns:cc="http://creativecommons.org/ns#" xmlns:rdf="http://www.w3.org/1999/02/22-rdf-syntax-ns#">
   <cc:Work>
    <dc:type rdf:resource="http://purl.org/dc/dcmitype/StillImage"/>
    <dc:date>2026-06-18T23:23:59.180541</dc:date>
    <dc:format>image/svg+xml</dc:format>
    <dc:creator>
     <cc:Agent>
      <dc:title>Matplotlib v3.10.8, https://matplotlib.org/</dc:title>
     </cc:Agent>
    </dc:creator>
   </cc:Work>
  </rdf:RDF>
 </metadata>
 <defs>
  <style type="text/css">*{stroke-linejoin: round; stroke-linecap: butt}</style>
 </defs>
 <g id="figure_1">
  <g id="patch_1">
   <path d="M 0 590.4 
L 950.4 590.4 
L 950.4 0 
L 0 0 
z
" style="fill: #ffffff"/>
  </g>
  <g id="axes_1">
   <g id="patch_2">
    <path d="M 52 136 
L 294.133333 136 
Q 312.133333 136 312.133333 118 
L 312.133333 44 
Q 312.133333 26 294.133333 26 
L 52 26 
Q 34 26 34 44 
L 34 118 
Q 34 136 52 136 
z
" clip-path="url(#pfe23eb1fc5)" style="fill: #dceaf7; stroke: #0f4d92; stroke-width: 1.4; stroke-linejoin: miter"/>
   </g>
   <g id="patch_3">
    <path d="M 354.133333 136 
L 596.266667 136 
Q 614.266667 136 614.266667 118 
L 614.266667 44 
Q 614.266667 26 596.266667 26 
L 354.133333 26 
Q 336.133333 26 336.133333 44 
L 336.133333 118 
Q 336.133333 136 354.133333 136 
z
" clip-path="url(#pfe23eb1fc5)" style="fill: #dceaf7; stroke: #0f4d92; stroke-width: 1.4; stroke-linejoin: miter"/>
   </g>
   <g id="patch_4">
    <path d="M 656.266667 136 
L 898.4 136 
Q 916.4 136 916.4 118 
L 916.4 44 
Q 916.4 26 898.4 26 
L 656.266667 26 
Q 638.266667 26 638.266667 44 
L 638.266667 118 
Q 638.266667 136 656.266667 136 
z
" clip-path="url(#pfe23eb1fc5)" style="fill: #dceaf7; stroke: #0f4d92; stroke-width: 1.4; stroke-linejoin: miter"/>
   </g>
   <g id="patch_5">
    <path d="M 316.133333 81 
Q 324.133333 81 330.344479 81 
" clip-path="url(#pfe23eb1fc5)" style="fill: none; stroke: #0f4d92; stroke-width: 1.6; stroke-linecap: round"/>
    <path d="M 324.744479 78.2 
L 330.344479 81 
L 324.744479 83.8 
z
" clip-path="url(#pfe23eb1fc5)" style="fill: #0f4d92; stroke: #0f4d92; stroke-width: 1.6; stroke-linecap: round"/>
   </g>
   <g id="patch_6">
    <path d="M 618.266667 81 
Q 626.266667 81 632.477812 81 
" clip-path="url(#pfe23eb1fc5)" style="fill: none; stroke: #0f4d92; stroke-width: 1.6; stroke-linecap: round"/>
    <path d="M 626.877812 78.2 
L 632.477812 81 
L 626.877812 83.8 
z
" clip-path="url(#pfe23eb1fc5)" style="fill: #0f4d92; stroke: #0f4d92; stroke-width: 1.6; stroke-linecap: round"/>
   </g>
   <g id="patch_7">
    <path d="M 52 564.4 
L 294.133333 564.4 
Q 312.133333 564.4 312.133333 546.4 
L 312.133333 182 
Q 312.133333 164 294.133333 164 
L 52 164 
Q 34 164 34 182 
L 34 546.4 
Q 34 564.4 52 564.4 
z
" clip-path="url(#pfe23eb1fc5)" style="fill: #dceaf7; stroke: #4d4d4d; stroke-width: 1.4; stroke-linejoin: miter"/>
   </g>
   <g id="patch_8">
    <path d="M 354.133333 564.4 
L 596.266667 564.4 
Q 614.266667 564.4 614.266667 546.4 
L 614.266667 182 
Q 614.266667 164 596.266667 164 
L 354.133333 164 
Q 336.133333 164 336.133333 182 
L 336.133333 546.4 
Q 336.133333 564.4 354.133333 564.4 
z
" clip-path="url(#pfe23eb1fc5)" style="fill: #ddf3f0; stroke: #4d4d4d; stroke-width: 1.4; stroke-linejoin: miter"/>
   </g>
   <g id="patch_9">
    <path d="M 656.266667 564.4 
L 898.4 564.4 
Q 916.4 564.4 916.4 546.4 
L 916.4 182 
Q 916.4 164 898.4 164 
L 656.266667 164 
Q 638.266667 164 638.266667 182 
L 638.266667 546.4 
Q 638.266667 564.4 656.266667 564.4 
z
" clip-path="url(#pfe23eb1fc5)" style="fill: #f7ebeb; stroke: #4d4d4d; stroke-width: 1.4; stroke-linejoin: miter"/>
   </g>
   <g id="text_1">
    <!-- Cohort assembly -->
    <g style="fill: #0f4d92" transform="translate(48 49.25125) scale(0.12 -0.12)">
     <defs>
      <path id="LucidaGrande-43" d="M 2578 -116 
Q 1500 -116 912 517 
Q 325 1150 325 2309 
Q 325 3466 923 4103 
Q 1522 4741 2609 4741 
Q 3231 4741 4066 4538 
L 4066 3922 
Q 3116 4250 2600 4250 
Q 1847 4250 1434 3740 
Q 1022 3231 1022 2303 
Q 1022 1419 1462 908 
Q 1903 397 2666 397 
Q 3322 397 4072 800 
L 4072 238 
Q 3388 -116 2578 -116 
z
" transform="scale(0.015625)"/>
      <path id="LucidaGrande-6f" d="M 1944 -78 
Q 1216 -78 781 405 
Q 347 888 347 1697 
Q 347 2516 783 2992 
Q 1219 3469 1966 3469 
Q 2713 3469 3148 2992 
Q 3584 2516 3584 1703 
Q 3584 872 3146 397 
Q 2709 -78 1944 -78 
z
M 1953 384 
Q 2931 384 2931 1703 
Q 2931 3006 1966 3006 
Q 1003 3006 1003 1697 
Q 1003 384 1953 384 
z
" transform="scale(0.015625)"/>
      <path id="LucidaGrande-68" d="M 616 0 
L 616 4934 
L 1231 4934 
L 1231 2756 
Q 1719 3469 2425 3469 
Q 2866 3469 3128 3189 
Q 3391 2909 3391 2438 
L 3391 0 
L 2775 0 
L 2775 2238 
Q 2775 2616 2664 2777 
Q 2553 2938 2297 2938 
Q 1731 2938 1231 2197 
L 1231 0 
L 616 0 
z
" transform="scale(0.015625)"/>
      <path id="LucidaGrande-72" d="M 616 0 
L 616 3394 
L 1231 3394 
L 1231 2756 
Q 1597 3469 2294 3469 
Q 2388 3469 2491 3453 
L 2491 2878 
Q 2331 2931 2209 2931 
Q 1625 2931 1231 2238 
L 1231 0 
L 616 0 
z
" transform="scale(0.015625)"/>
      <path id="LucidaGrande-74" d="M 1634 -78 
Q 1166 -78 903 190 
Q 641 459 641 938 
L 641 2931 
L 216 2931 
L 216 3394 
L 641 3394 
L 641 4009 
L 1256 4069 
L 1256 3394 
L 2144 3394 
L 2144 2931 
L 1256 2931 
L 1256 1050 
Q 1256 384 1831 384 
Q 1953 384 2128 425 
L 2128 0 
Q 1844 -78 1634 -78 
z
" transform="scale(0.015625)"/>
      <path id="LucidaGrande-20" transform="scale(0.015625)"/>
      <path id="LucidaGrande-61" d="M 2366 431 
Q 1813 -78 1300 -78 
Q 878 -78 600 186 
Q 322 450 322 853 
Q 322 1409 789 1707 
Q 1256 2006 2128 2006 
L 2275 2006 
L 2275 2416 
Q 2275 3006 1669 3006 
Q 1181 3006 616 2706 
L 616 3216 
Q 1238 3469 1781 3469 
Q 2350 3469 2620 3212 
Q 2891 2956 2891 2416 
L 2891 878 
Q 2891 350 3216 350 
Q 3256 350 3334 363 
L 3378 22 
Q 3169 -78 2916 -78 
Q 2484 -78 2366 431 
z
M 2275 766 
L 2275 1644 
L 2069 1650 
Q 1563 1650 1250 1458 
Q 938 1266 938 953 
Q 938 731 1094 578 
Q 1250 425 1475 425 
Q 1859 425 2275 766 
z
" transform="scale(0.015625)"/>
      <path id="LucidaGrande-73" d="M 1516 -78 
Q 1094 -78 491 119 
L 491 684 
Q 1094 384 1541 384 
Q 1806 384 1981 528 
Q 2156 672 2156 888 
Q 2156 1203 1666 1409 
L 1306 1563 
Q 509 1894 509 2516 
Q 509 2959 823 3214 
Q 1138 3469 1684 3469 
Q 1969 3469 2388 3391 
L 2516 3366 
L 2516 2853 
Q 2000 3006 1697 3006 
Q 1103 3006 1103 2575 
Q 1103 2297 1553 2106 
L 1850 1981 
Q 2353 1769 2562 1533 
Q 2772 1297 2772 944 
Q 2772 497 2419 209 
Q 2066 -78 1516 -78 
z
" transform="scale(0.015625)"/>
      <path id="LucidaGrande-65" d="M 3103 109 
Q 2484 -78 2044 -78 
Q 1294 -78 820 420 
Q 347 919 347 1713 
Q 347 2484 764 2978 
Q 1181 3472 1831 3472 
Q 2447 3472 2783 3034 
Q 3119 2597 3119 1791 
L 3116 1600 
L 975 1600 
Q 1109 391 2159 391 
Q 2544 391 3103 597 
L 3103 109 
z
M 1003 2063 
L 2500 2063 
Q 2500 3009 1794 3009 
Q 1084 3009 1003 2063 
z
" transform="scale(0.015625)"/>
      <path id="LucidaGrande-6d" d="M 616 0 
L 616 3394 
L 1231 3394 
L 1231 2756 
Q 1681 3469 2388 3469 
Q 3069 3469 3316 2756 
Q 3753 3472 4453 3472 
Q 4903 3472 5150 3208 
Q 5397 2944 5397 2469 
L 5397 0 
L 4778 0 
L 4778 2372 
Q 4778 2953 4319 2953 
Q 3841 2953 3316 2275 
L 3316 0 
L 2697 0 
L 2697 2372 
Q 2697 2956 2228 2956 
Q 1763 2956 1231 2275 
L 1231 0 
L 616 0 
z
" transform="scale(0.015625)"/>
      <path id="LucidaGrande-62" d="M 616 -38 
L 616 4934 
L 1231 4934 
L 1231 2756 
Q 1609 3469 2366 3469 
Q 2978 3469 3329 3022 
Q 3681 2575 3681 1800 
Q 3681 956 3282 439 
Q 2884 -78 2234 -78 
Q 1631 -78 1231 384 
L 1156 -38 
L 616 -38 
z
M 1231 809 
Q 1706 384 2138 384 
Q 3025 384 3025 1738 
Q 3025 2931 2238 2931 
Q 1722 2931 1231 2372 
L 1231 809 
z
" transform="scale(0.015625)"/>
      <path id="LucidaGrande-6c" d="M 616 0 
L 616 4934 
L 1231 4934 
L 1231 0 
L 616 0 
z
" transform="scale(0.015625)"/>
      <path id="LucidaGrande-79" d="M 813 -1234 
L 1363 0 
L 50 3394 
L 716 3394 
L 1688 838 
L 2725 3394 
L 3306 3394 
L 1453 -1234 
L 813 -1234 
z
" transform="scale(0.015625)"/>
     </defs>
     <use xlink:href="#LucidaGrande-43"/>
     <use xlink:href="#LucidaGrande-6f" transform="translate(69.189453 0)"/>
     <use xlink:href="#LucidaGrande-68" transform="translate(130.615234 0)"/>
     <use xlink:href="#LucidaGrande-6f" transform="translate(192.675781 0)"/>
     <use xlink:href="#LucidaGrande-72" transform="translate(254.101562 0)"/>
     <use xlink:href="#LucidaGrande-74" transform="translate(295.019531 0)"/>
     <use xlink:href="#LucidaGrande-20" transform="translate(332.421875 0)"/>
     <use xlink:href="#LucidaGrande-61" transform="translate(364.0625 0)"/>
     <use xlink:href="#LucidaGrande-73" transform="translate(419.287109 0)"/>
     <use xlink:href="#LucidaGrande-73" transform="translate(470.263672 0)"/>
     <use xlink:href="#LucidaGrande-65" transform="translate(521.240234 0)"/>
     <use xlink:href="#LucidaGrande-6d" transform="translate(576.953125 0)"/>
     <use xlink:href="#LucidaGrande-62" transform="translate(670.3125 0)"/>
     <use xlink:href="#LucidaGrande-6c" transform="translate(733.251953 0)"/>
     <use xlink:href="#LucidaGrande-79" transform="translate(762.158203 0)"/>
    </g>
   </g>
   <g id="text_2">
    <!-- Primary screened and analyzed cohort -->
    <g style="fill: #4d4d4d" transform="translate(48 66.732625) scale(0.092 -0.092)">
     <defs>
      <path id="LucidaGrande-50" d="M 597 0 
L 597 4625 
L 1856 4625 
Q 2694 4625 3059 4342 
Q 3425 4059 3425 3413 
Q 3425 2675 2925 2256 
Q 2425 1838 1538 1838 
L 1247 1838 
L 1247 0 
L 597 0 
z
M 1247 2334 
L 1513 2334 
Q 2097 2334 2415 2603 
Q 2734 2872 2734 3363 
Q 2734 3778 2484 3956 
Q 2234 4134 1650 4134 
L 1247 4134 
L 1247 2334 
z
" transform="scale(0.015625)"/>
      <path id="LucidaGrande-69" d="M 616 0 
L 616 3394 
L 1231 3394 
L 1231 0 
L 616 0 
z
M 616 4009 
L 616 4625 
L 1231 4625 
L 1231 4009 
L 616 4009 
z
" transform="scale(0.015625)"/>
      <path id="LucidaGrande-63" d="M 1941 -78 
Q 1253 -78 800 431 
Q 347 941 347 1716 
Q 347 2544 795 3006 
Q 1244 3469 2047 3469 
Q 2444 3469 2934 3359 
L 2934 2844 
Q 2413 2997 2084 2997 
Q 1613 2997 1327 2642 
Q 1041 2288 1041 1697 
Q 1041 1125 1334 772 
Q 1628 419 2103 419 
Q 2525 419 2972 634 
L 2972 103 
Q 2375 -78 1941 -78 
z
" transform="scale(0.015625)"/>
      <path id="LucidaGrande-6e" d="M 616 0 
L 616 3394 
L 1231 3394 
L 1231 2756 
Q 1719 3469 2425 3469 
Q 2866 3469 3128 3189 
Q 3391 2909 3391 2438 
L 3391 0 
L 2775 0 
L 2775 2238 
Q 2775 2616 2664 2777 
Q 2553 2938 2297 2938 
Q 1731 2938 1231 2197 
L 1231 0 
L 616 0 
z
" transform="scale(0.015625)"/>
      <path id="LucidaGrande-64" d="M 2794 0 
L 2794 638 
Q 2419 -78 1663 -78 
Q 1050 -78 698 369 
Q 347 816 347 1591 
Q 347 2438 745 2953 
Q 1144 3469 1794 3469 
Q 2397 3469 2794 3006 
L 2794 4934 
L 3413 4934 
L 3413 0 
L 2794 0 
z
M 2794 2584 
Q 2316 3006 1888 3006 
Q 1003 3006 1003 1653 
Q 1003 463 1791 463 
Q 2303 463 2794 1022 
L 2794 2584 
z
" transform="scale(0.015625)"/>
      <path id="LucidaGrande-7a" d="M 384 0 
L 384 463 
L 2484 2931 
L 481 2931 
L 481 3394 
L 3244 3394 
L 3244 2931 
L 1144 463 
L 3284 463 
L 3284 0 
L 384 0 
z
" transform="scale(0.015625)"/>
     </defs>
     <use xlink:href="#LucidaGrande-50"/>
     <use xlink:href="#LucidaGrande-72" transform="translate(55.273438 0)"/>
     <use xlink:href="#LucidaGrande-69" transform="translate(96.191406 0)"/>
     <use xlink:href="#LucidaGrande-6d" transform="translate(125.097656 0)"/>
     <use xlink:href="#LucidaGrande-61" transform="translate(218.457031 0)"/>
     <use xlink:href="#LucidaGrande-72" transform="translate(273.681641 0)"/>
     <use xlink:href="#LucidaGrande-79" transform="translate(314.599609 0)"/>
     <use xlink:href="#LucidaGrande-20" transform="translate(366.845703 0)"/>
     <use xlink:href="#LucidaGrande-73" transform="translate(398.486328 0)"/>
     <use xlink:href="#LucidaGrande-63" transform="translate(449.462891 0)"/>
     <use xlink:href="#LucidaGrande-72" transform="translate(500.683594 0)"/>
     <use xlink:href="#LucidaGrande-65" transform="translate(541.601562 0)"/>
     <use xlink:href="#LucidaGrande-65" transform="translate(597.314453 0)"/>
     <use xlink:href="#LucidaGrande-6e" transform="translate(653.027344 0)"/>
     <use xlink:href="#LucidaGrande-65" transform="translate(715.087891 0)"/>
     <use xlink:href="#LucidaGrande-64" transform="translate(770.800781 0)"/>
     <use xlink:href="#LucidaGrande-20" transform="translate(833.740234 0)"/>
     <use xlink:href="#LucidaGrande-61" transform="translate(865.380859 0)"/>
     <use xlink:href="#LucidaGrande-6e" transform="translate(920.605469 0)"/>
     <use xlink:href="#LucidaGrande-64" transform="translate(982.666016 0)"/>
     <use xlink:href="#LucidaGrande-20" transform="translate(1045.605469 0)"/>
     <use xlink:href="#LucidaGrande-61" transform="translate(1077.246094 0)"/>
     <use xlink:href="#LucidaGrande-6e" transform="translate(1132.470703 0)"/>
     <use xlink:href="#LucidaGrande-61" transform="translate(1194.53125 0)"/>
     <use xlink:href="#LucidaGrande-6c" transform="translate(1249.755859 0)"/>
     <use xlink:href="#LucidaGrande-79" transform="translate(1278.662109 0)"/>
     <use xlink:href="#LucidaGrande-7a" transform="translate(1330.908203 0)"/>
     <use xlink:href="#LucidaGrande-65" transform="translate(1388.232422 0)"/>
     <use xlink:href="#LucidaGrande-64" transform="translate(1443.945312 0)"/>
     <use xlink:href="#LucidaGrande-20" transform="translate(1506.884766 0)"/>
     <use xlink:href="#LucidaGrande-63" transform="translate(1538.525391 0)"/>
     <use xlink:href="#LucidaGrande-6f" transform="translate(1589.746094 0)"/>
     <use xlink:href="#LucidaGrande-68" transform="translate(1651.171875 0)"/>
     <use xlink:href="#LucidaGrande-6f" transform="translate(1713.232422 0)"/>
     <use xlink:href="#LucidaGrande-72" transform="translate(1774.658203 0)"/>
     <use xlink:href="#LucidaGrande-74" transform="translate(1815.576172 0)"/>
    </g>
   </g>
   <g id="text_3">
    <!-- Model development -->
    <g style="fill: #0f4d92" transform="translate(350.133333 49.25125) scale(0.12 -0.12)">
     <defs>
      <path id="LucidaGrande-4d" d="M 597 0 
L 597 4625 
L 1506 4625 
L 2788 1047 
L 4106 4625 
L 4919 4625 
L 4919 0 
L 4306 0 
L 4306 3763 
L 3031 309 
L 2397 309 
L 1159 3772 
L 1159 0 
L 597 0 
z
" transform="scale(0.015625)"/>
      <path id="LucidaGrande-76" d="M 1319 0 
L 56 3394 
L 672 3394 
L 1659 753 
L 2700 3394 
L 3275 3394 
L 1934 0 
L 1319 0 
z
" transform="scale(0.015625)"/>
      <path id="LucidaGrande-70" d="M 616 -1234 
L 616 3394 
L 1231 3394 
L 1231 2756 
Q 1609 3469 2366 3469 
Q 2978 3469 3329 3022 
Q 3681 2575 3681 1800 
Q 3681 956 3282 439 
Q 2884 -78 2234 -78 
Q 1631 -78 1231 384 
L 1231 -1234 
L 616 -1234 
z
M 1231 809 
Q 1706 384 2138 384 
Q 3025 384 3025 1738 
Q 3025 2931 2238 2931 
Q 1722 2931 1231 2372 
L 1231 809 
z
" transform="scale(0.015625)"/>
     </defs>
     <use xlink:href="#LucidaGrande-4d"/>
     <use xlink:href="#LucidaGrande-6f" transform="translate(86.132812 0)"/>
     <use xlink:href="#LucidaGrande-64" transform="translate(147.558594 0)"/>
     <use xlink:href="#LucidaGrande-65" transform="translate(210.498047 0)"/>
     <use xlink:href="#LucidaGrande-6c" transform="translate(266.210938 0)"/>
     <use xlink:href="#LucidaGrande-20" transform="translate(295.117188 0)"/>
     <use xlink:href="#LucidaGrande-64" transform="translate(326.757812 0)"/>
     <use xlink:href="#LucidaGrande-65" transform="translate(389.697266 0)"/>
     <use xlink:href="#LucidaGrande-76" transform="translate(445.410156 0)"/>
     <use xlink:href="#LucidaGrande-65" transform="translate(497.167969 0)"/>
     <use xlink:href="#LucidaGrande-6c" transform="translate(552.880859 0)"/>
     <use xlink:href="#LucidaGrande-6f" transform="translate(581.787109 0)"/>
     <use xlink:href="#LucidaGrande-70" transform="translate(643.212891 0)"/>
     <use xlink:href="#LucidaGrande-6d" transform="translate(706.152344 0)"/>
     <use xlink:href="#LucidaGrande-65" transform="translate(799.511719 0)"/>
     <use xlink:href="#LucidaGrande-6e" transform="translate(855.224609 0)"/>
     <use xlink:href="#LucidaGrande-74" transform="translate(917.285156 0)"/>
    </g>
   </g>
   <g id="text_4">
    <!-- Feature engineering and internal validation -->
    <g style="fill: #4d4d4d" transform="translate(350.133333 66.732625) scale(0.092 -0.092)">
     <defs>
      <path id="LucidaGrande-46" d="M 597 0 
L 597 4625 
L 3181 4625 
L 3181 4134 
L 1253 4134 
L 1253 2584 
L 2872 2584 
L 2872 2100 
L 1253 2100 
L 1253 0 
L 597 0 
z
" transform="scale(0.015625)"/>
      <path id="LucidaGrande-75" d="M 2738 0 
L 2738 638 
Q 2247 -78 1547 -78 
Q 1103 -78 840 201 
Q 578 481 578 956 
L 578 3394 
L 1194 3394 
L 1194 1156 
Q 1194 775 1305 614 
Q 1416 453 1675 453 
Q 2238 453 2738 1194 
L 2738 3394 
L 3353 3394 
L 3353 0 
L 2738 0 
z
" transform="scale(0.015625)"/>
      <path id="LucidaGrande-67" d="M 628 -1128 
L 700 -594 
Q 1234 -847 1753 -847 
Q 2794 -847 2794 256 
L 2794 791 
Q 2453 78 1675 78 
Q 1066 78 706 522 
Q 347 966 347 1719 
Q 347 2494 756 2981 
Q 1166 3469 1816 3469 
Q 2384 3469 2794 3006 
L 2794 3394 
L 3413 3394 
L 3413 925 
Q 3413 128 3330 -255 
Q 3247 -638 3019 -881 
Q 2616 -1309 1766 -1309 
Q 1172 -1309 628 -1128 
z
M 2794 1175 
L 2794 2584 
Q 2388 3006 1909 3006 
Q 1484 3006 1243 2665 
Q 1003 2325 1003 1731 
Q 1003 616 1788 616 
Q 2322 616 2794 1175 
z
" transform="scale(0.015625)"/>
     </defs>
     <use xlink:href="#LucidaGrande-46"/>
     <use xlink:href="#LucidaGrande-65" transform="translate(53.613281 0)"/>
     <use xlink:href="#LucidaGrande-61" transform="translate(109.326172 0)"/>
     <use xlink:href="#LucidaGrande-74" transform="translate(164.550781 0)"/>
     <use xlink:href="#LucidaGrande-75" transform="translate(201.953125 0)"/>
     <use xlink:href="#LucidaGrande-72" transform="translate(264.013672 0)"/>
     <use xlink:href="#LucidaGrande-65" transform="translate(304.931641 0)"/>
     <use xlink:href="#LucidaGrande-20" transform="translate(360.644531 0)"/>
     <use xlink:href="#LucidaGrande-65" transform="translate(392.285156 0)"/>
     <use xlink:href="#LucidaGrande-6e" transform="translate(447.998047 0)"/>
     <use xlink:href="#LucidaGrande-67" transform="translate(510.058594 0)"/>
     <use xlink:href="#LucidaGrande-69" transform="translate(572.412109 0)"/>
     <use xlink:href="#LucidaGrande-6e" transform="translate(601.318359 0)"/>
     <use xlink:href="#LucidaGrande-65" transform="translate(663.378906 0)"/>
     <use xlink:href="#LucidaGrande-65" transform="translate(719.091797 0)"/>
     <use xlink:href="#LucidaGrande-72" transform="translate(774.804688 0)"/>
     <use xlink:href="#LucidaGrande-69" transform="translate(815.722656 0)"/>
     <use xlink:href="#LucidaGrande-6e" transform="translate(844.628906 0)"/>
     <use xlink:href="#LucidaGrande-67" transform="translate(906.689453 0)"/>
     <use xlink:href="#LucidaGrande-20" transform="translate(969.042969 0)"/>
     <use xlink:href="#LucidaGrande-61" transform="translate(1000.683594 0)"/>
     <use xlink:href="#LucidaGrande-6e" transform="translate(1055.908203 0)"/>
     <use xlink:href="#LucidaGrande-64" transform="translate(1117.96875 0)"/>
     <use xlink:href="#LucidaGrande-20" transform="translate(1180.908203 0)"/>
     <use xlink:href="#LucidaGrande-69" transform="translate(1212.548828 0)"/>
     <use xlink:href="#LucidaGrande-6e" transform="translate(1241.455078 0)"/>
     <use xlink:href="#LucidaGrande-74" transform="translate(1303.515625 0)"/>
     <use xlink:href="#LucidaGrande-65" transform="translate(1340.917969 0)"/>
     <use xlink:href="#LucidaGrande-72" transform="translate(1396.630859 0)"/>
     <use xlink:href="#LucidaGrande-6e" transform="translate(1437.548828 0)"/>
     <use xlink:href="#LucidaGrande-61" transform="translate(1499.609375 0)"/>
     <use xlink:href="#LucidaGrande-6c" transform="translate(1554.833984 0)"/>
     <use xlink:href="#LucidaGrande-20" transform="translate(1583.740234 0)"/>
     <use xlink:href="#LucidaGrande-76" transform="translate(1615.380859 0)"/>
     <use xlink:href="#LucidaGrande-61" transform="translate(1667.138672 0)"/>
     <use xlink:href="#LucidaGrande-6c" transform="translate(1722.363281 0)"/>
     <use xlink:href="#LucidaGrande-69" transform="translate(1751.269531 0)"/>
     <use xlink:href="#LucidaGrande-64" transform="translate(1780.175781 0)"/>
     <use xlink:href="#LucidaGrande-61" transform="translate(1843.115234 0)"/>
     <use xlink:href="#LucidaGrande-74" transform="translate(1898.339844 0)"/>
     <use xlink:href="#LucidaGrande-69" transform="translate(1935.742188 0)"/>
     <use xlink:href="#LucidaGrande-6f" transform="translate(1964.648438 0)"/>
     <use xlink:href="#LucidaGrande-6e" transform="translate(2026.074219 0)"/>
    </g>
   </g>
   <g id="text_5">
    <!-- External validation -->
    <g style="fill: #0f4d92" transform="translate(652.266667 49.25125) scale(0.12 -0.12)">
     <defs>
      <path id="LucidaGrande-45" d="M 597 0 
L 597 4625 
L 3181 4625 
L 3181 4134 
L 1253 4134 
L 1253 2650 
L 2869 2650 
L 2869 2166 
L 1253 2166 
L 1253 491 
L 3316 491 
L 3316 0 
L 597 0 
z
" transform="scale(0.015625)"/>
      <path id="LucidaGrande-78" d="M 275 0 
L 1566 1753 
L 313 3394 
L 1044 3394 
L 2034 2088 
L 2931 3394 
L 3531 3394 
L 2356 1672 
L 3634 0 
L 2903 0 
L 1881 1344 
L 894 0 
L 275 0 
z
" transform="scale(0.015625)"/>
     </defs>
     <use xlink:href="#LucidaGrande-45"/>
     <use xlink:href="#LucidaGrande-78" transform="translate(54.199219 0)"/>
     <use xlink:href="#LucidaGrande-74" transform="translate(115.527344 0)"/>
     <use xlink:href="#LucidaGrande-65" transform="translate(152.929688 0)"/>
     <use xlink:href="#LucidaGrande-72" transform="translate(208.642578 0)"/>
     <use xlink:href="#LucidaGrande-6e" transform="translate(249.560547 0)"/>
     <use xlink:href="#LucidaGrande-61" transform="translate(311.621094 0)"/>
     <use xlink:href="#LucidaGrande-6c" transform="translate(366.845703 0)"/>
     <use xlink:href="#LucidaGrande-20" transform="translate(395.751953 0)"/>
     <use xlink:href="#LucidaGrande-76" transform="translate(427.392578 0)"/>
     <use xlink:href="#LucidaGrande-61" transform="translate(479.150391 0)"/>
     <use xlink:href="#LucidaGrande-6c" transform="translate(534.375 0)"/>
     <use xlink:href="#LucidaGrande-69" transform="translate(563.28125 0)"/>
     <use xlink:href="#LucidaGrande-64" transform="translate(592.1875 0)"/>
     <use xlink:href="#LucidaGrande-61" transform="translate(655.126953 0)"/>
     <use xlink:href="#LucidaGrande-74" transform="translate(710.351562 0)"/>
     <use xlink:href="#LucidaGrande-69" transform="translate(747.753906 0)"/>
     <use xlink:href="#LucidaGrande-6f" transform="translate(776.660156 0)"/>
     <use xlink:href="#LucidaGrande-6e" transform="translate(838.085938 0)"/>
    </g>
   </g>
   <g id="text_6">
    <!-- Held-out center-level confirmation -->
    <g style="fill: #4d4d4d" transform="translate(652.266667 66.732625) scale(0.092 -0.092)">
     <defs>
      <path id="LucidaGrande-48" d="M 597 0 
L 597 4625 
L 1253 4625 
L 1253 2675 
L 3453 2675 
L 3453 4625 
L 4109 4625 
L 4109 0 
L 3453 0 
L 3453 2184 
L 1253 2184 
L 1253 0 
L 597 0 
z
" transform="scale(0.015625)"/>
      <path id="LucidaGrande-2d" d="M 463 1619 
L 463 2081 
L 3238 2081 
L 3238 1619 
L 463 1619 
z
" transform="scale(0.015625)"/>
      <path id="LucidaGrande-66" d="M 1350 2931 
L 1350 0 
L 731 0 
L 731 2931 
L 250 2931 
L 250 3394 
L 731 3394 
L 731 3800 
Q 731 5013 1838 5013 
Q 2147 5013 2541 4909 
L 2541 4422 
Q 2125 4550 1875 4550 
Q 1572 4550 1461 4404 
Q 1350 4259 1350 3866 
L 1350 3394 
L 2197 3394 
L 2197 2931 
L 1350 2931 
z
" transform="scale(0.015625)"/>
     </defs>
     <use xlink:href="#LucidaGrande-48"/>
     <use xlink:href="#LucidaGrande-65" transform="translate(73.486328 0)"/>
     <use xlink:href="#LucidaGrande-6c" transform="translate(129.199219 0)"/>
     <use xlink:href="#LucidaGrande-64" transform="translate(158.105469 0)"/>
     <use xlink:href="#LucidaGrande-2d" transform="translate(221.044922 0)"/>
     <use xlink:href="#LucidaGrande-6f" transform="translate(278.90625 0)"/>
     <use xlink:href="#LucidaGrande-75" transform="translate(340.332031 0)"/>
     <use xlink:href="#LucidaGrande-74" transform="translate(402.392578 0)"/>
     <use xlink:href="#LucidaGrande-20" transform="translate(439.794922 0)"/>
     <use xlink:href="#LucidaGrande-63" transform="translate(471.435547 0)"/>
     <use xlink:href="#LucidaGrande-65" transform="translate(522.65625 0)"/>
     <use xlink:href="#LucidaGrande-6e" transform="translate(578.369141 0)"/>
     <use xlink:href="#LucidaGrande-74" transform="translate(640.429688 0)"/>
     <use xlink:href="#LucidaGrande-65" transform="translate(677.832031 0)"/>
     <use xlink:href="#LucidaGrande-72" transform="translate(733.544922 0)"/>
     <use xlink:href="#LucidaGrande-2d" transform="translate(774.462891 0)"/>
     <use xlink:href="#LucidaGrande-6c" transform="translate(832.324219 0)"/>
     <use xlink:href="#LucidaGrande-65" transform="translate(861.230469 0)"/>
     <use xlink:href="#LucidaGrande-76" transform="translate(916.943359 0)"/>
     <use xlink:href="#LucidaGrande-65" transform="translate(968.701172 0)"/>
     <use xlink:href="#LucidaGrande-6c" transform="translate(1024.414062 0)"/>
     <use xlink:href="#LucidaGrande-20" transform="translate(1053.320312 0)"/>
     <use xlink:href="#LucidaGrande-63" transform="translate(1084.960938 0)"/>
     <use xlink:href="#LucidaGrande-6f" transform="translate(1136.181641 0)"/>
     <use xlink:href="#LucidaGrande-6e" transform="translate(1197.607422 0)"/>
     <use xlink:href="#LucidaGrande-66" transform="translate(1259.667969 0)"/>
     <use xlink:href="#LucidaGrande-69" transform="translate(1296.435547 0)"/>
     <use xlink:href="#LucidaGrande-72" transform="translate(1325.341797 0)"/>
     <use xlink:href="#LucidaGrande-6d" transform="translate(1366.259766 0)"/>
     <use xlink:href="#LucidaGrande-61" transform="translate(1459.619141 0)"/>
     <use xlink:href="#LucidaGrande-74" transform="translate(1514.84375 0)"/>
     <use xlink:href="#LucidaGrande-69" transform="translate(1552.246094 0)"/>
     <use xlink:href="#LucidaGrande-6f" transform="translate(1581.152344 0)"/>
     <use xlink:href="#LucidaGrande-6e" transform="translate(1642.578125 0)"/>
    </g>
   </g>
   <g id="text_7">
    <!-- A -->
    <g style="fill: #0f4d92" transform="translate(50 188.788687) scale(0.114 -0.114)">
     <defs>
      <path id="LucidaGrande-41" d="M 2941 1769 
L 2153 3763 
L 1363 1769 
L 2941 1769 
z
M 3634 0 
L 3131 1281 
L 1172 1281 
L 663 0 
L 53 0 
L 1888 4625 
L 2538 4625 
L 4344 0 
L 3634 0 
z
" transform="scale(0.015625)"/>
     </defs>
     <use xlink:href="#LucidaGrande-41"/>
    </g>
   </g>
   <g id="text_8">
    <!-- Cohort and splits -->
    <g style="fill: #4d4d4d" transform="translate(72.26 188.788687) scale(0.114 -0.114)">
     <use xlink:href="#LucidaGrande-43"/>
     <use xlink:href="#LucidaGrande-6f" transform="translate(69.189453 0)"/>
     <use xlink:href="#LucidaGrande-68" transform="translate(130.615234 0)"/>
     <use xlink:href="#LucidaGrande-6f" transform="translate(192.675781 0)"/>
     <use xlink:href="#LucidaGrande-72" transform="translate(254.101562 0)"/>
     <use xlink:href="#LucidaGrande-74" transform="translate(295.019531 0)"/>
     <use xlink:href="#LucidaGrande-20" transform="translate(332.421875 0)"/>
     <use xlink:href="#LucidaGrande-61" transform="translate(364.0625 0)"/>
     <use xlink:href="#LucidaGrande-6e" transform="translate(419.287109 0)"/>
     <use xlink:href="#LucidaGrande-64" transform="translate(481.347656 0)"/>
     <use xlink:href="#LucidaGrande-20" transform="translate(544.287109 0)"/>
     <use xlink:href="#LucidaGrande-73" transform="translate(575.927734 0)"/>
     <use xlink:href="#LucidaGrande-70" transform="translate(626.904297 0)"/>
     <use xlink:href="#LucidaGrande-6c" transform="translate(689.84375 0)"/>
     <use xlink:href="#LucidaGrande-69" transform="translate(718.75 0)"/>
     <use xlink:href="#LucidaGrande-74" transform="translate(747.65625 0)"/>
     <use xlink:href="#LucidaGrande-73" transform="translate(785.058594 0)"/>
    </g>
   </g>
   <g id="text_9">
    <!-- Train -->
    <g style="fill: #4d4d4d" transform="translate(50 213.000625) scale(0.092 -0.092)">
     <defs>
      <path id="LucidaGrande-54" d="M 1697 0 
L 1697 4134 
L 56 4134 
L 56 4625 
L 3994 4625 
L 3994 4134 
L 2353 4134 
L 2353 0 
L 1697 0 
z
" transform="scale(0.015625)"/>
     </defs>
     <use xlink:href="#LucidaGrande-54"/>
     <use xlink:href="#LucidaGrande-72" transform="translate(63.232422 0)"/>
     <use xlink:href="#LucidaGrande-61" transform="translate(104.150391 0)"/>
     <use xlink:href="#LucidaGrande-69" transform="translate(159.375 0)"/>
     <use xlink:href="#LucidaGrande-6e" transform="translate(188.28125 0)"/>
    </g>
   </g>
   <g id="text_10">
    <!-- n = 812 -->
    <g style="fill: #4d4d4d" transform="translate(50 229.7665) scale(0.112 -0.112)">
     <defs>
      <path id="LucidaGrande-3d" d="M 694 1041 
L 694 1503 
L 4394 1503 
L 4394 1041 
L 694 1041 
z
M 694 2197 
L 694 2659 
L 4394 2659 
L 4394 2197 
L 694 2197 
z
" transform="scale(0.015625)"/>
      <path id="LucidaGrande-38" d="M 1472 2519 
Q 794 2991 794 3563 
Q 794 4088 1178 4416 
Q 1563 4744 2181 4744 
Q 2753 4744 3108 4466 
Q 3463 4188 3463 3744 
Q 3463 3072 2600 2519 
Q 3647 2006 3647 1197 
Q 3647 616 3208 250 
Q 2769 -116 2075 -116 
Q 1394 -116 973 229 
Q 553 575 553 1138 
Q 553 1969 1472 2519 
z
M 2256 2713 
Q 2903 3138 2903 3659 
Q 2903 3938 2687 4108 
Q 2472 4278 2119 4278 
Q 1778 4278 1565 4111 
Q 1353 3944 1353 3678 
Q 1353 3419 1545 3214 
Q 1738 3009 2256 2713 
z
M 1806 2269 
Q 1434 1981 1301 1767 
Q 1169 1553 1169 1234 
Q 1169 838 1425 592 
Q 1681 347 2100 347 
Q 2503 347 2758 556 
Q 3013 766 3013 1100 
Q 3013 1369 2855 1555 
Q 2697 1741 2244 2009 
L 1806 2269 
z
" transform="scale(0.015625)"/>
      <path id="LucidaGrande-31" d="M 963 0 
L 963 463 
L 1888 463 
L 1888 4113 
L 963 3881 
L 963 4356 
L 2506 4741 
L 2506 463 
L 3431 463 
L 3431 0 
L 963 0 
z
" transform="scale(0.015625)"/>
      <path id="LucidaGrande-32" d="M 531 0 
L 531 541 
Q 800 1169 1619 1909 
L 1972 2225 
Q 2653 2841 2653 3447 
Q 2653 3834 2420 4056 
Q 2188 4278 1781 4278 
Q 1300 4278 647 3906 
L 647 4450 
Q 1263 4741 1869 4741 
Q 2519 4741 2912 4391 
Q 3306 4041 3306 3463 
Q 3306 3047 3107 2725 
Q 2909 2403 2369 1944 
L 2131 1741 
Q 1391 1113 1275 541 
L 3284 541 
L 3284 0 
L 531 0 
z
" transform="scale(0.015625)"/>
     </defs>
     <use xlink:href="#LucidaGrande-6e"/>
     <use xlink:href="#LucidaGrande-20" transform="translate(62.060547 0)"/>
     <use xlink:href="#LucidaGrande-3d" transform="translate(93.701172 0)"/>
     <use xlink:href="#LucidaGrande-20" transform="translate(173.193359 0)"/>
     <use xlink:href="#LucidaGrande-38" transform="translate(204.833984 0)"/>
     <use xlink:href="#LucidaGrande-31" transform="translate(268.066406 0)"/>
     <use xlink:href="#LucidaGrande-32" transform="translate(331.298828 0)"/>
    </g>
   </g>
   <g id="text_11">
    <!-- Derivation centers -->
    <g style="fill: #4d4d4d" transform="translate(50 246.426063) scale(0.086 -0.086)">
     <defs>
      <path id="LucidaGrande-44" d="M 597 0 
L 597 4625 
L 2134 4625 
Q 2822 4625 3245 4472 
Q 3669 4319 3978 3953 
Q 4469 3372 4469 2422 
Q 4469 1269 3859 634 
Q 3250 0 2144 0 
L 597 0 
z
M 1253 491 
L 2094 491 
Q 2994 491 3369 975 
Q 3772 1491 3772 2359 
Q 3772 3175 3375 3641 
Q 3134 3925 2800 4029 
Q 2466 4134 1794 4134 
L 1253 4134 
L 1253 491 
z
" transform="scale(0.015625)"/>
     </defs>
     <use xlink:href="#LucidaGrande-44"/>
     <use xlink:href="#LucidaGrande-65" transform="translate(74.902344 0)"/>
     <use xlink:href="#LucidaGrande-72" transform="translate(130.615234 0)"/>
     <use xlink:href="#LucidaGrande-69" transform="translate(171.533203 0)"/>
     <use xlink:href="#LucidaGrande-76" transform="translate(200.439453 0)"/>
     <use xlink:href="#LucidaGrande-61" transform="translate(252.197266 0)"/>
     <use xlink:href="#LucidaGrande-74" transform="translate(307.421875 0)"/>
     <use xlink:href="#LucidaGrande-69" transform="translate(344.824219 0)"/>
     <use xlink:href="#LucidaGrande-6f" transform="translate(373.730469 0)"/>
     <use xlink:href="#LucidaGrande-6e" transform="translate(435.15625 0)"/>
     <use xlink:href="#LucidaGrande-20" transform="translate(497.216797 0)"/>
     <use xlink:href="#LucidaGrande-63" transform="translate(528.857422 0)"/>
     <use xlink:href="#LucidaGrande-65" transform="translate(580.078125 0)"/>
     <use xlink:href="#LucidaGrande-6e" transform="translate(635.791016 0)"/>
     <use xlink:href="#LucidaGrande-74" transform="translate(697.851562 0)"/>
     <use xlink:href="#LucidaGrande-65" transform="translate(735.253906 0)"/>
     <use xlink:href="#LucidaGrande-72" transform="translate(790.966797 0)"/>
     <use xlink:href="#LucidaGrande-73" transform="translate(831.884766 0)"/>
    </g>
   </g>
   <g id="text_12">
    <!-- B -->
    <g style="fill: #33b5a5" transform="translate(352.133333 188.788687) scale(0.114 -0.114)">
     <defs>
      <path id="LucidaGrande-42" d="M 597 0 
L 597 4625 
L 1797 4625 
Q 2491 4625 2861 4362 
Q 3231 4100 3231 3606 
Q 3231 2766 2281 2409 
Q 3416 2063 3416 1156 
Q 3416 594 3041 297 
Q 2666 0 1959 0 
L 597 0 
z
M 1247 491 
L 1381 491 
Q 2103 491 2316 581 
Q 2722 753 2722 1219 
Q 2722 1631 2353 1904 
Q 1984 2178 1431 2178 
L 1247 2178 
L 1247 491 
z
M 1247 2594 
L 1456 2594 
Q 1981 2594 2270 2819 
Q 2559 3044 2559 3453 
Q 2559 4134 1503 4134 
L 1247 4134 
L 1247 2594 
z
" transform="scale(0.015625)"/>
     </defs>
     <use xlink:href="#LucidaGrande-42"/>
    </g>
   </g>
   <g id="text_13">
    <!-- Endpoint and design -->
    <g style="fill: #4d4d4d" transform="translate(374.393333 188.788687) scale(0.114 -0.114)">
     <use xlink:href="#LucidaGrande-45"/>
     <use xlink:href="#LucidaGrande-6e" transform="translate(54.199219 0)"/>
     <use xlink:href="#LucidaGrande-64" transform="translate(116.259766 0)"/>
     <use xlink:href="#LucidaGrande-70" transform="translate(179.199219 0)"/>
     <use xlink:href="#LucidaGrande-6f" transform="translate(242.138672 0)"/>
     <use xlink:href="#LucidaGrande-69" transform="translate(303.564453 0)"/>
     <use xlink:href="#LucidaGrande-6e" transform="translate(332.470703 0)"/>
     <use xlink:href="#LucidaGrande-74" transform="translate(394.53125 0)"/>
     <use xlink:href="#LucidaGrande-20" transform="translate(431.933594 0)"/>
     <use xlink:href="#LucidaGrande-61" transform="translate(463.574219 0)"/>
     <use xlink:href="#LucidaGrande-6e" transform="translate(518.798828 0)"/>
     <use xlink:href="#LucidaGrande-64" transform="translate(580.859375 0)"/>
     <use xlink:href="#LucidaGrande-20" transform="translate(643.798828 0)"/>
     <use xlink:href="#LucidaGrande-64" transform="translate(675.439453 0)"/>
     <use xlink:href="#LucidaGrande-65" transform="translate(738.378906 0)"/>
     <use xlink:href="#LucidaGrande-73" transform="translate(794.091797 0)"/>
     <use xlink:href="#LucidaGrande-69" transform="translate(845.068359 0)"/>
     <use xlink:href="#LucidaGrande-67" transform="translate(873.974609 0)"/>
     <use xlink:href="#LucidaGrande-6e" transform="translate(936.328125 0)"/>
    </g>
   </g>
   <g id="text_14">
    <!-- Endpoint -->
    <g style="fill: #4d4d4d" transform="translate(352.133333 213.000625) scale(0.092 -0.092)">
     <use xlink:href="#LucidaGrande-45"/>
     <use xlink:href="#LucidaGrande-6e" transform="translate(54.199219 0)"/>
     <use xlink:href="#LucidaGrande-64" transform="translate(116.259766 0)"/>
     <use xlink:href="#LucidaGrande-70" transform="translate(179.199219 0)"/>
     <use xlink:href="#LucidaGrande-6f" transform="translate(242.138672 0)"/>
     <use xlink:href="#LucidaGrande-69" transform="translate(303.564453 0)"/>
     <use xlink:href="#LucidaGrande-6e" transform="translate(332.470703 0)"/>
     <use xlink:href="#LucidaGrande-74" transform="translate(394.53125 0)"/>
    </g>
   </g>
   <g id="text_15">
    <!-- Two-year relapse -->
    <g style="fill: #4d4d4d" transform="translate(352.133333 229.7665) scale(0.112 -0.112)">
     <defs>
      <path id="LucidaGrande-77" d="M 1009 0 
L 38 3394 
L 641 3394 
L 1384 766 
L 2188 3394 
L 2803 3394 
L 3506 766 
L 4359 3394 
L 4888 3394 
L 3781 0 
L 3163 0 
L 2444 2628 
L 1631 0 
L 1009 0 
z
" transform="scale(0.015625)"/>
     </defs>
     <use xlink:href="#LucidaGrande-54"/>
     <use xlink:href="#LucidaGrande-77" transform="translate(63.232422 0)"/>
     <use xlink:href="#LucidaGrande-6f" transform="translate(140.283203 0)"/>
     <use xlink:href="#LucidaGrande-2d" transform="translate(201.708984 0)"/>
     <use xlink:href="#LucidaGrande-79" transform="translate(259.570312 0)"/>
     <use xlink:href="#LucidaGrande-65" transform="translate(311.816406 0)"/>
     <use xlink:href="#LucidaGrande-61" transform="translate(367.529297 0)"/>
     <use xlink:href="#LucidaGrande-72" transform="translate(422.753906 0)"/>
     <use xlink:href="#LucidaGrande-20" transform="translate(463.671875 0)"/>
     <use xlink:href="#LucidaGrande-72" transform="translate(495.3125 0)"/>
     <use xlink:href="#LucidaGrande-65" transform="translate(536.230469 0)"/>
     <use xlink:href="#LucidaGrande-6c" transform="translate(591.943359 0)"/>
     <use xlink:href="#LucidaGrande-61" transform="translate(620.849609 0)"/>
     <use xlink:href="#LucidaGrande-70" transform="translate(676.074219 0)"/>
     <use xlink:href="#LucidaGrande-73" transform="translate(739.013672 0)"/>
     <use xlink:href="#LucidaGrande-65" transform="translate(789.990234 0)"/>
    </g>
   </g>
   <g id="text_16">
    <!-- Audited manuscript endpoint -->
    <g style="fill: #4d4d4d" transform="translate(352.133333 246.426063) scale(0.086 -0.086)">
     <use xlink:href="#LucidaGrande-41"/>
     <use xlink:href="#LucidaGrande-75" transform="translate(68.994141 0)"/>
     <use xlink:href="#LucidaGrande-64" transform="translate(131.054688 0)"/>
     <use xlink:href="#LucidaGrande-69" transform="translate(193.994141 0)"/>
     <use xlink:href="#LucidaGrande-74" transform="translate(222.900391 0)"/>
     <use xlink:href="#LucidaGrande-65" transform="translate(260.302734 0)"/>
     <use xlink:href="#LucidaGrande-64" transform="translate(316.015625 0)"/>
     <use xlink:href="#LucidaGrande-20" transform="translate(378.955078 0)"/>
     <use xlink:href="#LucidaGrande-6d" transform="translate(410.595703 0)"/>
     <use xlink:href="#LucidaGrande-61" transform="translate(503.955078 0)"/>
     <use xlink:href="#LucidaGrande-6e" transform="translate(559.179688 0)"/>
     <use xlink:href="#LucidaGrande-75" transform="translate(621.240234 0)"/>
     <use xlink:href="#LucidaGrande-73" transform="translate(683.300781 0)"/>
     <use xlink:href="#LucidaGrande-63" transform="translate(734.277344 0)"/>
     <use xlink:href="#LucidaGrande-72" transform="translate(785.498047 0)"/>
     <use xlink:href="#LucidaGrande-69" transform="translate(826.416016 0)"/>
     <use xlink:href="#LucidaGrande-70" transform="translate(855.322266 0)"/>
     <use xlink:href="#LucidaGrande-74" transform="translate(918.261719 0)"/>
     <use xlink:href="#LucidaGrande-20" transform="translate(955.664062 0)"/>
     <use xlink:href="#LucidaGrande-65" transform="translate(987.304688 0)"/>
     <use xlink:href="#LucidaGrande-6e" transform="translate(1043.017578 0)"/>
     <use xlink:href="#LucidaGrande-64" transform="translate(1105.078125 0)"/>
     <use xlink:href="#LucidaGrande-70" transform="translate(1168.017578 0)"/>
     <use xlink:href="#LucidaGrande-6f" transform="translate(1230.957031 0)"/>
     <use xlink:href="#LucidaGrande-69" transform="translate(1292.382812 0)"/>
     <use xlink:href="#LucidaGrande-6e" transform="translate(1321.289062 0)"/>
     <use xlink:href="#LucidaGrande-74" transform="translate(1383.349609 0)"/>
    </g>
   </g>
   <g id="text_17">
    <!-- C -->
    <g style="fill: #8b3a3a" transform="translate(654.266667 188.788687) scale(0.114 -0.114)">
     <use xlink:href="#LucidaGrande-43"/>
    </g>
   </g>
   <g id="text_18">
    <!-- Evidence and boundary -->
    <g style="fill: #4d4d4d" transform="translate(676.526667 188.788687) scale(0.114 -0.114)">
     <use xlink:href="#LucidaGrande-45"/>
     <use xlink:href="#LucidaGrande-76" transform="translate(54.199219 0)"/>
     <use xlink:href="#LucidaGrande-69" transform="translate(105.957031 0)"/>
     <use xlink:href="#LucidaGrande-64" transform="translate(134.863281 0)"/>
     <use xlink:href="#LucidaGrande-65" transform="translate(197.802734 0)"/>
     <use xlink:href="#LucidaGrande-6e" transform="translate(253.515625 0)"/>
     <use xlink:href="#LucidaGrande-63" transform="translate(315.576172 0)"/>
     <use xlink:href="#LucidaGrande-65" transform="translate(366.796875 0)"/>
     <use xlink:href="#LucidaGrande-20" transform="translate(422.509766 0)"/>
     <use xlink:href="#LucidaGrande-61" transform="translate(454.150391 0)"/>
     <use xlink:href="#LucidaGrande-6e" transform="translate(509.375 0)"/>
     <use xlink:href="#LucidaGrande-64" transform="translate(571.435547 0)"/>
     <use xlink:href="#LucidaGrande-20" transform="translate(634.375 0)"/>
     <use xlink:href="#LucidaGrande-62" transform="translate(666.015625 0)"/>
     <use xlink:href="#LucidaGrande-6f" transform="translate(728.955078 0)"/>
     <use xlink:href="#LucidaGrande-75" transform="translate(790.380859 0)"/>
     <use xlink:href="#LucidaGrande-6e" transform="translate(852.441406 0)"/>
     <use xlink:href="#LucidaGrande-64" transform="translate(914.501953 0)"/>
     <use xlink:href="#LucidaGrande-61" transform="translate(977.441406 0)"/>
     <use xlink:href="#LucidaGrande-72" transform="translate(1032.666016 0)"/>
     <use xlink:href="#LucidaGrande-79" transform="translate(1073.583984 0)"/>
    </g>
   </g>
   <g id="text_19">
    <!-- Primary AUC -->
    <g style="fill: #4d4d4d" transform="translate(654.266667 213.000625) scale(0.092 -0.092)">
     <defs>
      <path id="LucidaGrande-55" d="M 559 4625 
L 1216 4625 
L 1216 1706 
Q 1216 1009 1473 692 
Q 1731 375 2294 375 
Q 2844 375 3073 673 
Q 3303 972 3303 1684 
L 3303 4625 
L 3878 4625 
L 3878 1694 
Q 3878 747 3489 315 
Q 3100 -116 2250 -116 
Q 1384 -116 971 331 
Q 559 778 559 1713 
L 559 4625 
z
" transform="scale(0.015625)"/>
     </defs>
     <use xlink:href="#LucidaGrande-50"/>
     <use xlink:href="#LucidaGrande-72" transform="translate(55.273438 0)"/>
     <use xlink:href="#LucidaGrande-69" transform="translate(96.191406 0)"/>
     <use xlink:href="#LucidaGrande-6d" transform="translate(125.097656 0)"/>
     <use xlink:href="#LucidaGrande-61" transform="translate(218.457031 0)"/>
     <use xlink:href="#LucidaGrande-72" transform="translate(273.681641 0)"/>
     <use xlink:href="#LucidaGrande-79" transform="translate(314.599609 0)"/>
     <use xlink:href="#LucidaGrande-20" transform="translate(366.845703 0)"/>
     <use xlink:href="#LucidaGrande-41" transform="translate(398.486328 0)"/>
     <use xlink:href="#LucidaGrande-55" transform="translate(467.480469 0)"/>
     <use xlink:href="#LucidaGrande-43" transform="translate(536.767578 0)"/>
    </g>
   </g>
   <g id="text_20">
    <!-- 0.83 -->
    <g style="fill: #4d4d4d" transform="translate(654.266667 229.7665) scale(0.112 -0.112)">
     <defs>
      <path id="LucidaGrande-30" d="M 2006 -116 
Q 1291 -116 848 557 
Q 406 1231 406 2316 
Q 406 3409 851 4075 
Q 1297 4741 2025 4741 
Q 2753 4741 3198 4075 
Q 3644 3409 3644 2325 
Q 3644 1213 3198 548 
Q 2753 -116 2006 -116 
z
M 2013 347 
Q 2991 347 2991 2334 
Q 2991 4278 2025 4278 
Q 1063 4278 1063 2316 
Q 1063 347 2013 347 
z
" transform="scale(0.015625)"/>
      <path id="LucidaGrande-2e" d="M 625 0 
L 625 772 
L 1397 772 
L 1397 0 
L 625 0 
z
" transform="scale(0.015625)"/>
      <path id="LucidaGrande-33" d="M 650 34 
L 650 609 
Q 1313 347 1694 347 
Q 2134 347 2411 605 
Q 2688 863 2688 1272 
Q 2688 2247 1322 2247 
L 1078 2247 
L 1078 2663 
L 1294 2666 
Q 2575 2666 2575 3569 
Q 2575 4278 1731 4278 
Q 1269 4278 713 4019 
L 713 4556 
Q 1259 4741 1775 4741 
Q 3194 4741 3194 3669 
Q 3194 2853 2228 2506 
Q 3347 2247 3347 1281 
Q 3347 628 2915 256 
Q 2484 -116 1731 -116 
Q 1303 -116 650 34 
z
" transform="scale(0.015625)"/>
     </defs>
     <use xlink:href="#LucidaGrande-30"/>
     <use xlink:href="#LucidaGrande-2e" transform="translate(63.232422 0)"/>
     <use xlink:href="#LucidaGrande-38" transform="translate(94.873047 0)"/>
     <use xlink:href="#LucidaGrande-33" transform="translate(158.105469 0)"/>
    </g>
   </g>
   <g id="text_21">
    <!-- External validation cohort -->
    <g style="fill: #4d4d4d" transform="translate(654.266667 246.426063) scale(0.086 -0.086)">
     <use xlink:href="#LucidaGrande-45"/>
     <use xlink:href="#LucidaGrande-78" transform="translate(54.199219 0)"/>
     <use xlink:href="#LucidaGrande-74" transform="translate(115.527344 0)"/>
     <use xlink:href="#LucidaGrande-65" transform="translate(152.929688 0)"/>
     <use xlink:href="#LucidaGrande-72" transform="translate(208.642578 0)"/>
     <use xlink:href="#LucidaGrande-6e" transform="translate(249.560547 0)"/>
     <use xlink:href="#LucidaGrande-61" transform="translate(311.621094 0)"/>
     <use xlink:href="#LucidaGrande-6c" transform="translate(366.845703 0)"/>
     <use xlink:href="#LucidaGrande-20" transform="translate(395.751953 0)"/>
     <use xlink:href="#LucidaGrande-76" transform="translate(427.392578 0)"/>
     <use xlink:href="#LucidaGrande-61" transform="translate(479.150391 0)"/>
     <use xlink:href="#LucidaGrande-6c" transform="translate(534.375 0)"/>
     <use xlink:href="#LucidaGrande-69" transform="translate(563.28125 0)"/>
     <use xlink:href="#LucidaGrande-64" transform="translate(592.1875 0)"/>
     <use xlink:href="#LucidaGrande-61" transform="translate(655.126953 0)"/>
     <use xlink:href="#LucidaGrande-74" transform="translate(710.351562 0)"/>
     <use xlink:href="#LucidaGrande-69" transform="translate(747.753906 0)"/>
     <use xlink:href="#LucidaGrande-6f" transform="translate(776.660156 0)"/>
     <use xlink:href="#LucidaGrande-6e" transform="translate(838.085938 0)"/>
     <use xlink:href="#LucidaGrande-20" transform="translate(900.146484 0)"/>
     <use xlink:href="#LucidaGrande-63" transform="translate(931.787109 0)"/>
     <use xlink:href="#LucidaGrande-6f" transform="translate(983.007812 0)"/>
     <use xlink:href="#LucidaGrande-68" transform="translate(1044.433594 0)"/>
     <use xlink:href="#LucidaGrande-6f" transform="translate(1106.494141 0)"/>
     <use xlink:href="#LucidaGrande-72" transform="translate(1167.919922 0)"/>
     <use xlink:href="#LucidaGrande-74" transform="translate(1208.837891 0)"/>
    </g>
   </g>
  </g>
 </g>
 <defs>
  <clipPath id="pfe23eb1fc5">
   <rect x="0" y="0" width="950.4" height="590.4"/>
  </clipPath>
 </defs>
</svg>
