<?xml version="1.0" encoding="utf-8" standalone="no"?>
<!DOCTYPE svg PUBLIC "-//W3C//DTD SVG 1.1//EN"
  "http://www.w3.org/Graphics/SVG/1.1/DTD/svg11.dtd">
<svg xmlns:xlink="http://www.w3.org/1999/xlink" width="417.6pt" height="345.6pt" viewBox="0 0 417.6 345.6" xmlns="http://www.w3.org/2000/svg" version="1.1">
 <metadata>
  <rdf:RDF xmlns:dc="http://purl.org/dc/elements/1.1/" xmlns:cc="http://creativecommons.org/ns#" xmlns:rdf="http://www.w3.org/1999/02/22-rdf-syntax-ns#">
   <cc:Work>
    <dc:type rdf:resource="http://purl.org/dc/dcmitype/StillImage"/>
    <dc:date>2026-06-18T23:24:24.617817</dc:date>
    <dc:format>image/svg+xml</dc:format>
    <dc:creator>
     <cc:Agent>
      <dc:title>Matplotlib v3.10.8, https://matplotlib.org/</dc:title>
     </cc:Agent>
    </dc:creator>
   </cc:Work>
  </rdf:RDF>
 </metadata>
 <defs>
  <style type="text/css">*{stroke-linejoin: round; stroke-linecap: butt}</style>
 </defs>
 <g id="figure_1">
  <g id="patch_1">
   <path d="M 0 345.6 
L 417.6 345.6 
L 417.6 0 
L 0 0 
z
" style="fill: #ffffff"/>
  </g>
  <g id="axes_1">
   <g id="patch_2">
    <path d="M 91.872 304.128 
L 400.896 304.128 
L 400.896 41.472 
L 91.872 41.472 
z
" style="fill: #ffffff"/>
   </g>
   <g id="line2d_1">
    <path d="M 91.872 304.128 
L 91.872 41.472 
" clip-path="url(#p620c85383a)" style="fill: none; stroke-dasharray: 2.96,1.28; stroke-dashoffset: 0; stroke: #767676; stroke-width: 0.8"/>
   </g>
   <g id="matplotlib.axis_1">
    <g id="xtick_1">
     <g id="line2d_2">
      <defs>
       <path id="m058632e0db" d="M 0 0 
L 0 3.5 
" style="stroke: #272727; stroke-width: 0.6"/>
      </defs>
      <g>
       <use xlink:href="#m058632e0db" x="91.872" y="304.128" style="fill: #272727; stroke: #272727; stroke-width: 0.6"/>
      </g>
     </g>
     <g id="text_1">
      <!-- 0.00 -->
      <g style="fill: #272727" transform="translate(83.01825 317.2955) scale(0.08 -0.08)">
       <defs>
        <path id="LucidaGrande-30" d="M 2006 -116 
Q 1291 -116 848 557 
Q 406 1231 406 2316 
Q 406 3409 851 4075 
Q 1297 4741 2025 4741 
Q 2753 4741 3198 4075 
Q 3644 3409 3644 2325 
Q 3644 1213 3198 548 
Q 2753 -116 2006 -116 
z
M 2013 347 
Q 2991 347 2991 2334 
Q 2991 4278 2025 4278 
Q 1063 4278 1063 2316 
Q 1063 347 2013 347 
z
" transform="scale(0.015625)"/>
        <path id="LucidaGrande-2e" d="M 625 0 
L 625 772 
L 1397 772 
L 1397 0 
L 625 0 
z
" transform="scale(0.015625)"/>
       </defs>
       <use xlink:href="#LucidaGrande-30"/>
       <use xlink:href="#LucidaGrande-2e" transform="translate(63.232422 0)"/>
       <use xlink:href="#LucidaGrande-30" transform="translate(94.873047 0)"/>
       <use xlink:href="#LucidaGrande-30" transform="translate(158.105469 0)"/>
      </g>
     </g>
    </g>
    <g id="xtick_2">
     <g id="line2d_3">
      <g>
       <use xlink:href="#m058632e0db" x="126.908735" y="304.128" style="fill: #272727; stroke: #272727; stroke-width: 0.6"/>
      </g>
     </g>
     <g id="text_2">
      <!-- 0.05 -->
      <g style="fill: #272727" transform="translate(118.054985 317.2955) scale(0.08 -0.08)">
       <defs>
        <path id="LucidaGrande-35" d="M 778 -19 
L 778 531 
Q 1238 347 1653 347 
Q 2109 347 2370 615 
Q 2631 884 2631 1356 
Q 2631 2397 1197 2397 
Q 1034 2397 856 2375 
L 856 4625 
L 3197 4625 
L 3197 4088 
L 1397 4088 
L 1397 2869 
Q 2288 2869 2788 2459 
Q 3288 2050 3288 1325 
Q 3288 650 2833 267 
Q 2378 -116 1572 -116 
Q 1222 -116 778 -19 
z
" transform="scale(0.015625)"/>
       </defs>
       <use xlink:href="#LucidaGrande-30"/>
       <use xlink:href="#LucidaGrande-2e" transform="translate(63.232422 0)"/>
       <use xlink:href="#LucidaGrande-30" transform="translate(94.873047 0)"/>
       <use xlink:href="#LucidaGrande-35" transform="translate(158.105469 0)"/>
      </g>
     </g>
    </g>
    <g id="xtick_3">
     <g id="line2d_4">
      <g>
       <use xlink:href="#m058632e0db" x="161.945469" y="304.128" style="fill: #272727; stroke: #272727; stroke-width: 0.6"/>
      </g>
     </g>
     <g id="text_3">
      <!-- 0.10 -->
      <g style="fill: #272727" transform="translate(153.091719 317.2955) scale(0.08 -0.08)">
       <defs>
        <path id="LucidaGrande-31" d="M 963 0 
L 963 463 
L 1888 463 
L 1888 4113 
L 963 3881 
L 963 4356 
L 2506 4741 
L 2506 463 
L 3431 463 
L 3431 0 
L 963 0 
z
" transform="scale(0.015625)"/>
       </defs>
       <use xlink:href="#LucidaGrande-30"/>
       <use xlink:href="#LucidaGrande-2e" transform="translate(63.232422 0)"/>
       <use xlink:href="#LucidaGrande-31" transform="translate(94.873047 0)"/>
       <use xlink:href="#LucidaGrande-30" transform="translate(158.105469 0)"/>
      </g>
     </g>
    </g>
    <g id="xtick_4">
     <g id="line2d_5">
      <g>
       <use xlink:href="#m058632e0db" x="196.982204" y="304.128" style="fill: #272727; stroke: #272727; stroke-width: 0.6"/>
      </g>
     </g>
     <g id="text_4">
      <!-- 0.15 -->
      <g style="fill: #272727" transform="translate(188.128454 317.2955) scale(0.08 -0.08)">
       <use xlink:href="#LucidaGrande-30"/>
       <use xlink:href="#LucidaGrande-2e" transform="translate(63.232422 0)"/>
       <use xlink:href="#LucidaGrande-31" transform="translate(94.873047 0)"/>
       <use xlink:href="#LucidaGrande-35" transform="translate(158.105469 0)"/>
      </g>
     </g>
    </g>
    <g id="xtick_5">
     <g id="line2d_6">
      <g>
       <use xlink:href="#m058632e0db" x="232.018939" y="304.128" style="fill: #272727; stroke: #272727; stroke-width: 0.6"/>
      </g>
     </g>
     <g id="text_5">
      <!-- 0.20 -->
      <g style="fill: #272727" transform="translate(223.165189 317.2955) scale(0.08 -0.08)">
       <defs>
        <path id="LucidaGrande-32" d="M 531 0 
L 531 541 
Q 800 1169 1619 1909 
L 1972 2225 
Q 2653 2841 2653 3447 
Q 2653 3834 2420 4056 
Q 2188 4278 1781 4278 
Q 1300 4278 647 3906 
L 647 4450 
Q 1263 4741 1869 4741 
Q 2519 4741 2912 4391 
Q 3306 4041 3306 3463 
Q 3306 3047 3107 2725 
Q 2909 2403 2369 1944 
L 2131 1741 
Q 1391 1113 1275 541 
L 3284 541 
L 3284 0 
L 531 0 
z
" transform="scale(0.015625)"/>
       </defs>
       <use xlink:href="#LucidaGrande-30"/>
       <use xlink:href="#LucidaGrande-2e" transform="translate(63.232422 0)"/>
       <use xlink:href="#LucidaGrande-32" transform="translate(94.873047 0)"/>
       <use xlink:href="#LucidaGrande-30" transform="translate(158.105469 0)"/>
      </g>
     </g>
    </g>
    <g id="xtick_6">
     <g id="line2d_7">
      <g>
       <use xlink:href="#m058632e0db" x="267.055673" y="304.128" style="fill: #272727; stroke: #272727; stroke-width: 0.6"/>
      </g>
     </g>
     <g id="text_6">
      <!-- 0.25 -->
      <g style="fill: #272727" transform="translate(258.201923 317.2955) scale(0.08 -0.08)">
       <use xlink:href="#LucidaGrande-30"/>
       <use xlink:href="#LucidaGrande-2e" transform="translate(63.232422 0)"/>
       <use xlink:href="#LucidaGrande-32" transform="translate(94.873047 0)"/>
       <use xlink:href="#LucidaGrande-35" transform="translate(158.105469 0)"/>
      </g>
     </g>
    </g>
    <g id="xtick_7">
     <g id="line2d_8">
      <g>
       <use xlink:href="#m058632e0db" x="302.092408" y="304.128" style="fill: #272727; stroke: #272727; stroke-width: 0.6"/>
      </g>
     </g>
     <g id="text_7">
      <!-- 0.30 -->
      <g style="fill: #272727" transform="translate(293.238658 317.2955) scale(0.08 -0.08)">
       <defs>
        <path id="LucidaGrande-33" d="M 650 34 
L 650 609 
Q 1313 347 1694 347 
Q 2134 347 2411 605 
Q 2688 863 2688 1272 
Q 2688 2247 1322 2247 
L 1078 2247 
L 1078 2663 
L 1294 2666 
Q 2575 2666 2575 3569 
Q 2575 4278 1731 4278 
Q 1269 4278 713 4019 
L 713 4556 
Q 1259 4741 1775 4741 
Q 3194 4741 3194 3669 
Q 3194 2853 2228 2506 
Q 3347 2247 3347 1281 
Q 3347 628 2915 256 
Q 2484 -116 1731 -116 
Q 1303 -116 650 34 
z
" transform="scale(0.015625)"/>
       </defs>
       <use xlink:href="#LucidaGrande-30"/>
       <use xlink:href="#LucidaGrande-2e" transform="translate(63.232422 0)"/>
       <use xlink:href="#LucidaGrande-33" transform="translate(94.873047 0)"/>
       <use xlink:href="#LucidaGrande-30" transform="translate(158.105469 0)"/>
      </g>
     </g>
    </g>
    <g id="xtick_8">
     <g id="line2d_9">
      <g>
       <use xlink:href="#m058632e0db" x="337.129143" y="304.128" style="fill: #272727; stroke: #272727; stroke-width: 0.6"/>
      </g>
     </g>
     <g id="text_8">
      <!-- 0.35 -->
      <g style="fill: #272727" transform="translate(328.275393 317.2955) scale(0.08 -0.08)">
       <use xlink:href="#LucidaGrande-30"/>
       <use xlink:href="#LucidaGrande-2e" transform="translate(63.232422 0)"/>
       <use xlink:href="#LucidaGrande-33" transform="translate(94.873047 0)"/>
       <use xlink:href="#LucidaGrande-35" transform="translate(158.105469 0)"/>
      </g>
     </g>
    </g>
    <g id="xtick_9">
     <g id="line2d_10">
      <g>
       <use xlink:href="#m058632e0db" x="372.165878" y="304.128" style="fill: #272727; stroke: #272727; stroke-width: 0.6"/>
      </g>
     </g>
     <g id="text_9">
      <!-- 0.40 -->
      <g style="fill: #272727" transform="translate(363.312128 317.2955) scale(0.08 -0.08)">
       <defs>
        <path id="LucidaGrande-34" d="M 2409 0 
L 2409 1309 
L 328 1309 
L 328 1775 
L 2409 4625 
L 2988 4625 
L 2988 1813 
L 3606 1813 
L 3606 1309 
L 2988 1309 
L 2988 0 
L 2409 0 
z
M 931 1813 
L 2450 1813 
L 2450 3869 
L 931 1813 
z
" transform="scale(0.015625)"/>
       </defs>
       <use xlink:href="#LucidaGrande-30"/>
       <use xlink:href="#LucidaGrande-2e" transform="translate(63.232422 0)"/>
       <use xlink:href="#LucidaGrande-34" transform="translate(94.873047 0)"/>
       <use xlink:href="#LucidaGrande-30" transform="translate(158.105469 0)"/>
      </g>
     </g>
    </g>
    <g id="text_10">
     <!-- Share -->
     <g style="fill: #272727" transform="translate(234.333844 329.776437) scale(0.09 -0.09)">
      <defs>
       <path id="LucidaGrande-53" d="M 1503 -116 
Q 1038 -116 313 88 
L 313 738 
Q 1094 375 1597 375 
Q 1984 375 2220 578 
Q 2456 781 2456 1113 
Q 2456 1384 2301 1575 
Q 2147 1766 1731 2000 
L 1413 2184 
Q 822 2522 580 2820 
Q 338 3119 338 3516 
Q 338 4050 725 4395 
Q 1113 4741 1713 4741 
Q 2247 4741 2841 4563 
L 2841 3963 
Q 2109 4250 1750 4250 
Q 1409 4250 1187 4069 
Q 966 3888 966 3613 
Q 966 3381 1128 3203 
Q 1291 3025 1722 2778 
L 2053 2591 
Q 2653 2250 2890 1947 
Q 3128 1644 3128 1219 
Q 3128 616 2683 250 
Q 2238 -116 1503 -116 
z
" transform="scale(0.015625)"/>
       <path id="LucidaGrande-68" d="M 616 0 
L 616 4934 
L 1231 4934 
L 1231 2756 
Q 1719 3469 2425 3469 
Q 2866 3469 3128 3189 
Q 3391 2909 3391 2438 
L 3391 0 
L 2775 0 
L 2775 2238 
Q 2775 2616 2664 2777 
Q 2553 2938 2297 2938 
Q 1731 2938 1231 2197 
L 1231 0 
L 616 0 
z
" transform="scale(0.015625)"/>
       <path id="LucidaGrande-61" d="M 2366 431 
Q 1813 -78 1300 -78 
Q 878 -78 600 186 
Q 322 450 322 853 
Q 322 1409 789 1707 
Q 1256 2006 2128 2006 
L 2275 2006 
L 2275 2416 
Q 2275 3006 1669 3006 
Q 1181 3006 616 2706 
L 616 3216 
Q 1238 3469 1781 3469 
Q 2350 3469 2620 3212 
Q 2891 2956 2891 2416 
L 2891 878 
Q 2891 350 3216 350 
Q 3256 350 3334 363 
L 3378 22 
Q 3169 -78 2916 -78 
Q 2484 -78 2366 431 
z
M 2275 766 
L 2275 1644 
L 2069 1650 
Q 1563 1650 1250 1458 
Q 938 1266 938 953 
Q 938 731 1094 578 
Q 1250 425 1475 425 
Q 1859 425 2275 766 
z
" transform="scale(0.015625)"/>
       <path id="LucidaGrande-72" d="M 616 0 
L 616 3394 
L 1231 3394 
L 1231 2756 
Q 1597 3469 2294 3469 
Q 2388 3469 2491 3453 
L 2491 2878 
Q 2331 2931 2209 2931 
Q 1625 2931 1231 2238 
L 1231 0 
L 616 0 
z
" transform="scale(0.015625)"/>
       <path id="LucidaGrande-65" d="M 3103 109 
Q 2484 -78 2044 -78 
Q 1294 -78 820 420 
Q 347 919 347 1713 
Q 347 2484 764 2978 
Q 1181 3472 1831 3472 
Q 2447 3472 2783 3034 
Q 3119 2597 3119 1791 
L 3116 1600 
L 975 1600 
Q 1109 391 2159 391 
Q 2544 391 3103 597 
L 3103 109 
z
M 1003 2063 
L 2500 2063 
Q 2500 3009 1794 3009 
Q 1084 3009 1003 2063 
z
" transform="scale(0.015625)"/>
      </defs>
      <use xlink:href="#LucidaGrande-53"/>
      <use xlink:href="#LucidaGrande-68" transform="translate(53.857422 0)"/>
      <use xlink:href="#LucidaGrande-61" transform="translate(115.917969 0)"/>
      <use xlink:href="#LucidaGrande-72" transform="translate(171.142578 0)"/>
      <use xlink:href="#LucidaGrande-65" transform="translate(212.060547 0)"/>
     </g>
    </g>
   </g>
   <g id="matplotlib.axis_2">
    <g id="ytick_1">
     <g id="line2d_11">
      <path d="M 91.872 83.703664 
L 400.896 83.703664 
" clip-path="url(#p620c85383a)" style="fill: none; stroke: #eceff2; stroke-width: 0.35; stroke-linecap: square"/>
     </g>
     <g id="line2d_12">
      <defs>
       <path id="m3a6cd3600a" d="M 0 0 
L -3.5 0 
" style="stroke: #272727; stroke-width: 0.6"/>
      </defs>
      <g>
       <use xlink:href="#m3a6cd3600a" x="91.872" y="83.703664" style="fill: #272727; stroke: #272727; stroke-width: 0.6"/>
      </g>
     </g>
     <g id="text_11">
      <!-- GLP-1RA preferred -->
      <g style="fill: #272727" transform="translate(11.3995 86.836789) scale(0.08 -0.08)">
       <defs>
        <path id="LucidaGrande-47" d="M 4072 125 
Q 3231 -116 2606 -116 
Q 1503 -116 914 512 
Q 325 1141 325 2313 
Q 325 3463 922 4102 
Q 1519 4741 2597 4741 
Q 3303 4741 4066 4531 
L 4066 3925 
Q 3109 4250 2600 4250 
Q 1850 4250 1436 3740 
Q 1022 3231 1022 2306 
Q 1022 1391 1465 883 
Q 1909 375 2709 375 
Q 3038 375 3419 491 
L 3419 1997 
L 4072 1997 
L 4072 125 
z
" transform="scale(0.015625)"/>
        <path id="LucidaGrande-4c" d="M 597 0 
L 597 4625 
L 1253 4625 
L 1253 491 
L 3334 491 
L 3334 0 
L 597 0 
z
" transform="scale(0.015625)"/>
        <path id="LucidaGrande-50" d="M 597 0 
L 597 4625 
L 1856 4625 
Q 2694 4625 3059 4342 
Q 3425 4059 3425 3413 
Q 3425 2675 2925 2256 
Q 2425 1838 1538 1838 
L 1247 1838 
L 1247 0 
L 597 0 
z
M 1247 2334 
L 1513 2334 
Q 2097 2334 2415 2603 
Q 2734 2872 2734 3363 
Q 2734 3778 2484 3956 
Q 2234 4134 1650 4134 
L 1247 4134 
L 1247 2334 
z
" transform="scale(0.015625)"/>
        <path id="LucidaGrande-2d" d="M 463 1619 
L 463 2081 
L 3238 2081 
L 3238 1619 
L 463 1619 
z
" transform="scale(0.015625)"/>
        <path id="LucidaGrande-52" d="M 597 0 
L 597 4625 
L 1997 4625 
Q 2663 4625 3017 4331 
Q 3372 4038 3372 3478 
Q 3372 2553 2438 2166 
L 3981 0 
L 3175 0 
L 1859 1956 
L 1247 1956 
L 1247 0 
L 597 0 
z
M 1247 2447 
L 1459 2447 
Q 2697 2447 2697 3419 
Q 2697 4134 1659 4134 
L 1247 4134 
L 1247 2447 
z
" transform="scale(0.015625)"/>
        <path id="LucidaGrande-41" d="M 2941 1769 
L 2153 3763 
L 1363 1769 
L 2941 1769 
z
M 3634 0 
L 3131 1281 
L 1172 1281 
L 663 0 
L 53 0 
L 1888 4625 
L 2538 4625 
L 4344 0 
L 3634 0 
z
" transform="scale(0.015625)"/>
        <path id="LucidaGrande-20" transform="scale(0.015625)"/>
        <path id="LucidaGrande-70" d="M 616 -1234 
L 616 3394 
L 1231 3394 
L 1231 2756 
Q 1609 3469 2366 3469 
Q 2978 3469 3329 3022 
Q 3681 2575 3681 1800 
Q 3681 956 3282 439 
Q 2884 -78 2234 -78 
Q 1631 -78 1231 384 
L 1231 -1234 
L 616 -1234 
z
M 1231 809 
Q 1706 384 2138 384 
Q 3025 384 3025 1738 
Q 3025 2931 2238 2931 
Q 1722 2931 1231 2372 
L 1231 809 
z
" transform="scale(0.015625)"/>
        <path id="LucidaGrande-66" d="M 1350 2931 
L 1350 0 
L 731 0 
L 731 2931 
L 250 2931 
L 250 3394 
L 731 3394 
L 731 3800 
Q 731 5013 1838 5013 
Q 2147 5013 2541 4909 
L 2541 4422 
Q 2125 4550 1875 4550 
Q 1572 4550 1461 4404 
Q 1350 4259 1350 3866 
L 1350 3394 
L 2197 3394 
L 2197 2931 
L 1350 2931 
z
" transform="scale(0.015625)"/>
        <path id="LucidaGrande-64" d="M 2794 0 
L 2794 638 
Q 2419 -78 1663 -78 
Q 1050 -78 698 369 
Q 347 816 347 1591 
Q 347 2438 745 2953 
Q 1144 3469 1794 3469 
Q 2397 3469 2794 3006 
L 2794 4934 
L 3413 4934 
L 3413 0 
L 2794 0 
z
M 2794 2584 
Q 2316 3006 1888 3006 
Q 1003 3006 1003 1653 
Q 1003 463 1791 463 
Q 2303 463 2794 1022 
L 2794 2584 
z
" transform="scale(0.015625)"/>
       </defs>
       <use xlink:href="#LucidaGrande-47"/>
       <use xlink:href="#LucidaGrande-4c" transform="translate(72.265625 0)"/>
       <use xlink:href="#LucidaGrande-50" transform="translate(125.585938 0)"/>
       <use xlink:href="#LucidaGrande-2d" transform="translate(180.859375 0)"/>
       <use xlink:href="#LucidaGrande-31" transform="translate(238.720703 0)"/>
       <use xlink:href="#LucidaGrande-52" transform="translate(301.953125 0)"/>
       <use xlink:href="#LucidaGrande-41" transform="translate(365.185547 0)"/>
       <use xlink:href="#LucidaGrande-20" transform="translate(434.179688 0)"/>
       <use xlink:href="#LucidaGrande-70" transform="translate(465.820312 0)"/>
       <use xlink:href="#LucidaGrande-72" transform="translate(528.759766 0)"/>
       <use xlink:href="#LucidaGrande-65" transform="translate(569.677734 0)"/>
       <use xlink:href="#LucidaGrande-66" transform="translate(625.390625 0)"/>
       <use xlink:href="#LucidaGrande-65" transform="translate(662.158203 0)"/>
       <use xlink:href="#LucidaGrande-72" transform="translate(717.871094 0)"/>
       <use xlink:href="#LucidaGrande-72" transform="translate(758.789062 0)"/>
       <use xlink:href="#LucidaGrande-65" transform="translate(799.707031 0)"/>
       <use xlink:href="#LucidaGrande-64" transform="translate(855.419922 0)"/>
      </g>
     </g>
    </g>
    <g id="ytick_2">
     <g id="line2d_13">
      <path d="M 91.872 172.8 
L 400.896 172.8 
" clip-path="url(#p620c85383a)" style="fill: none; stroke: #eceff2; stroke-width: 0.35; stroke-linecap: square"/>
     </g>
     <g id="line2d_14">
      <g>
       <use xlink:href="#m3a6cd3600a" x="91.872" y="172.8" style="fill: #272727; stroke: #272727; stroke-width: 0.6"/>
      </g>
     </g>
     <g id="text_12">
      <!-- SGLT2i preferred -->
      <g style="fill: #272727" transform="translate(19.3495 175.933125) scale(0.08 -0.08)">
       <defs>
        <path id="LucidaGrande-54" d="M 1697 0 
L 1697 4134 
L 56 4134 
L 56 4625 
L 3994 4625 
L 3994 4134 
L 2353 4134 
L 2353 0 
L 1697 0 
z
" transform="scale(0.015625)"/>
        <path id="LucidaGrande-69" d="M 616 0 
L 616 3394 
L 1231 3394 
L 1231 0 
L 616 0 
z
M 616 4009 
L 616 4625 
L 1231 4625 
L 1231 4009 
L 616 4009 
z
" transform="scale(0.015625)"/>
       </defs>
       <use xlink:href="#LucidaGrande-53"/>
       <use xlink:href="#LucidaGrande-47" transform="translate(53.857422 0)"/>
       <use xlink:href="#LucidaGrande-4c" transform="translate(126.123047 0)"/>
       <use xlink:href="#LucidaGrande-54" transform="translate(179.443359 0)"/>
       <use xlink:href="#LucidaGrande-32" transform="translate(242.675781 0)"/>
       <use xlink:href="#LucidaGrande-69" transform="translate(305.908203 0)"/>
       <use xlink:href="#LucidaGrande-20" transform="translate(334.814453 0)"/>
       <use xlink:href="#LucidaGrande-70" transform="translate(366.455078 0)"/>
       <use xlink:href="#LucidaGrande-72" transform="translate(429.394531 0)"/>
       <use xlink:href="#LucidaGrande-65" transform="translate(470.3125 0)"/>
       <use xlink:href="#LucidaGrande-66" transform="translate(526.025391 0)"/>
       <use xlink:href="#LucidaGrande-65" transform="translate(562.792969 0)"/>
       <use xlink:href="#LucidaGrande-72" transform="translate(618.505859 0)"/>
       <use xlink:href="#LucidaGrande-72" transform="translate(659.423828 0)"/>
       <use xlink:href="#LucidaGrande-65" transform="translate(700.341797 0)"/>
       <use xlink:href="#LucidaGrande-64" transform="translate(756.054688 0)"/>
      </g>
     </g>
    </g>
    <g id="ytick_3">
     <g id="line2d_15">
      <path d="M 91.872 261.896336 
L 400.896 261.896336 
" clip-path="url(#p620c85383a)" style="fill: none; stroke: #eceff2; stroke-width: 0.35; stroke-linecap: square"/>
     </g>
     <g id="line2d_16">
      <g>
       <use xlink:href="#m3a6cd3600a" x="91.872" y="261.896336" style="fill: #272727; stroke: #272727; stroke-width: 0.6"/>
      </g>
     </g>
     <g id="text_13">
      <!-- Insulin intensification -->
      <g style="fill: #272727" transform="translate(1.40075 264.980086) scale(0.08 -0.08)">
       <defs>
        <path id="LucidaGrande-49" d="M 594 0 
L 594 4625 
L 1250 4625 
L 1250 0 
L 594 0 
z
" transform="scale(0.015625)"/>
        <path id="LucidaGrande-6e" d="M 616 0 
L 616 3394 
L 1231 3394 
L 1231 2756 
Q 1719 3469 2425 3469 
Q 2866 3469 3128 3189 
Q 3391 2909 3391 2438 
L 3391 0 
L 2775 0 
L 2775 2238 
Q 2775 2616 2664 2777 
Q 2553 2938 2297 2938 
Q 1731 2938 1231 2197 
L 1231 0 
L 616 0 
z
" transform="scale(0.015625)"/>
        <path id="LucidaGrande-73" d="M 1516 -78 
Q 1094 -78 491 119 
L 491 684 
Q 1094 384 1541 384 
Q 1806 384 1981 528 
Q 2156 672 2156 888 
Q 2156 1203 1666 1409 
L 1306 1563 
Q 509 1894 509 2516 
Q 509 2959 823 3214 
Q 1138 3469 1684 3469 
Q 1969 3469 2388 3391 
L 2516 3366 
L 2516 2853 
Q 2000 3006 1697 3006 
Q 1103 3006 1103 2575 
Q 1103 2297 1553 2106 
L 1850 1981 
Q 2353 1769 2562 1533 
Q 2772 1297 2772 944 
Q 2772 497 2419 209 
Q 2066 -78 1516 -78 
z
" transform="scale(0.015625)"/>
        <path id="LucidaGrande-75" d="M 2738 0 
L 2738 638 
Q 2247 -78 1547 -78 
Q 1103 -78 840 201 
Q 578 481 578 956 
L 578 3394 
L 1194 3394 
L 1194 1156 
Q 1194 775 1305 614 
Q 1416 453 1675 453 
Q 2238 453 2738 1194 
L 2738 3394 
L 3353 3394 
L 3353 0 
L 2738 0 
z
" transform="scale(0.015625)"/>
        <path id="LucidaGrande-6c" d="M 616 0 
L 616 4934 
L 1231 4934 
L 1231 0 
L 616 0 
z
" transform="scale(0.015625)"/>
        <path id="LucidaGrande-74" d="M 1634 -78 
Q 1166 -78 903 190 
Q 641 459 641 938 
L 641 2931 
L 216 2931 
L 216 3394 
L 641 3394 
L 641 4009 
L 1256 4069 
L 1256 3394 
L 2144 3394 
L 2144 2931 
L 1256 2931 
L 1256 1050 
Q 1256 384 1831 384 
Q 1953 384 2128 425 
L 2128 0 
Q 1844 -78 1634 -78 
z
" transform="scale(0.015625)"/>
        <path id="LucidaGrande-63" d="M 1941 -78 
Q 1253 -78 800 431 
Q 347 941 347 1716 
Q 347 2544 795 3006 
Q 1244 3469 2047 3469 
Q 2444 3469 2934 3359 
L 2934 2844 
Q 2413 2997 2084 2997 
Q 1613 2997 1327 2642 
Q 1041 2288 1041 1697 
Q 1041 1125 1334 772 
Q 1628 419 2103 419 
Q 2525 419 2972 634 
L 2972 103 
Q 2375 -78 1941 -78 
z
" transform="scale(0.015625)"/>
        <path id="LucidaGrande-6f" d="M 1944 -78 
Q 1216 -78 781 405 
Q 347 888 347 1697 
Q 347 2516 783 2992 
Q 1219 3469 1966 3469 
Q 2713 3469 3148 2992 
Q 3584 2516 3584 1703 
Q 3584 872 3146 397 
Q 2709 -78 1944 -78 
z
M 1953 384 
Q 2931 384 2931 1703 
Q 2931 3006 1966 3006 
Q 1003 3006 1003 1697 
Q 1003 384 1953 384 
z
" transform="scale(0.015625)"/>
       </defs>
       <use xlink:href="#LucidaGrande-49"/>
       <use xlink:href="#LucidaGrande-6e" transform="translate(28.808594 0)"/>
       <use xlink:href="#LucidaGrande-73" transform="translate(90.869141 0)"/>
       <use xlink:href="#LucidaGrande-75" transform="translate(141.845703 0)"/>
       <use xlink:href="#LucidaGrande-6c" transform="translate(203.90625 0)"/>
       <use xlink:href="#LucidaGrande-69" transform="translate(232.8125 0)"/>
       <use xlink:href="#LucidaGrande-6e" transform="translate(261.71875 0)"/>
       <use xlink:href="#LucidaGrande-20" transform="translate(323.779297 0)"/>
       <use xlink:href="#LucidaGrande-69" transform="translate(355.419922 0)"/>
       <use xlink:href="#LucidaGrande-6e" transform="translate(384.326172 0)"/>
       <use xlink:href="#LucidaGrande-74" transform="translate(446.386719 0)"/>
       <use xlink:href="#LucidaGrande-65" transform="translate(483.789062 0)"/>
       <use xlink:href="#LucidaGrande-6e" transform="translate(539.501953 0)"/>
       <use xlink:href="#LucidaGrande-73" transform="translate(601.5625 0)"/>
       <use xlink:href="#LucidaGrande-69" transform="translate(652.539062 0)"/>
       <use xlink:href="#LucidaGrande-66" transform="translate(681.445312 0)"/>
       <use xlink:href="#LucidaGrande-69" transform="translate(718.212891 0)"/>
       <use xlink:href="#LucidaGrande-63" transform="translate(747.119141 0)"/>
       <use xlink:href="#LucidaGrande-61" transform="translate(798.339844 0)"/>
       <use xlink:href="#LucidaGrande-74" transform="translate(853.564453 0)"/>
       <use xlink:href="#LucidaGrande-69" transform="translate(890.966797 0)"/>
       <use xlink:href="#LucidaGrande-6f" transform="translate(919.873047 0)"/>
       <use xlink:href="#LucidaGrande-6e" transform="translate(981.298828 0)"/>
      </g>
     </g>
    </g>
    <g id="text_14">
     <!-- Class -->
     <g style="fill: #272727" transform="translate(-4.334562 184.287656) rotate(-90) scale(0.09 -0.09)">
      <defs>
       <path id="LucidaGrande-43" d="M 2578 -116 
Q 1500 -116 912 517 
Q 325 1150 325 2309 
Q 325 3466 923 4103 
Q 1522 4741 2609 4741 
Q 3231 4741 4066 4538 
L 4066 3922 
Q 3116 4250 2600 4250 
Q 1847 4250 1434 3740 
Q 1022 3231 1022 2303 
Q 1022 1419 1462 908 
Q 1903 397 2666 397 
Q 3322 397 4072 800 
L 4072 238 
Q 3388 -116 2578 -116 
z
" transform="scale(0.015625)"/>
      </defs>
      <use xlink:href="#LucidaGrande-43"/>
      <use xlink:href="#LucidaGrande-6c" transform="translate(69.189453 0)"/>
      <use xlink:href="#LucidaGrande-61" transform="translate(98.095703 0)"/>
      <use xlink:href="#LucidaGrande-73" transform="translate(153.320312 0)"/>
      <use xlink:href="#LucidaGrande-73" transform="translate(204.296875 0)"/>
     </g>
    </g>
   </g>
   <g id="patch_3">
    <path d="M 91.872 83.703664 
L 337.129143 83.703664 
L 337.129143 113.996418 
L 91.872 113.996418 
z
" clip-path="url(#p620c85383a)" style="fill: #33b5a5; stroke: #ffffff; stroke-width: 0.6; stroke-linejoin: miter"/>
   </g>
   <g id="patch_4">
    <path d="M 91.872 172.8 
L 295.085061 172.8 
L 295.085061 203.092754 
L 91.872 203.092754 
z
" clip-path="url(#p620c85383a)" style="fill: #33b5a5; stroke: #ffffff; stroke-width: 0.6; stroke-linejoin: miter"/>
   </g>
   <g id="patch_5">
    <path d="M 91.872 261.896336 
L 203.989551 261.896336 
L 203.989551 292.189091 
L 91.872 292.189091 
z
" clip-path="url(#p620c85383a)" style="fill: #33b5a5; stroke: #ffffff; stroke-width: 0.6; stroke-linejoin: miter"/>
   </g>
   <g id="patch_6">
    <path d="M 91.872 304.128 
L 91.872 41.472 
" style="fill: none; stroke: #272727; stroke-width: 0.6; stroke-linejoin: miter; stroke-linecap: square"/>
   </g>
   <g id="patch_7">
    <path d="M 91.872 304.128 
L 400.896 304.128 
" style="fill: none; stroke: #272727; stroke-width: 0.6; stroke-linejoin: miter; stroke-linecap: square"/>
   </g>
   <g id="patch_8">
    <path d="M 91.872 53.410909 
L 386.180571 53.410909 
L 386.180571 83.703664 
L 91.872 83.703664 
z
" clip-path="url(#p620c85383a)" style="fill: #0f4d92; stroke: #ffffff; stroke-width: 0.6; stroke-linejoin: miter"/>
   </g>
   <g id="patch_9">
    <path d="M 91.872 142.507246 
L 344.13649 142.507246 
L 344.13649 172.8 
L 91.872 172.8 
z
" clip-path="url(#p620c85383a)" style="fill: #0f4d92; stroke: #ffffff; stroke-width: 0.6; stroke-linejoin: miter"/>
   </g>
   <g id="patch_10">
    <path d="M 91.872 231.603582 
L 246.033633 231.603582 
L 246.033633 261.896336 
L 91.872 261.896336 
z
" clip-path="url(#p620c85383a)" style="fill: #0f4d92; stroke: #ffffff; stroke-width: 0.6; stroke-linejoin: miter"/>
   </g>
   <g id="text_15">
    <!-- A -->
    <g style="fill: #272727" transform="translate(54.78912 26.565325) scale(0.092 -0.092)">
     <use xlink:href="#LucidaGrande-41"/>
    </g>
   </g>
   <g id="text_16">
    <!-- Preferred class share -->
    <g style="fill: #272727" transform="translate(91.872 35.472) scale(0.09 -0.09)">
     <use xlink:href="#LucidaGrande-50"/>
     <use xlink:href="#LucidaGrande-72" transform="translate(55.273438 0)"/>
     <use xlink:href="#LucidaGrande-65" transform="translate(96.191406 0)"/>
     <use xlink:href="#LucidaGrande-66" transform="translate(151.904297 0)"/>
     <use xlink:href="#LucidaGrande-65" transform="translate(188.671875 0)"/>
     <use xlink:href="#LucidaGrande-72" transform="translate(244.384766 0)"/>
     <use xlink:href="#LucidaGrande-72" transform="translate(285.302734 0)"/>
     <use xlink:href="#LucidaGrande-65" transform="translate(326.220703 0)"/>
     <use xlink:href="#LucidaGrande-64" transform="translate(381.933594 0)"/>
     <use xlink:href="#LucidaGrande-20" transform="translate(444.873047 0)"/>
     <use xlink:href="#LucidaGrande-63" transform="translate(476.513672 0)"/>
     <use xlink:href="#LucidaGrande-6c" transform="translate(527.734375 0)"/>
     <use xlink:href="#LucidaGrande-61" transform="translate(556.640625 0)"/>
     <use xlink:href="#LucidaGrande-73" transform="translate(611.865234 0)"/>
     <use xlink:href="#LucidaGrande-73" transform="translate(662.841797 0)"/>
     <use xlink:href="#LucidaGrande-20" transform="translate(713.818359 0)"/>
     <use xlink:href="#LucidaGrande-73" transform="translate(745.458984 0)"/>
     <use xlink:href="#LucidaGrande-68" transform="translate(796.435547 0)"/>
     <use xlink:href="#LucidaGrande-61" transform="translate(858.496094 0)"/>
     <use xlink:href="#LucidaGrande-72" transform="translate(913.720703 0)"/>
     <use xlink:href="#LucidaGrande-65" transform="translate(954.638672 0)"/>
    </g>
   </g>
   <g id="PathCollection_1">
    <defs>
     <path id="m8ba3f0b372" d="M 0 2.607681 
C 0.691565 2.607681 1.354899 2.332919 1.843909 1.843909 
C 2.332919 1.354899 2.607681 0.691565 2.607681 0 
C 2.607681 -0.691565 2.332919 -1.354899 1.843909 -1.843909 
C 1.354899 -2.332919 0.691565 -2.607681 0 -2.607681 
C -0.691565 -2.607681 -1.354899 -2.332919 -1.843909 -1.843909 
C -2.332919 -1.354899 -2.607681 -0.691565 -2.607681 0 
C -2.607681 0.691565 -2.332919 1.354899 -1.843909 1.843909 
C -1.354899 2.332919 -0.691565 2.607681 0 2.607681 
z
" style="stroke: #0f4d92"/>
    </defs>
    <g clip-path="url(#p620c85383a)">
     <use xlink:href="#m8ba3f0b372" x="386.180571" y="68.557286" style="fill: #0f4d92; stroke: #0f4d92"/>
     <use xlink:href="#m8ba3f0b372" x="344.13649" y="157.653623" style="fill: #0f4d92; stroke: #0f4d92"/>
     <use xlink:href="#m8ba3f0b372" x="246.033633" y="246.749959" style="fill: #0f4d92; stroke: #0f4d92"/>
    </g>
   </g>
   <g id="PathCollection_2">
    <defs>
     <path id="m5fc7d2325f" d="M 0 2.607681 
C 0.691565 2.607681 1.354899 2.332919 1.843909 1.843909 
C 2.332919 1.354899 2.607681 0.691565 2.607681 0 
C 2.607681 -0.691565 2.332919 -1.354899 1.843909 -1.843909 
C 1.354899 -2.332919 0.691565 -2.607681 0 -2.607681 
C -0.691565 -2.607681 -1.354899 -2.332919 -1.843909 -1.843909 
C -2.332919 -1.354899 -2.607681 -0.691565 -2.607681 0 
C -2.607681 0.691565 -2.332919 1.354899 -1.843909 1.843909 
C -1.354899 2.332919 -0.691565 2.607681 0 2.607681 
z
" style="stroke: #33b5a5"/>
    </defs>
    <g clip-path="url(#p620c85383a)">
     <use xlink:href="#m5fc7d2325f" x="337.129143" y="98.850041" style="fill: #33b5a5; stroke: #33b5a5"/>
     <use xlink:href="#m5fc7d2325f" x="295.085061" y="187.946377" style="fill: #33b5a5; stroke: #33b5a5"/>
     <use xlink:href="#m5fc7d2325f" x="203.989551" y="277.042714" style="fill: #33b5a5; stroke: #33b5a5"/>
    </g>
   </g>
   <g id="legend_1">
    <g id="patch_11">
     <path d="M 329.794828 284.953781 
L 344.794828 284.953781 
L 344.794828 279.703781 
L 329.794828 279.703781 
z
" style="fill: #0f4d92; stroke: #ffffff; stroke-width: 0.6; stroke-linejoin: miter"/>
    </g>
    <g id="text_17">
     <!-- Current -->
     <g transform="translate(350.794828 284.953781) scale(0.075 -0.075)">
      <use xlink:href="#LucidaGrande-43"/>
      <use xlink:href="#LucidaGrande-75" transform="translate(69.189453 0)"/>
      <use xlink:href="#LucidaGrande-72" transform="translate(131.25 0)"/>
      <use xlink:href="#LucidaGrande-72" transform="translate(172.167969 0)"/>
      <use xlink:href="#LucidaGrande-65" transform="translate(213.085938 0)"/>
      <use xlink:href="#LucidaGrande-6e" transform="translate(268.798828 0)"/>
      <use xlink:href="#LucidaGrande-74" transform="translate(330.859375 0)"/>
     </g>
    </g>
    <g id="patch_12">
     <path d="M 329.794828 295.931906 
L 344.794828 295.931906 
L 344.794828 290.681906 
L 329.794828 290.681906 
z
" style="fill: #33b5a5; stroke: #ffffff; stroke-width: 0.6; stroke-linejoin: miter"/>
    </g>
    <g id="text_18">
     <!-- Comparator -->
     <g transform="translate(350.794828 295.931906) scale(0.075 -0.075)">
      <defs>
       <path id="LucidaGrande-6d" d="M 616 0 
L 616 3394 
L 1231 3394 
L 1231 2756 
Q 1681 3469 2388 3469 
Q 3069 3469 3316 2756 
Q 3753 3472 4453 3472 
Q 4903 3472 5150 3208 
Q 5397 2944 5397 2469 
L 5397 0 
L 4778 0 
L 4778 2372 
Q 4778 2953 4319 2953 
Q 3841 2953 3316 2275 
L 3316 0 
L 2697 0 
L 2697 2372 
Q 2697 2956 2228 2956 
Q 1763 2956 1231 2275 
L 1231 0 
L 616 0 
z
" transform="scale(0.015625)"/>
      </defs>
      <use xlink:href="#LucidaGrande-43"/>
      <use xlink:href="#LucidaGrande-6f" transform="translate(69.189453 0)"/>
      <use xlink:href="#LucidaGrande-6d" transform="translate(130.615234 0)"/>
      <use xlink:href="#LucidaGrande-70" transform="translate(223.974609 0)"/>
      <use xlink:href="#LucidaGrande-61" transform="translate(286.914062 0)"/>
      <use xlink:href="#LucidaGrande-72" transform="translate(342.138672 0)"/>
      <use xlink:href="#LucidaGrande-61" transform="translate(383.056641 0)"/>
      <use xlink:href="#LucidaGrande-74" transform="translate(438.28125 0)"/>
      <use xlink:href="#LucidaGrande-6f" transform="translate(475.683594 0)"/>
      <use xlink:href="#LucidaGrande-72" transform="translate(537.109375 0)"/>
     </g>
    </g>
   </g>
  </g>
  <g id="text_19">
   <!-- Preferred class sensitivity analysis -->
   <g style="fill: #272727" transform="translate(126.451562 13.016813) scale(0.1 -0.1)">
    <defs>
     <path id="LucidaGrande-76" d="M 1319 0 
L 56 3394 
L 672 3394 
L 1659 753 
L 2700 3394 
L 3275 3394 
L 1934 0 
L 1319 0 
z
" transform="scale(0.015625)"/>
     <path id="LucidaGrande-79" d="M 813 -1234 
L 1363 0 
L 50 3394 
L 716 3394 
L 1688 838 
L 2725 3394 
L 3306 3394 
L 1453 -1234 
L 813 -1234 
z
" transform="scale(0.015625)"/>
    </defs>
    <use xlink:href="#LucidaGrande-50"/>
    <use xlink:href="#LucidaGrande-72" transform="translate(55.273438 0)"/>
    <use xlink:href="#LucidaGrande-65" transform="translate(96.191406 0)"/>
    <use xlink:href="#LucidaGrande-66" transform="translate(151.904297 0)"/>
    <use xlink:href="#LucidaGrande-65" transform="translate(188.671875 0)"/>
    <use xlink:href="#LucidaGrande-72" transform="translate(244.384766 0)"/>
    <use xlink:href="#LucidaGrande-72" transform="translate(285.302734 0)"/>
    <use xlink:href="#LucidaGrande-65" transform="translate(326.220703 0)"/>
    <use xlink:href="#LucidaGrande-64" transform="translate(381.933594 0)"/>
    <use xlink:href="#LucidaGrande-20" transform="translate(444.873047 0)"/>
    <use xlink:href="#LucidaGrande-63" transform="translate(476.513672 0)"/>
    <use xlink:href="#LucidaGrande-6c" transform="translate(527.734375 0)"/>
    <use xlink:href="#LucidaGrande-61" transform="translate(556.640625 0)"/>
    <use xlink:href="#LucidaGrande-73" transform="translate(611.865234 0)"/>
    <use xlink:href="#LucidaGrande-73" transform="translate(662.841797 0)"/>
    <use xlink:href="#LucidaGrande-20" transform="translate(713.818359 0)"/>
    <use xlink:href="#LucidaGrande-73" transform="translate(745.458984 0)"/>
    <use xlink:href="#LucidaGrande-65" transform="translate(796.435547 0)"/>
    <use xlink:href="#LucidaGrande-6e" transform="translate(852.148438 0)"/>
    <use xlink:href="#LucidaGrande-73" transform="translate(914.208984 0)"/>
    <use xlink:href="#LucidaGrande-69" transform="translate(965.185547 0)"/>
    <use xlink:href="#LucidaGrande-74" transform="translate(994.091797 0)"/>
    <use xlink:href="#LucidaGrande-69" transform="translate(1031.494141 0)"/>
    <use xlink:href="#LucidaGrande-76" transform="translate(1060.400391 0)"/>
    <use xlink:href="#LucidaGrande-69" transform="translate(1112.158203 0)"/>
    <use xlink:href="#LucidaGrande-74" transform="translate(1141.064453 0)"/>
    <use xlink:href="#LucidaGrande-79" transform="translate(1178.466797 0)"/>
    <use xlink:href="#LucidaGrande-20" transform="translate(1230.712891 0)"/>
    <use xlink:href="#LucidaGrande-61" transform="translate(1262.353516 0)"/>
    <use xlink:href="#LucidaGrande-6e" transform="translate(1317.578125 0)"/>
    <use xlink:href="#LucidaGrande-61" transform="translate(1379.638672 0)"/>
    <use xlink:href="#LucidaGrande-6c" transform="translate(1434.863281 0)"/>
    <use xlink:href="#LucidaGrande-79" transform="translate(1463.769531 0)"/>
    <use xlink:href="#LucidaGrande-73" transform="translate(1516.015625 0)"/>
    <use xlink:href="#LucidaGrande-69" transform="translate(1566.992188 0)"/>
    <use xlink:href="#LucidaGrande-73" transform="translate(1595.898438 0)"/>
   </g>
  </g>
 </g>
 <defs>
  <clipPath id="p620c85383a">
   <rect x="91.872" y="41.472" width="309.024" height="262.656"/>
  </clipPath>
 </defs>
</svg>
