<?xml version="1.0" encoding="utf-8" standalone="no"?>
<!DOCTYPE svg PUBLIC "-//W3C//DTD SVG 1.1//EN"
  "http://www.w3.org/Graphics/SVG/1.1/DTD/svg11.dtd">
<svg xmlns:xlink="http://www.w3.org/1999/xlink" width="1108.8pt" height="285.23pt" viewBox="0 0 1108.8 285.23" xmlns="http://www.w3.org/2000/svg" version="1.1">
 <metadata>
  <rdf:RDF xmlns:dc="http://purl.org/dc/elements/1.1/" xmlns:cc="http://creativecommons.org/ns#" xmlns:rdf="http://www.w3.org/1999/02/22-rdf-syntax-ns#">
   <cc:Work>
    <dc:type rdf:resource="http://purl.org/dc/dcmitype/StillImage"/>
    <dc:date>2026-06-18T23:24:38.435718</dc:date>
    <dc:format>image/svg+xml</dc:format>
    <dc:creator>
     <cc:Agent>
      <dc:title>Matplotlib v3.10.8, https://matplotlib.org/</dc:title>
     </cc:Agent>
    </dc:creator>
   </cc:Work>
  </rdf:RDF>
 </metadata>
 <defs>
  <style type="text/css">*{stroke-linejoin: round; stroke-linecap: butt}</style>
 </defs>
 <g id="figure_1">
  <g id="patch_1">
   <path d="M 0 285.23 
L 1108.8 285.23 
L 1108.8 0 
L 0 0 
z
" style="fill: #ffffff"/>
  </g>
  <g id="axes_1">
   <g id="patch_2">
    <path d="M 48 219.23 
L 345.6 219.23 
Q 363.6 219.23 363.6 201.23 
L 363.6 68.98 
Q 363.6 50.98 345.6 50.98 
L 48 50.98 
Q 30 50.98 30 68.98 
L 30 201.23 
Q 30 219.23 48 219.23 
z
" clip-path="url(#p73089c022e)" style="fill: #ddf3f0; stroke: #767676; stroke-width: 1.1625; stroke-linejoin: miter"/>
   </g>
   <g id="patch_3">
    <path d="M 62 96.98 
C 65.712843 96.98 69.274118 95.504872 71.899495 92.879495 
C 74.524872 90.254118 76 86.692843 76 82.98 
C 76 79.267157 74.524872 75.705882 71.899495 73.080505 
C 69.274118 70.455128 65.712843 68.98 62 68.98 
C 58.287157 68.98 54.725882 70.455128 52.100505 73.080505 
C 49.475128 75.705882 48 79.267157 48 82.98 
C 48 86.692843 49.475128 90.254118 52.100505 92.879495 
C 54.725882 95.504872 58.287157 96.98 62 96.98 
z
" clip-path="url(#p73089c022e)" style="fill: #ffffff; stroke: #767676; stroke-width: 1.04625; stroke-linejoin: miter"/>
   </g>
   <g id="patch_4">
    <path d="M 62 201.23 
L 331.6 201.23 
Q 345.6 201.23 345.6 187.23 
L 345.6 123.624 
Q 345.6 109.624 331.6 109.624 
L 62 109.624 
Q 48 109.624 48 123.624 
L 48 187.23 
Q 48 201.23 62 201.23 
z
" clip-path="url(#p73089c022e)" style="fill: #dceaf7; stroke: #0f4d92; stroke-width: 1.16; stroke-linejoin: miter"/>
   </g>
   <g id="patch_5">
    <path d="M 405.6 219.23 
L 703.2 219.23 
Q 721.2 219.23 721.2 201.23 
L 721.2 68.98 
Q 721.2 50.98 703.2 50.98 
L 405.6 50.98 
Q 387.6 50.98 387.6 68.98 
L 387.6 201.23 
Q 387.6 219.23 405.6 219.23 
z
" clip-path="url(#p73089c022e)" style="fill: #ddf3f0; stroke: #767676; stroke-width: 1.1625; stroke-linejoin: miter"/>
   </g>
   <g id="patch_6">
    <path d="M 419.6 96.98 
C 423.312843 96.98 426.874118 95.504872 429.499495 92.879495 
C 432.124872 90.254118 433.6 86.692843 433.6 82.98 
C 433.6 79.267157 432.124872 75.705882 429.499495 73.080505 
C 426.874118 70.455128 423.312843 68.98 419.6 68.98 
C 415.887157 68.98 412.325882 70.455128 409.700505 73.080505 
C 407.075128 75.705882 405.6 79.267157 405.6 82.98 
C 405.6 86.692843 407.075128 90.254118 409.700505 92.879495 
C 412.325882 95.504872 415.887157 96.98 419.6 96.98 
z
" clip-path="url(#p73089c022e)" style="fill: #ffffff; stroke: #767676; stroke-width: 1.04625; stroke-linejoin: miter"/>
   </g>
   <g id="patch_7">
    <path d="M 419.6 201.23 
L 689.2 201.23 
Q 703.2 201.23 703.2 187.23 
L 703.2 123.624 
Q 703.2 109.624 689.2 109.624 
L 419.6 109.624 
Q 405.6 109.624 405.6 123.624 
L 405.6 187.23 
Q 405.6 201.23 419.6 201.23 
z
" clip-path="url(#p73089c022e)" style="fill: #ddf3f0; stroke: #33b5a5; stroke-width: 1.16; stroke-linejoin: miter"/>
   </g>
   <g id="patch_8">
    <path d="M 364.398942 127.005 
Q 372.498942 131.055 380.598942 135.105 
Q 372.498942 139.155 364.398942 143.205 
z
" clip-path="url(#p73089c022e)" style="fill: #767676; opacity: 0.72"/>
   </g>
   <g id="patch_9">
    <path d="M 137.8 263.23 
L 255.8 263.23 
Q 269.8 263.23 269.8 249.23 
L 269.8 249.23 
Q 269.8 235.23 255.8 235.23 
L 137.8 235.23 
Q 123.8 235.23 123.8 249.23 
L 123.8 249.23 
Q 123.8 263.23 137.8 263.23 
z
" clip-path="url(#p73089c022e)" style="fill: #ffffff; stroke: #0f4d92; stroke-width: 1.04625; stroke-linejoin: miter"/>
   </g>
   <g id="patch_10">
    <path d="M 495.4 263.23 
L 613.4 263.23 
Q 627.4 263.23 627.4 249.23 
L 627.4 249.23 
Q 627.4 235.23 613.4 235.23 
L 495.4 235.23 
Q 481.4 235.23 481.4 249.23 
L 481.4 249.23 
Q 481.4 263.23 495.4 263.23 
z
" clip-path="url(#p73089c022e)" style="fill: #ffffff; stroke: #33b5a5; stroke-width: 1.04625; stroke-linejoin: miter"/>
   </g>
   <g id="text_1">
    <!-- Submission companion overview -->
    <g style="fill: #767676" transform="translate(30 30.480312) scale(0.11 -0.11)">
     <defs>
      <path id="LucidaGrande-53" d="M 1503 -116 
Q 1038 -116 313 88 
L 313 738 
Q 1094 375 1597 375 
Q 1984 375 2220 578 
Q 2456 781 2456 1113 
Q 2456 1384 2301 1575 
Q 2147 1766 1731 2000 
L 1413 2184 
Q 822 2522 580 2820 
Q 338 3119 338 3516 
Q 338 4050 725 4395 
Q 1113 4741 1713 4741 
Q 2247 4741 2841 4563 
L 2841 3963 
Q 2109 4250 1750 4250 
Q 1409 4250 1187 4069 
Q 966 3888 966 3613 
Q 966 3381 1128 3203 
Q 1291 3025 1722 2778 
L 2053 2591 
Q 2653 2250 2890 1947 
Q 3128 1644 3128 1219 
Q 3128 616 2683 250 
Q 2238 -116 1503 -116 
z
" transform="scale(0.015625)"/>
      <path id="LucidaGrande-75" d="M 2738 0 
L 2738 638 
Q 2247 -78 1547 -78 
Q 1103 -78 840 201 
Q 578 481 578 956 
L 578 3394 
L 1194 3394 
L 1194 1156 
Q 1194 775 1305 614 
Q 1416 453 1675 453 
Q 2238 453 2738 1194 
L 2738 3394 
L 3353 3394 
L 3353 0 
L 2738 0 
z
" transform="scale(0.015625)"/>
      <path id="LucidaGrande-62" d="M 616 -38 
L 616 4934 
L 1231 4934 
L 1231 2756 
Q 1609 3469 2366 3469 
Q 2978 3469 3329 3022 
Q 3681 2575 3681 1800 
Q 3681 956 3282 439 
Q 2884 -78 2234 -78 
Q 1631 -78 1231 384 
L 1156 -38 
L 616 -38 
z
M 1231 809 
Q 1706 384 2138 384 
Q 3025 384 3025 1738 
Q 3025 2931 2238 2931 
Q 1722 2931 1231 2372 
L 1231 809 
z
" transform="scale(0.015625)"/>
      <path id="LucidaGrande-6d" d="M 616 0 
L 616 3394 
L 1231 3394 
L 1231 2756 
Q 1681 3469 2388 3469 
Q 3069 3469 3316 2756 
Q 3753 3472 4453 3472 
Q 4903 3472 5150 3208 
Q 5397 2944 5397 2469 
L 5397 0 
L 4778 0 
L 4778 2372 
Q 4778 2953 4319 2953 
Q 3841 2953 3316 2275 
L 3316 0 
L 2697 0 
L 2697 2372 
Q 2697 2956 2228 2956 
Q 1763 2956 1231 2275 
L 1231 0 
L 616 0 
z
" transform="scale(0.015625)"/>
      <path id="LucidaGrande-69" d="M 616 0 
L 616 3394 
L 1231 3394 
L 1231 0 
L 616 0 
z
M 616 4009 
L 616 4625 
L 1231 4625 
L 1231 4009 
L 616 4009 
z
" transform="scale(0.015625)"/>
      <path id="LucidaGrande-73" d="M 1516 -78 
Q 1094 -78 491 119 
L 491 684 
Q 1094 384 1541 384 
Q 1806 384 1981 528 
Q 2156 672 2156 888 
Q 2156 1203 1666 1409 
L 1306 1563 
Q 509 1894 509 2516 
Q 509 2959 823 3214 
Q 1138 3469 1684 3469 
Q 1969 3469 2388 3391 
L 2516 3366 
L 2516 2853 
Q 2000 3006 1697 3006 
Q 1103 3006 1103 2575 
Q 1103 2297 1553 2106 
L 1850 1981 
Q 2353 1769 2562 1533 
Q 2772 1297 2772 944 
Q 2772 497 2419 209 
Q 2066 -78 1516 -78 
z
" transform="scale(0.015625)"/>
      <path id="LucidaGrande-6f" d="M 1944 -78 
Q 1216 -78 781 405 
Q 347 888 347 1697 
Q 347 2516 783 2992 
Q 1219 3469 1966 3469 
Q 2713 3469 3148 2992 
Q 3584 2516 3584 1703 
Q 3584 872 3146 397 
Q 2709 -78 1944 -78 
z
M 1953 384 
Q 2931 384 2931 1703 
Q 2931 3006 1966 3006 
Q 1003 3006 1003 1697 
Q 1003 384 1953 384 
z
" transform="scale(0.015625)"/>
      <path id="LucidaGrande-6e" d="M 616 0 
L 616 3394 
L 1231 3394 
L 1231 2756 
Q 1719 3469 2425 3469 
Q 2866 3469 3128 3189 
Q 3391 2909 3391 2438 
L 3391 0 
L 2775 0 
L 2775 2238 
Q 2775 2616 2664 2777 
Q 2553 2938 2297 2938 
Q 1731 2938 1231 2197 
L 1231 0 
L 616 0 
z
" transform="scale(0.015625)"/>
      <path id="LucidaGrande-20" transform="scale(0.015625)"/>
      <path id="LucidaGrande-63" d="M 1941 -78 
Q 1253 -78 800 431 
Q 347 941 347 1716 
Q 347 2544 795 3006 
Q 1244 3469 2047 3469 
Q 2444 3469 2934 3359 
L 2934 2844 
Q 2413 2997 2084 2997 
Q 1613 2997 1327 2642 
Q 1041 2288 1041 1697 
Q 1041 1125 1334 772 
Q 1628 419 2103 419 
Q 2525 419 2972 634 
L 2972 103 
Q 2375 -78 1941 -78 
z
" transform="scale(0.015625)"/>
      <path id="LucidaGrande-70" d="M 616 -1234 
L 616 3394 
L 1231 3394 
L 1231 2756 
Q 1609 3469 2366 3469 
Q 2978 3469 3329 3022 
Q 3681 2575 3681 1800 
Q 3681 956 3282 439 
Q 2884 -78 2234 -78 
Q 1631 -78 1231 384 
L 1231 -1234 
L 616 -1234 
z
M 1231 809 
Q 1706 384 2138 384 
Q 3025 384 3025 1738 
Q 3025 2931 2238 2931 
Q 1722 2931 1231 2372 
L 1231 809 
z
" transform="scale(0.015625)"/>
      <path id="LucidaGrande-61" d="M 2366 431 
Q 1813 -78 1300 -78 
Q 878 -78 600 186 
Q 322 450 322 853 
Q 322 1409 789 1707 
Q 1256 2006 2128 2006 
L 2275 2006 
L 2275 2416 
Q 2275 3006 1669 3006 
Q 1181 3006 616 2706 
L 616 3216 
Q 1238 3469 1781 3469 
Q 2350 3469 2620 3212 
Q 2891 2956 2891 2416 
L 2891 878 
Q 2891 350 3216 350 
Q 3256 350 3334 363 
L 3378 22 
Q 3169 -78 2916 -78 
Q 2484 -78 2366 431 
z
M 2275 766 
L 2275 1644 
L 2069 1650 
Q 1563 1650 1250 1458 
Q 938 1266 938 953 
Q 938 731 1094 578 
Q 1250 425 1475 425 
Q 1859 425 2275 766 
z
" transform="scale(0.015625)"/>
      <path id="LucidaGrande-76" d="M 1319 0 
L 56 3394 
L 672 3394 
L 1659 753 
L 2700 3394 
L 3275 3394 
L 1934 0 
L 1319 0 
z
" transform="scale(0.015625)"/>
      <path id="LucidaGrande-65" d="M 3103 109 
Q 2484 -78 2044 -78 
Q 1294 -78 820 420 
Q 347 919 347 1713 
Q 347 2484 764 2978 
Q 1181 3472 1831 3472 
Q 2447 3472 2783 3034 
Q 3119 2597 3119 1791 
L 3116 1600 
L 975 1600 
Q 1109 391 2159 391 
Q 2544 391 3103 597 
L 3103 109 
z
M 1003 2063 
L 2500 2063 
Q 2500 3009 1794 3009 
Q 1084 3009 1003 2063 
z
" transform="scale(0.015625)"/>
      <path id="LucidaGrande-72" d="M 616 0 
L 616 3394 
L 1231 3394 
L 1231 2756 
Q 1597 3469 2294 3469 
Q 2388 3469 2491 3453 
L 2491 2878 
Q 2331 2931 2209 2931 
Q 1625 2931 1231 2238 
L 1231 0 
L 616 0 
z
" transform="scale(0.015625)"/>
      <path id="LucidaGrande-77" d="M 1009 0 
L 38 3394 
L 641 3394 
L 1384 766 
L 2188 3394 
L 2803 3394 
L 3506 766 
L 4359 3394 
L 4888 3394 
L 3781 0 
L 3163 0 
L 2444 2628 
L 1631 0 
L 1009 0 
z
" transform="scale(0.015625)"/>
     </defs>
     <use xlink:href="#LucidaGrande-53"/>
     <use xlink:href="#LucidaGrande-75" transform="translate(53.857422 0)"/>
     <use xlink:href="#LucidaGrande-62" transform="translate(115.917969 0)"/>
     <use xlink:href="#LucidaGrande-6d" transform="translate(178.857422 0)"/>
     <use xlink:href="#LucidaGrande-69" transform="translate(272.216797 0)"/>
     <use xlink:href="#LucidaGrande-73" transform="translate(301.123047 0)"/>
     <use xlink:href="#LucidaGrande-73" transform="translate(352.099609 0)"/>
     <use xlink:href="#LucidaGrande-69" transform="translate(403.076172 0)"/>
     <use xlink:href="#LucidaGrande-6f" transform="translate(431.982422 0)"/>
     <use xlink:href="#LucidaGrande-6e" transform="translate(493.408203 0)"/>
     <use xlink:href="#LucidaGrande-20" transform="translate(555.46875 0)"/>
     <use xlink:href="#LucidaGrande-63" transform="translate(587.109375 0)"/>
     <use xlink:href="#LucidaGrande-6f" transform="translate(638.330078 0)"/>
     <use xlink:href="#LucidaGrande-6d" transform="translate(699.755859 0)"/>
     <use xlink:href="#LucidaGrande-70" transform="translate(793.115234 0)"/>
     <use xlink:href="#LucidaGrande-61" transform="translate(856.054688 0)"/>
     <use xlink:href="#LucidaGrande-6e" transform="translate(911.279297 0)"/>
     <use xlink:href="#LucidaGrande-69" transform="translate(973.339844 0)"/>
     <use xlink:href="#LucidaGrande-6f" transform="translate(1002.246094 0)"/>
     <use xlink:href="#LucidaGrande-6e" transform="translate(1063.671875 0)"/>
     <use xlink:href="#LucidaGrande-20" transform="translate(1125.732422 0)"/>
     <use xlink:href="#LucidaGrande-6f" transform="translate(1157.373047 0)"/>
     <use xlink:href="#LucidaGrande-76" transform="translate(1218.798828 0)"/>
     <use xlink:href="#LucidaGrande-65" transform="translate(1270.556641 0)"/>
     <use xlink:href="#LucidaGrande-72" transform="translate(1326.269531 0)"/>
     <use xlink:href="#LucidaGrande-76" transform="translate(1367.1875 0)"/>
     <use xlink:href="#LucidaGrande-69" transform="translate(1418.945312 0)"/>
     <use xlink:href="#LucidaGrande-65" transform="translate(1447.851562 0)"/>
     <use xlink:href="#LucidaGrande-77" transform="translate(1503.564453 0)"/>
    </g>
   </g>
   <g id="text_2">
    <!-- A -->
    <g style="fill: #767676" transform="translate(58.136 86.2175) scale(0.112 -0.112)">
     <defs>
      <path id="LucidaGrande-41" d="M 2941 1769 
L 2153 3763 
L 1363 1769 
L 2941 1769 
z
M 3634 0 
L 3131 1281 
L 1172 1281 
L 663 0 
L 53 0 
L 1888 4625 
L 2538 4625 
L 4344 0 
L 3634 0 
z
" transform="scale(0.015625)"/>
     </defs>
     <use xlink:href="#LucidaGrande-41"/>
    </g>
   </g>
   <g id="text_3">
    <!-- Cohort and split -->
    <g style="fill: #767676" transform="translate(86 76.843563) scale(0.102 -0.102)">
     <defs>
      <path id="LucidaGrande-43" d="M 2578 -116 
Q 1500 -116 912 517 
Q 325 1150 325 2309 
Q 325 3466 923 4103 
Q 1522 4741 2609 4741 
Q 3231 4741 4066 4538 
L 4066 3922 
Q 3116 4250 2600 4250 
Q 1847 4250 1434 3740 
Q 1022 3231 1022 2303 
Q 1022 1419 1462 908 
Q 1903 397 2666 397 
Q 3322 397 4072 800 
L 4072 238 
Q 3388 -116 2578 -116 
z
" transform="scale(0.015625)"/>
      <path id="LucidaGrande-68" d="M 616 0 
L 616 4934 
L 1231 4934 
L 1231 2756 
Q 1719 3469 2425 3469 
Q 2866 3469 3128 3189 
Q 3391 2909 3391 2438 
L 3391 0 
L 2775 0 
L 2775 2238 
Q 2775 2616 2664 2777 
Q 2553 2938 2297 2938 
Q 1731 2938 1231 2197 
L 1231 0 
L 616 0 
z
" transform="scale(0.015625)"/>
      <path id="LucidaGrande-74" d="M 1634 -78 
Q 1166 -78 903 190 
Q 641 459 641 938 
L 641 2931 
L 216 2931 
L 216 3394 
L 641 3394 
L 641 4009 
L 1256 4069 
L 1256 3394 
L 2144 3394 
L 2144 2931 
L 1256 2931 
L 1256 1050 
Q 1256 384 1831 384 
Q 1953 384 2128 425 
L 2128 0 
Q 1844 -78 1634 -78 
z
" transform="scale(0.015625)"/>
      <path id="LucidaGrande-64" d="M 2794 0 
L 2794 638 
Q 2419 -78 1663 -78 
Q 1050 -78 698 369 
Q 347 816 347 1591 
Q 347 2438 745 2953 
Q 1144 3469 1794 3469 
Q 2397 3469 2794 3006 
L 2794 4934 
L 3413 4934 
L 3413 0 
L 2794 0 
z
M 2794 2584 
Q 2316 3006 1888 3006 
Q 1003 3006 1003 1653 
Q 1003 463 1791 463 
Q 2303 463 2794 1022 
L 2794 2584 
z
" transform="scale(0.015625)"/>
      <path id="LucidaGrande-6c" d="M 616 0 
L 616 4934 
L 1231 4934 
L 1231 0 
L 616 0 
z
" transform="scale(0.015625)"/>
     </defs>
     <use xlink:href="#LucidaGrande-43"/>
     <use xlink:href="#LucidaGrande-6f" transform="translate(69.189453 0)"/>
     <use xlink:href="#LucidaGrande-68" transform="translate(130.615234 0)"/>
     <use xlink:href="#LucidaGrande-6f" transform="translate(192.675781 0)"/>
     <use xlink:href="#LucidaGrande-72" transform="translate(254.101562 0)"/>
     <use xlink:href="#LucidaGrande-74" transform="translate(295.019531 0)"/>
     <use xlink:href="#LucidaGrande-20" transform="translate(332.421875 0)"/>
     <use xlink:href="#LucidaGrande-61" transform="translate(364.0625 0)"/>
     <use xlink:href="#LucidaGrande-6e" transform="translate(419.287109 0)"/>
     <use xlink:href="#LucidaGrande-64" transform="translate(481.347656 0)"/>
     <use xlink:href="#LucidaGrande-20" transform="translate(544.287109 0)"/>
     <use xlink:href="#LucidaGrande-73" transform="translate(575.927734 0)"/>
     <use xlink:href="#LucidaGrande-70" transform="translate(626.904297 0)"/>
     <use xlink:href="#LucidaGrande-6c" transform="translate(689.84375 0)"/>
     <use xlink:href="#LucidaGrande-69" transform="translate(718.75 0)"/>
     <use xlink:href="#LucidaGrande-74" transform="translate(747.65625 0)"/>
    </g>
   </g>
   <g id="text_4">
    <!-- Locked analysis cohort -->
    <g style="fill: #767676" transform="translate(86 93.133375) scale(0.1 -0.1)">
     <defs>
      <path id="LucidaGrande-4c" d="M 597 0 
L 597 4625 
L 1253 4625 
L 1253 491 
L 3334 491 
L 3334 0 
L 597 0 
z
" transform="scale(0.015625)"/>
      <path id="LucidaGrande-6b" d="M 616 0 
L 616 4934 
L 1231 4934 
L 1231 1747 
L 2669 3394 
L 3331 3394 
L 1959 1809 
L 3616 0 
L 2828 0 
L 1231 1741 
L 1231 0 
L 616 0 
z
" transform="scale(0.015625)"/>
      <path id="LucidaGrande-79" d="M 813 -1234 
L 1363 0 
L 50 3394 
L 716 3394 
L 1688 838 
L 2725 3394 
L 3306 3394 
L 1453 -1234 
L 813 -1234 
z
" transform="scale(0.015625)"/>
     </defs>
     <use xlink:href="#LucidaGrande-4c"/>
     <use xlink:href="#LucidaGrande-6f" transform="translate(53.320312 0)"/>
     <use xlink:href="#LucidaGrande-63" transform="translate(114.746094 0)"/>
     <use xlink:href="#LucidaGrande-6b" transform="translate(165.966797 0)"/>
     <use xlink:href="#LucidaGrande-65" transform="translate(224.414062 0)"/>
     <use xlink:href="#LucidaGrande-64" transform="translate(280.126953 0)"/>
     <use xlink:href="#LucidaGrande-20" transform="translate(343.066406 0)"/>
     <use xlink:href="#LucidaGrande-61" transform="translate(374.707031 0)"/>
     <use xlink:href="#LucidaGrande-6e" transform="translate(429.931641 0)"/>
     <use xlink:href="#LucidaGrande-61" transform="translate(491.992188 0)"/>
     <use xlink:href="#LucidaGrande-6c" transform="translate(547.216797 0)"/>
     <use xlink:href="#LucidaGrande-79" transform="translate(576.123047 0)"/>
     <use xlink:href="#LucidaGrande-73" transform="translate(628.369141 0)"/>
     <use xlink:href="#LucidaGrande-69" transform="translate(679.345703 0)"/>
     <use xlink:href="#LucidaGrande-73" transform="translate(708.251953 0)"/>
     <use xlink:href="#LucidaGrande-20" transform="translate(759.228516 0)"/>
     <use xlink:href="#LucidaGrande-63" transform="translate(790.869141 0)"/>
     <use xlink:href="#LucidaGrande-6f" transform="translate(842.089844 0)"/>
     <use xlink:href="#LucidaGrande-68" transform="translate(903.515625 0)"/>
     <use xlink:href="#LucidaGrande-6f" transform="translate(965.576172 0)"/>
     <use xlink:href="#LucidaGrande-72" transform="translate(1027.001953 0)"/>
     <use xlink:href="#LucidaGrande-74" transform="translate(1067.919922 0)"/>
    </g>
   </g>
   <g id="text_5">
    <!-- Analytic cohort -->
    <g style="fill: #767676" transform="translate(62 131.333375) scale(0.1 -0.1)">
     <use xlink:href="#LucidaGrande-41"/>
     <use xlink:href="#LucidaGrande-6e" transform="translate(68.994141 0)"/>
     <use xlink:href="#LucidaGrande-61" transform="translate(131.054688 0)"/>
     <use xlink:href="#LucidaGrande-6c" transform="translate(186.279297 0)"/>
     <use xlink:href="#LucidaGrande-79" transform="translate(215.185547 0)"/>
     <use xlink:href="#LucidaGrande-74" transform="translate(267.431641 0)"/>
     <use xlink:href="#LucidaGrande-69" transform="translate(304.833984 0)"/>
     <use xlink:href="#LucidaGrande-63" transform="translate(333.740234 0)"/>
     <use xlink:href="#LucidaGrande-20" transform="translate(384.960938 0)"/>
     <use xlink:href="#LucidaGrande-63" transform="translate(416.601562 0)"/>
     <use xlink:href="#LucidaGrande-6f" transform="translate(467.822266 0)"/>
     <use xlink:href="#LucidaGrande-68" transform="translate(529.248047 0)"/>
     <use xlink:href="#LucidaGrande-6f" transform="translate(591.308594 0)"/>
     <use xlink:href="#LucidaGrande-72" transform="translate(652.734375 0)"/>
     <use xlink:href="#LucidaGrande-74" transform="translate(693.652344 0)"/>
    </g>
   </g>
   <g id="text_6">
    <!-- 15,787 -->
    <g style="fill: #0f4d92" transform="translate(62 157.941031) scale(0.235 -0.235)">
     <defs>
      <path id="LucidaGrande-31" d="M 963 0 
L 963 463 
L 1888 463 
L 1888 4113 
L 963 3881 
L 963 4356 
L 2506 4741 
L 2506 463 
L 3431 463 
L 3431 0 
L 963 0 
z
" transform="scale(0.015625)"/>
      <path id="LucidaGrande-35" d="M 778 -19 
L 778 531 
Q 1238 347 1653 347 
Q 2109 347 2370 615 
Q 2631 884 2631 1356 
Q 2631 2397 1197 2397 
Q 1034 2397 856 2375 
L 856 4625 
L 3197 4625 
L 3197 4088 
L 1397 4088 
L 1397 2869 
Q 2288 2869 2788 2459 
Q 3288 2050 3288 1325 
Q 3288 650 2833 267 
Q 2378 -116 1572 -116 
Q 1222 -116 778 -19 
z
" transform="scale(0.015625)"/>
      <path id="LucidaGrande-2c" d="M 625 -1003 
L 625 -772 
Q 925 -688 925 -63 
L 925 0 
L 625 0 
L 625 772 
L 1397 772 
L 1397 103 
Q 1397 -925 625 -1003 
z
" transform="scale(0.015625)"/>
      <path id="LucidaGrande-37" d="M 963 0 
Q 1053 541 1220 934 
Q 1388 1328 1813 2016 
L 3075 4047 
L 694 4047 
L 694 4625 
L 3663 4625 
L 3663 4047 
Q 1884 1425 1672 0 
L 963 0 
z
" transform="scale(0.015625)"/>
      <path id="LucidaGrande-38" d="M 1472 2519 
Q 794 2991 794 3563 
Q 794 4088 1178 4416 
Q 1563 4744 2181 4744 
Q 2753 4744 3108 4466 
Q 3463 4188 3463 3744 
Q 3463 3072 2600 2519 
Q 3647 2006 3647 1197 
Q 3647 616 3208 250 
Q 2769 -116 2075 -116 
Q 1394 -116 973 229 
Q 553 575 553 1138 
Q 553 1969 1472 2519 
z
M 2256 2713 
Q 2903 3138 2903 3659 
Q 2903 3938 2687 4108 
Q 2472 4278 2119 4278 
Q 1778 4278 1565 4111 
Q 1353 3944 1353 3678 
Q 1353 3419 1545 3214 
Q 1738 3009 2256 2713 
z
M 1806 2269 
Q 1434 1981 1301 1767 
Q 1169 1553 1169 1234 
Q 1169 838 1425 592 
Q 1681 347 2100 347 
Q 2503 347 2758 556 
Q 3013 766 3013 1100 
Q 3013 1369 2855 1555 
Q 2697 1741 2244 2009 
L 1806 2269 
z
" transform="scale(0.015625)"/>
     </defs>
     <use xlink:href="#LucidaGrande-31"/>
     <use xlink:href="#LucidaGrande-35" transform="translate(63.232422 0)"/>
     <use xlink:href="#LucidaGrande-2c" transform="translate(126.464844 0)"/>
     <use xlink:href="#LucidaGrande-37" transform="translate(158.105469 0)"/>
     <use xlink:href="#LucidaGrande-38" transform="translate(221.337891 0)"/>
     <use xlink:href="#LucidaGrande-37" transform="translate(284.570312 0)"/>
    </g>
   </g>
   <g id="text_7">
    <!-- eligible patients -->
    <g style="fill: #767676" transform="translate(62 182.27825) scale(0.088 -0.088)">
     <defs>
      <path id="LucidaGrande-67" d="M 628 -1128 
L 700 -594 
Q 1234 -847 1753 -847 
Q 2794 -847 2794 256 
L 2794 791 
Q 2453 78 1675 78 
Q 1066 78 706 522 
Q 347 966 347 1719 
Q 347 2494 756 2981 
Q 1166 3469 1816 3469 
Q 2384 3469 2794 3006 
L 2794 3394 
L 3413 3394 
L 3413 925 
Q 3413 128 3330 -255 
Q 3247 -638 3019 -881 
Q 2616 -1309 1766 -1309 
Q 1172 -1309 628 -1128 
z
M 2794 1175 
L 2794 2584 
Q 2388 3006 1909 3006 
Q 1484 3006 1243 2665 
Q 1003 2325 1003 1731 
Q 1003 616 1788 616 
Q 2322 616 2794 1175 
z
" transform="scale(0.015625)"/>
     </defs>
     <use xlink:href="#LucidaGrande-65"/>
     <use xlink:href="#LucidaGrande-6c" transform="translate(55.712891 0)"/>
     <use xlink:href="#LucidaGrande-69" transform="translate(84.619141 0)"/>
     <use xlink:href="#LucidaGrande-67" transform="translate(113.525391 0)"/>
     <use xlink:href="#LucidaGrande-69" transform="translate(175.878906 0)"/>
     <use xlink:href="#LucidaGrande-62" transform="translate(204.785156 0)"/>
     <use xlink:href="#LucidaGrande-6c" transform="translate(267.724609 0)"/>
     <use xlink:href="#LucidaGrande-65" transform="translate(296.630859 0)"/>
     <use xlink:href="#LucidaGrande-20" transform="translate(352.34375 0)"/>
     <use xlink:href="#LucidaGrande-70" transform="translate(383.984375 0)"/>
     <use xlink:href="#LucidaGrande-61" transform="translate(446.923828 0)"/>
     <use xlink:href="#LucidaGrande-74" transform="translate(502.148438 0)"/>
     <use xlink:href="#LucidaGrande-69" transform="translate(539.550781 0)"/>
     <use xlink:href="#LucidaGrande-65" transform="translate(568.457031 0)"/>
     <use xlink:href="#LucidaGrande-6e" transform="translate(624.169922 0)"/>
     <use xlink:href="#LucidaGrande-74" transform="translate(686.230469 0)"/>
     <use xlink:href="#LucidaGrande-73" transform="translate(723.632812 0)"/>
    </g>
   </g>
   <g id="text_8">
    <!-- B -->
    <g style="fill: #767676" transform="translate(416.379125 86.2175) scale(0.112 -0.112)">
     <defs>
      <path id="LucidaGrande-42" d="M 597 0 
L 597 4625 
L 1797 4625 
Q 2491 4625 2861 4362 
Q 3231 4100 3231 3606 
Q 3231 2766 2281 2409 
Q 3416 2063 3416 1156 
Q 3416 594 3041 297 
Q 2666 0 1959 0 
L 597 0 
z
M 1247 491 
L 1381 491 
Q 2103 491 2316 581 
Q 2722 753 2722 1219 
Q 2722 1631 2353 1904 
Q 1984 2178 1431 2178 
L 1247 2178 
L 1247 491 
z
M 1247 2594 
L 1456 2594 
Q 1981 2594 2270 2819 
Q 2559 3044 2559 3453 
Q 2559 4134 1503 4134 
L 1247 4134 
L 1247 2594 
z
" transform="scale(0.015625)"/>
     </defs>
     <use xlink:href="#LucidaGrande-42"/>
    </g>
   </g>
   <g id="text_9">
    <!-- Primary endpoint -->
    <g style="fill: #767676" transform="translate(443.6 76.843563) scale(0.102 -0.102)">
     <defs>
      <path id="LucidaGrande-50" d="M 597 0 
L 597 4625 
L 1856 4625 
Q 2694 4625 3059 4342 
Q 3425 4059 3425 3413 
Q 3425 2675 2925 2256 
Q 2425 1838 1538 1838 
L 1247 1838 
L 1247 0 
L 597 0 
z
M 1247 2334 
L 1513 2334 
Q 2097 2334 2415 2603 
Q 2734 2872 2734 3363 
Q 2734 3778 2484 3956 
Q 2234 4134 1650 4134 
L 1247 4134 
L 1247 2334 
z
" transform="scale(0.015625)"/>
     </defs>
     <use xlink:href="#LucidaGrande-50"/>
     <use xlink:href="#LucidaGrande-72" transform="translate(55.273438 0)"/>
     <use xlink:href="#LucidaGrande-69" transform="translate(96.191406 0)"/>
     <use xlink:href="#LucidaGrande-6d" transform="translate(125.097656 0)"/>
     <use xlink:href="#LucidaGrande-61" transform="translate(218.457031 0)"/>
     <use xlink:href="#LucidaGrande-72" transform="translate(273.681641 0)"/>
     <use xlink:href="#LucidaGrande-79" transform="translate(314.599609 0)"/>
     <use xlink:href="#LucidaGrande-20" transform="translate(366.845703 0)"/>
     <use xlink:href="#LucidaGrande-65" transform="translate(398.486328 0)"/>
     <use xlink:href="#LucidaGrande-6e" transform="translate(454.199219 0)"/>
     <use xlink:href="#LucidaGrande-64" transform="translate(516.259766 0)"/>
     <use xlink:href="#LucidaGrande-70" transform="translate(579.199219 0)"/>
     <use xlink:href="#LucidaGrande-6f" transform="translate(642.138672 0)"/>
     <use xlink:href="#LucidaGrande-69" transform="translate(703.564453 0)"/>
     <use xlink:href="#LucidaGrande-6e" transform="translate(732.470703 0)"/>
     <use xlink:href="#LucidaGrande-74" transform="translate(794.53125 0)"/>
    </g>
   </g>
   <g id="text_10">
    <!-- Cardiovascular mortality -->
    <g style="fill: #767676" transform="translate(443.6 93.133375) scale(0.1 -0.1)">
     <use xlink:href="#LucidaGrande-43"/>
     <use xlink:href="#LucidaGrande-61" transform="translate(69.189453 0)"/>
     <use xlink:href="#LucidaGrande-72" transform="translate(124.414062 0)"/>
     <use xlink:href="#LucidaGrande-64" transform="translate(165.332031 0)"/>
     <use xlink:href="#LucidaGrande-69" transform="translate(228.271484 0)"/>
     <use xlink:href="#LucidaGrande-6f" transform="translate(257.177734 0)"/>
     <use xlink:href="#LucidaGrande-76" transform="translate(318.603516 0)"/>
     <use xlink:href="#LucidaGrande-61" transform="translate(370.361328 0)"/>
     <use xlink:href="#LucidaGrande-73" transform="translate(425.585938 0)"/>
     <use xlink:href="#LucidaGrande-63" transform="translate(476.5625 0)"/>
     <use xlink:href="#LucidaGrande-75" transform="translate(527.783203 0)"/>
     <use xlink:href="#LucidaGrande-6c" transform="translate(589.84375 0)"/>
     <use xlink:href="#LucidaGrande-61" transform="translate(618.75 0)"/>
     <use xlink:href="#LucidaGrande-72" transform="translate(673.974609 0)"/>
     <use xlink:href="#LucidaGrande-20" transform="translate(714.892578 0)"/>
     <use xlink:href="#LucidaGrande-6d" transform="translate(746.533203 0)"/>
     <use xlink:href="#LucidaGrande-6f" transform="translate(839.892578 0)"/>
     <use xlink:href="#LucidaGrande-72" transform="translate(901.318359 0)"/>
     <use xlink:href="#LucidaGrande-74" transform="translate(942.236328 0)"/>
     <use xlink:href="#LucidaGrande-61" transform="translate(979.638672 0)"/>
     <use xlink:href="#LucidaGrande-6c" transform="translate(1034.863281 0)"/>
     <use xlink:href="#LucidaGrande-69" transform="translate(1063.769531 0)"/>
     <use xlink:href="#LucidaGrande-74" transform="translate(1092.675781 0)"/>
     <use xlink:href="#LucidaGrande-79" transform="translate(1130.078125 0)"/>
    </g>
   </g>
   <g id="text_11">
    <!-- Validation C-index -->
    <g style="fill: #767676" transform="translate(419.6 131.333375) scale(0.1 -0.1)">
     <defs>
      <path id="LucidaGrande-56" d="M 1859 0 
L 113 4625 
L 769 4625 
L 2200 838 
L 3581 4625 
L 4156 4625 
L 2478 0 
L 1859 0 
z
" transform="scale(0.015625)"/>
      <path id="LucidaGrande-2d" d="M 463 1619 
L 463 2081 
L 3238 2081 
L 3238 1619 
L 463 1619 
z
" transform="scale(0.015625)"/>
      <path id="LucidaGrande-78" d="M 275 0 
L 1566 1753 
L 313 3394 
L 1044 3394 
L 2034 2088 
L 2931 3394 
L 3531 3394 
L 2356 1672 
L 3634 0 
L 2903 0 
L 1881 1344 
L 894 0 
L 275 0 
z
" transform="scale(0.015625)"/>
     </defs>
     <use xlink:href="#LucidaGrande-56"/>
     <use xlink:href="#LucidaGrande-61" transform="translate(65.380859 0)"/>
     <use xlink:href="#LucidaGrande-6c" transform="translate(120.605469 0)"/>
     <use xlink:href="#LucidaGrande-69" transform="translate(149.511719 0)"/>
     <use xlink:href="#LucidaGrande-64" transform="translate(178.417969 0)"/>
     <use xlink:href="#LucidaGrande-61" transform="translate(241.357422 0)"/>
     <use xlink:href="#LucidaGrande-74" transform="translate(296.582031 0)"/>
     <use xlink:href="#LucidaGrande-69" transform="translate(333.984375 0)"/>
     <use xlink:href="#LucidaGrande-6f" transform="translate(362.890625 0)"/>
     <use xlink:href="#LucidaGrande-6e" transform="translate(424.316406 0)"/>
     <use xlink:href="#LucidaGrande-20" transform="translate(486.376953 0)"/>
     <use xlink:href="#LucidaGrande-43" transform="translate(518.017578 0)"/>
     <use xlink:href="#LucidaGrande-2d" transform="translate(587.207031 0)"/>
     <use xlink:href="#LucidaGrande-69" transform="translate(645.068359 0)"/>
     <use xlink:href="#LucidaGrande-6e" transform="translate(673.974609 0)"/>
     <use xlink:href="#LucidaGrande-64" transform="translate(736.035156 0)"/>
     <use xlink:href="#LucidaGrande-65" transform="translate(798.974609 0)"/>
     <use xlink:href="#LucidaGrande-78" transform="translate(854.6875 0)"/>
    </g>
   </g>
   <g id="text_12">
    <!-- 0.857 -->
    <g style="fill: #33b5a5" transform="translate(419.6 157.941031) scale(0.235 -0.235)">
     <defs>
      <path id="LucidaGrande-30" d="M 2006 -116 
Q 1291 -116 848 557 
Q 406 1231 406 2316 
Q 406 3409 851 4075 
Q 1297 4741 2025 4741 
Q 2753 4741 3198 4075 
Q 3644 3409 3644 2325 
Q 3644 1213 3198 548 
Q 2753 -116 2006 -116 
z
M 2013 347 
Q 2991 347 2991 2334 
Q 2991 4278 2025 4278 
Q 1063 4278 1063 2316 
Q 1063 347 2013 347 
z
" transform="scale(0.015625)"/>
      <path id="LucidaGrande-2e" d="M 625 0 
L 625 772 
L 1397 772 
L 1397 0 
L 625 0 
z
" transform="scale(0.015625)"/>
     </defs>
     <use xlink:href="#LucidaGrande-30"/>
     <use xlink:href="#LucidaGrande-2e" transform="translate(63.232422 0)"/>
     <use xlink:href="#LucidaGrande-38" transform="translate(94.873047 0)"/>
     <use xlink:href="#LucidaGrande-35" transform="translate(158.105469 0)"/>
     <use xlink:href="#LucidaGrande-37" transform="translate(221.337891 0)"/>
    </g>
   </g>
   <g id="text_13">
    <!-- locked split -->
    <g style="fill: #767676" transform="translate(419.6 182.27825) scale(0.088 -0.088)">
     <use xlink:href="#LucidaGrande-6c"/>
     <use xlink:href="#LucidaGrande-6f" transform="translate(28.90625 0)"/>
     <use xlink:href="#LucidaGrande-63" transform="translate(90.332031 0)"/>
     <use xlink:href="#LucidaGrande-6b" transform="translate(141.552734 0)"/>
     <use xlink:href="#LucidaGrande-65" transform="translate(200 0)"/>
     <use xlink:href="#LucidaGrande-64" transform="translate(255.712891 0)"/>
     <use xlink:href="#LucidaGrande-20" transform="translate(318.652344 0)"/>
     <use xlink:href="#LucidaGrande-73" transform="translate(350.292969 0)"/>
     <use xlink:href="#LucidaGrande-70" transform="translate(401.269531 0)"/>
     <use xlink:href="#LucidaGrande-6c" transform="translate(464.208984 0)"/>
     <use xlink:href="#LucidaGrande-69" transform="translate(493.115234 0)"/>
     <use xlink:href="#LucidaGrande-74" transform="translate(522.021484 0)"/>
    </g>
   </g>
   <g id="text_14">
    <!-- Internal validation -->
    <g style="fill: #767676" transform="translate(153.025 252.120625) scale(0.1 -0.1)">
     <defs>
      <path id="LucidaGrande-49" d="M 594 0 
L 594 4625 
L 1250 4625 
L 1250 0 
L 594 0 
z
" transform="scale(0.015625)"/>
     </defs>
     <use xlink:href="#LucidaGrande-49"/>
     <use xlink:href="#LucidaGrande-6e" transform="translate(28.808594 0)"/>
     <use xlink:href="#LucidaGrande-74" transform="translate(90.869141 0)"/>
     <use xlink:href="#LucidaGrande-65" transform="translate(128.271484 0)"/>
     <use xlink:href="#LucidaGrande-72" transform="translate(183.984375 0)"/>
     <use xlink:href="#LucidaGrande-6e" transform="translate(224.902344 0)"/>
     <use xlink:href="#LucidaGrande-61" transform="translate(286.962891 0)"/>
     <use xlink:href="#LucidaGrande-6c" transform="translate(342.1875 0)"/>
     <use xlink:href="#LucidaGrande-20" transform="translate(371.09375 0)"/>
     <use xlink:href="#LucidaGrande-76" transform="translate(402.734375 0)"/>
     <use xlink:href="#LucidaGrande-61" transform="translate(454.492188 0)"/>
     <use xlink:href="#LucidaGrande-6c" transform="translate(509.716797 0)"/>
     <use xlink:href="#LucidaGrande-69" transform="translate(538.623047 0)"/>
     <use xlink:href="#LucidaGrande-64" transform="translate(567.529297 0)"/>
     <use xlink:href="#LucidaGrande-61" transform="translate(630.46875 0)"/>
     <use xlink:href="#LucidaGrande-74" transform="translate(685.693359 0)"/>
     <use xlink:href="#LucidaGrande-69" transform="translate(723.095703 0)"/>
     <use xlink:href="#LucidaGrande-6f" transform="translate(752.001953 0)"/>
     <use xlink:href="#LucidaGrande-6e" transform="translate(813.427734 0)"/>
    </g>
   </g>
   <g id="text_15">
    <!-- Supportive endpoint -->
    <g style="fill: #767676" transform="translate(505.248437 252.120625) scale(0.1 -0.1)">
     <use xlink:href="#LucidaGrande-53"/>
     <use xlink:href="#LucidaGrande-75" transform="translate(53.857422 0)"/>
     <use xlink:href="#LucidaGrande-70" transform="translate(115.917969 0)"/>
     <use xlink:href="#LucidaGrande-70" transform="translate(178.857422 0)"/>
     <use xlink:href="#LucidaGrande-6f" transform="translate(241.796875 0)"/>
     <use xlink:href="#LucidaGrande-72" transform="translate(303.222656 0)"/>
     <use xlink:href="#LucidaGrande-74" transform="translate(344.140625 0)"/>
     <use xlink:href="#LucidaGrande-69" transform="translate(381.542969 0)"/>
     <use xlink:href="#LucidaGrande-76" transform="translate(410.449219 0)"/>
     <use xlink:href="#LucidaGrande-65" transform="translate(462.207031 0)"/>
     <use xlink:href="#LucidaGrande-20" transform="translate(517.919922 0)"/>
     <use xlink:href="#LucidaGrande-65" transform="translate(549.560547 0)"/>
     <use xlink:href="#LucidaGrande-6e" transform="translate(605.273438 0)"/>
     <use xlink:href="#LucidaGrande-64" transform="translate(667.333984 0)"/>
     <use xlink:href="#LucidaGrande-70" transform="translate(730.273438 0)"/>
     <use xlink:href="#LucidaGrande-6f" transform="translate(793.212891 0)"/>
     <use xlink:href="#LucidaGrande-69" transform="translate(854.638672 0)"/>
     <use xlink:href="#LucidaGrande-6e" transform="translate(883.544922 0)"/>
     <use xlink:href="#LucidaGrande-74" transform="translate(945.605469 0)"/>
    </g>
   </g>
  </g>
 </g>
 <defs>
  <clipPath id="p73089c022e">
   <rect x="0" y="0" width="1108.8" height="285.23"/>
  </clipPath>
 </defs>
</svg>
