<?xml version="1.0" encoding="utf-8" standalone="no"?>
<!DOCTYPE svg PUBLIC "-//W3C//DTD SVG 1.1//EN"
  "http://www.w3.org/Graphics/SVG/1.1/DTD/svg11.dtd">
<svg xmlns:xlink="http://www.w3.org/1999/xlink" width="950.4pt" height="604.8pt" viewBox="0 0 950.4 604.8" xmlns="http://www.w3.org/2000/svg" version="1.1">
 <metadata>
  <rdf:RDF xmlns:dc="http://purl.org/dc/elements/1.1/" xmlns:cc="http://creativecommons.org/ns#" xmlns:rdf="http://www.w3.org/1999/02/22-rdf-syntax-ns#">
   <cc:Work>
    <dc:type rdf:resource="http://purl.org/dc/dcmitype/StillImage"/>
    <dc:date>2026-06-18T23:24:52.218968</dc:date>
    <dc:format>image/svg+xml</dc:format>
    <dc:creator>
     <cc:Agent>
      <dc:title>Matplotlib v3.10.8, https://matplotlib.org/</dc:title>
     </cc:Agent>
    </dc:creator>
   </cc:Work>
  </rdf:RDF>
 </metadata>
 <defs>
  <style type="text/css">*{stroke-linejoin: round; stroke-linecap: butt}</style>
 </defs>
 <g id="figure_1">
  <g id="patch_1">
   <path d="M 0 604.8 
L 950.4 604.8 
L 950.4 0 
L 0 0 
z
" style="fill: #ffffff"/>
  </g>
  <g id="axes_1">
   <g id="patch_2">
    <path d="M 52 291.4 
L 442.2 291.4 
Q 460.2 291.4 460.2 273.4 
L 460.2 48 
Q 460.2 30 442.2 30 
L 52 30 
Q 34 30 34 48 
L 34 273.4 
Q 34 291.4 52 291.4 
z
" clip-path="url(#p295875a0f6)" style="fill: #dceaf7; stroke: #4d4d4d; stroke-width: 1.4; stroke-linejoin: miter"/>
   </g>
   <g id="patch_3">
    <path d="M 508.2 291.4 
L 898.4 291.4 
Q 916.4 291.4 916.4 273.4 
L 916.4 48 
Q 916.4 30 898.4 30 
L 508.2 30 
Q 490.2 30 490.2 48 
L 490.2 273.4 
Q 490.2 291.4 508.2 291.4 
z
" clip-path="url(#p295875a0f6)" style="fill: #ddf3f0; stroke: #4d4d4d; stroke-width: 1.4; stroke-linejoin: miter"/>
   </g>
   <g id="patch_4">
    <path d="M 52 578.8 
L 442.2 578.8 
Q 460.2 578.8 460.2 560.8 
L 460.2 335.4 
Q 460.2 317.4 442.2 317.4 
L 52 317.4 
Q 34 317.4 34 335.4 
L 34 560.8 
Q 34 578.8 52 578.8 
z
" clip-path="url(#p295875a0f6)" style="fill: #f2f5f7; stroke: #4d4d4d; stroke-width: 1.4; stroke-linejoin: miter"/>
   </g>
   <g id="patch_5">
    <path d="M 508.2 578.8 
L 898.4 578.8 
Q 916.4 578.8 916.4 560.8 
L 916.4 335.4 
Q 916.4 317.4 898.4 317.4 
L 508.2 317.4 
Q 490.2 317.4 490.2 335.4 
L 490.2 560.8 
Q 490.2 578.8 508.2 578.8 
z
" clip-path="url(#p295875a0f6)" style="fill: #f7ebeb; stroke: #4d4d4d; stroke-width: 1.4; stroke-linejoin: miter"/>
   </g>
   <g id="text_1">
    <!-- A -->
    <g style="fill: #0f4d92" transform="translate(52 56.788688) scale(0.114 -0.114)">
     <defs>
      <path id="LucidaGrande-41" d="M 2941 1769 
L 2153 3763 
L 1363 1769 
L 2941 1769 
z
M 3634 0 
L 3131 1281 
L 1172 1281 
L 663 0 
L 53 0 
L 1888 4625 
L 2538 4625 
L 4344 0 
L 3634 0 
z
" transform="scale(0.015625)"/>
     </defs>
     <use xlink:href="#LucidaGrande-41"/>
    </g>
   </g>
   <g id="text_2">
    <!-- Cohort and window -->
    <g style="fill: #0f4d92" transform="translate(74.26 56.788688) scale(0.114 -0.114)">
     <defs>
      <path id="LucidaGrande-43" d="M 2578 -116 
Q 1500 -116 912 517 
Q 325 1150 325 2309 
Q 325 3466 923 4103 
Q 1522 4741 2609 4741 
Q 3231 4741 4066 4538 
L 4066 3922 
Q 3116 4250 2600 4250 
Q 1847 4250 1434 3740 
Q 1022 3231 1022 2303 
Q 1022 1419 1462 908 
Q 1903 397 2666 397 
Q 3322 397 4072 800 
L 4072 238 
Q 3388 -116 2578 -116 
z
" transform="scale(0.015625)"/>
      <path id="LucidaGrande-6f" d="M 1944 -78 
Q 1216 -78 781 405 
Q 347 888 347 1697 
Q 347 2516 783 2992 
Q 1219 3469 1966 3469 
Q 2713 3469 3148 2992 
Q 3584 2516 3584 1703 
Q 3584 872 3146 397 
Q 2709 -78 1944 -78 
z
M 1953 384 
Q 2931 384 2931 1703 
Q 2931 3006 1966 3006 
Q 1003 3006 1003 1697 
Q 1003 384 1953 384 
z
" transform="scale(0.015625)"/>
      <path id="LucidaGrande-68" d="M 616 0 
L 616 4934 
L 1231 4934 
L 1231 2756 
Q 1719 3469 2425 3469 
Q 2866 3469 3128 3189 
Q 3391 2909 3391 2438 
L 3391 0 
L 2775 0 
L 2775 2238 
Q 2775 2616 2664 2777 
Q 2553 2938 2297 2938 
Q 1731 2938 1231 2197 
L 1231 0 
L 616 0 
z
" transform="scale(0.015625)"/>
      <path id="LucidaGrande-72" d="M 616 0 
L 616 3394 
L 1231 3394 
L 1231 2756 
Q 1597 3469 2294 3469 
Q 2388 3469 2491 3453 
L 2491 2878 
Q 2331 2931 2209 2931 
Q 1625 2931 1231 2238 
L 1231 0 
L 616 0 
z
" transform="scale(0.015625)"/>
      <path id="LucidaGrande-74" d="M 1634 -78 
Q 1166 -78 903 190 
Q 641 459 641 938 
L 641 2931 
L 216 2931 
L 216 3394 
L 641 3394 
L 641 4009 
L 1256 4069 
L 1256 3394 
L 2144 3394 
L 2144 2931 
L 1256 2931 
L 1256 1050 
Q 1256 384 1831 384 
Q 1953 384 2128 425 
L 2128 0 
Q 1844 -78 1634 -78 
z
" transform="scale(0.015625)"/>
      <path id="LucidaGrande-20" transform="scale(0.015625)"/>
      <path id="LucidaGrande-61" d="M 2366 431 
Q 1813 -78 1300 -78 
Q 878 -78 600 186 
Q 322 450 322 853 
Q 322 1409 789 1707 
Q 1256 2006 2128 2006 
L 2275 2006 
L 2275 2416 
Q 2275 3006 1669 3006 
Q 1181 3006 616 2706 
L 616 3216 
Q 1238 3469 1781 3469 
Q 2350 3469 2620 3212 
Q 2891 2956 2891 2416 
L 2891 878 
Q 2891 350 3216 350 
Q 3256 350 3334 363 
L 3378 22 
Q 3169 -78 2916 -78 
Q 2484 -78 2366 431 
z
M 2275 766 
L 2275 1644 
L 2069 1650 
Q 1563 1650 1250 1458 
Q 938 1266 938 953 
Q 938 731 1094 578 
Q 1250 425 1475 425 
Q 1859 425 2275 766 
z
" transform="scale(0.015625)"/>
      <path id="LucidaGrande-6e" d="M 616 0 
L 616 3394 
L 1231 3394 
L 1231 2756 
Q 1719 3469 2425 3469 
Q 2866 3469 3128 3189 
Q 3391 2909 3391 2438 
L 3391 0 
L 2775 0 
L 2775 2238 
Q 2775 2616 2664 2777 
Q 2553 2938 2297 2938 
Q 1731 2938 1231 2197 
L 1231 0 
L 616 0 
z
" transform="scale(0.015625)"/>
      <path id="LucidaGrande-64" d="M 2794 0 
L 2794 638 
Q 2419 -78 1663 -78 
Q 1050 -78 698 369 
Q 347 816 347 1591 
Q 347 2438 745 2953 
Q 1144 3469 1794 3469 
Q 2397 3469 2794 3006 
L 2794 4934 
L 3413 4934 
L 3413 0 
L 2794 0 
z
M 2794 2584 
Q 2316 3006 1888 3006 
Q 1003 3006 1003 1653 
Q 1003 463 1791 463 
Q 2303 463 2794 1022 
L 2794 2584 
z
" transform="scale(0.015625)"/>
      <path id="LucidaGrande-77" d="M 1009 0 
L 38 3394 
L 641 3394 
L 1384 766 
L 2188 3394 
L 2803 3394 
L 3506 766 
L 4359 3394 
L 4888 3394 
L 3781 0 
L 3163 0 
L 2444 2628 
L 1631 0 
L 1009 0 
z
" transform="scale(0.015625)"/>
      <path id="LucidaGrande-69" d="M 616 0 
L 616 3394 
L 1231 3394 
L 1231 0 
L 616 0 
z
M 616 4009 
L 616 4625 
L 1231 4625 
L 1231 4009 
L 616 4009 
z
" transform="scale(0.015625)"/>
     </defs>
     <use xlink:href="#LucidaGrande-43"/>
     <use xlink:href="#LucidaGrande-6f" transform="translate(69.189453 0)"/>
     <use xlink:href="#LucidaGrande-68" transform="translate(130.615234 0)"/>
     <use xlink:href="#LucidaGrande-6f" transform="translate(192.675781 0)"/>
     <use xlink:href="#LucidaGrande-72" transform="translate(254.101562 0)"/>
     <use xlink:href="#LucidaGrande-74" transform="translate(295.019531 0)"/>
     <use xlink:href="#LucidaGrande-20" transform="translate(332.421875 0)"/>
     <use xlink:href="#LucidaGrande-61" transform="translate(364.0625 0)"/>
     <use xlink:href="#LucidaGrande-6e" transform="translate(419.287109 0)"/>
     <use xlink:href="#LucidaGrande-64" transform="translate(481.347656 0)"/>
     <use xlink:href="#LucidaGrande-20" transform="translate(544.287109 0)"/>
     <use xlink:href="#LucidaGrande-77" transform="translate(575.927734 0)"/>
     <use xlink:href="#LucidaGrande-69" transform="translate(652.978516 0)"/>
     <use xlink:href="#LucidaGrande-6e" transform="translate(681.884766 0)"/>
     <use xlink:href="#LucidaGrande-64" transform="translate(743.945312 0)"/>
     <use xlink:href="#LucidaGrande-6f" transform="translate(806.884766 0)"/>
     <use xlink:href="#LucidaGrande-77" transform="translate(868.310547 0)"/>
    </g>
   </g>
   <g id="text_3">
    <!-- Cohort -->
    <g style="fill: #4d4d4d" transform="translate(52 85.537) scale(0.096 -0.096)">
     <use xlink:href="#LucidaGrande-43"/>
     <use xlink:href="#LucidaGrande-6f" transform="translate(69.189453 0)"/>
     <use xlink:href="#LucidaGrande-68" transform="translate(130.615234 0)"/>
     <use xlink:href="#LucidaGrande-6f" transform="translate(192.675781 0)"/>
     <use xlink:href="#LucidaGrande-72" transform="translate(254.101562 0)"/>
     <use xlink:href="#LucidaGrande-74" transform="translate(295.019531 0)"/>
    </g>
   </g>
   <g id="text_4">
    <!-- n = 409 -->
    <g style="fill: #4d4d4d" transform="translate(200.668 85.845375) scale(0.1 -0.1)">
     <defs>
      <path id="LucidaGrande-3d" d="M 694 1041 
L 694 1503 
L 4394 1503 
L 4394 1041 
L 694 1041 
z
M 694 2197 
L 694 2659 
L 4394 2659 
L 4394 2197 
L 694 2197 
z
" transform="scale(0.015625)"/>
      <path id="LucidaGrande-34" d="M 2409 0 
L 2409 1309 
L 328 1309 
L 328 1775 
L 2409 4625 
L 2988 4625 
L 2988 1813 
L 3606 1813 
L 3606 1309 
L 2988 1309 
L 2988 0 
L 2409 0 
z
M 931 1813 
L 2450 1813 
L 2450 3869 
L 931 1813 
z
" transform="scale(0.015625)"/>
      <path id="LucidaGrande-30" d="M 2006 -116 
Q 1291 -116 848 557 
Q 406 1231 406 2316 
Q 406 3409 851 4075 
Q 1297 4741 2025 4741 
Q 2753 4741 3198 4075 
Q 3644 3409 3644 2325 
Q 3644 1213 3198 548 
Q 2753 -116 2006 -116 
z
M 2013 347 
Q 2991 347 2991 2334 
Q 2991 4278 2025 4278 
Q 1063 4278 1063 2316 
Q 1063 347 2013 347 
z
" transform="scale(0.015625)"/>
      <path id="LucidaGrande-39" d="M 728 28 
L 728 550 
Q 1316 347 1728 347 
Q 2303 347 2626 836 
Q 2950 1325 2950 2197 
Q 2481 1619 1884 1619 
Q 1300 1619 894 2048 
Q 488 2478 488 3097 
Q 488 3806 920 4273 
Q 1353 4741 2009 4741 
Q 2763 4741 3197 4136 
Q 3631 3531 3631 2481 
Q 3631 1288 3101 586 
Q 2572 -116 1669 -116 
Q 1306 -116 728 28 
z
M 1103 3219 
Q 1103 2681 1342 2372 
Q 1581 2063 1997 2063 
Q 2388 2063 2664 2328 
Q 2941 2594 2941 2969 
Q 2941 3559 2673 3920 
Q 2406 4281 1972 4281 
Q 1569 4281 1336 3995 
Q 1103 3709 1103 3219 
z
" transform="scale(0.015625)"/>
     </defs>
     <use xlink:href="#LucidaGrande-6e"/>
     <use xlink:href="#LucidaGrande-20" transform="translate(62.060547 0)"/>
     <use xlink:href="#LucidaGrande-3d" transform="translate(93.701172 0)"/>
     <use xlink:href="#LucidaGrande-20" transform="translate(173.193359 0)"/>
     <use xlink:href="#LucidaGrande-34" transform="translate(204.833984 0)"/>
     <use xlink:href="#LucidaGrande-30" transform="translate(268.066406 0)"/>
     <use xlink:href="#LucidaGrande-39" transform="translate(331.298828 0)"/>
    </g>
   </g>
   <g id="text_5">
    <!-- Primary analysis cohort -->
    <g style="fill: #4d4d4d" transform="translate(200.668 102.166062) scale(0.086 -0.086)">
     <defs>
      <path id="LucidaGrande-50" d="M 597 0 
L 597 4625 
L 1856 4625 
Q 2694 4625 3059 4342 
Q 3425 4059 3425 3413 
Q 3425 2675 2925 2256 
Q 2425 1838 1538 1838 
L 1247 1838 
L 1247 0 
L 597 0 
z
M 1247 2334 
L 1513 2334 
Q 2097 2334 2415 2603 
Q 2734 2872 2734 3363 
Q 2734 3778 2484 3956 
Q 2234 4134 1650 4134 
L 1247 4134 
L 1247 2334 
z
" transform="scale(0.015625)"/>
      <path id="LucidaGrande-6d" d="M 616 0 
L 616 3394 
L 1231 3394 
L 1231 2756 
Q 1681 3469 2388 3469 
Q 3069 3469 3316 2756 
Q 3753 3472 4453 3472 
Q 4903 3472 5150 3208 
Q 5397 2944 5397 2469 
L 5397 0 
L 4778 0 
L 4778 2372 
Q 4778 2953 4319 2953 
Q 3841 2953 3316 2275 
L 3316 0 
L 2697 0 
L 2697 2372 
Q 2697 2956 2228 2956 
Q 1763 2956 1231 2275 
L 1231 0 
L 616 0 
z
" transform="scale(0.015625)"/>
      <path id="LucidaGrande-79" d="M 813 -1234 
L 1363 0 
L 50 3394 
L 716 3394 
L 1688 838 
L 2725 3394 
L 3306 3394 
L 1453 -1234 
L 813 -1234 
z
" transform="scale(0.015625)"/>
      <path id="LucidaGrande-6c" d="M 616 0 
L 616 4934 
L 1231 4934 
L 1231 0 
L 616 0 
z
" transform="scale(0.015625)"/>
      <path id="LucidaGrande-73" d="M 1516 -78 
Q 1094 -78 491 119 
L 491 684 
Q 1094 384 1541 384 
Q 1806 384 1981 528 
Q 2156 672 2156 888 
Q 2156 1203 1666 1409 
L 1306 1563 
Q 509 1894 509 2516 
Q 509 2959 823 3214 
Q 1138 3469 1684 3469 
Q 1969 3469 2388 3391 
L 2516 3366 
L 2516 2853 
Q 2000 3006 1697 3006 
Q 1103 3006 1103 2575 
Q 1103 2297 1553 2106 
L 1850 1981 
Q 2353 1769 2562 1533 
Q 2772 1297 2772 944 
Q 2772 497 2419 209 
Q 2066 -78 1516 -78 
z
" transform="scale(0.015625)"/>
      <path id="LucidaGrande-63" d="M 1941 -78 
Q 1253 -78 800 431 
Q 347 941 347 1716 
Q 347 2544 795 3006 
Q 1244 3469 2047 3469 
Q 2444 3469 2934 3359 
L 2934 2844 
Q 2413 2997 2084 2997 
Q 1613 2997 1327 2642 
Q 1041 2288 1041 1697 
Q 1041 1125 1334 772 
Q 1628 419 2103 419 
Q 2525 419 2972 634 
L 2972 103 
Q 2375 -78 1941 -78 
z
" transform="scale(0.015625)"/>
     </defs>
     <use xlink:href="#LucidaGrande-50"/>
     <use xlink:href="#LucidaGrande-72" transform="translate(55.273438 0)"/>
     <use xlink:href="#LucidaGrande-69" transform="translate(96.191406 0)"/>
     <use xlink:href="#LucidaGrande-6d" transform="translate(125.097656 0)"/>
     <use xlink:href="#LucidaGrande-61" transform="translate(218.457031 0)"/>
     <use xlink:href="#LucidaGrande-72" transform="translate(273.681641 0)"/>
     <use xlink:href="#LucidaGrande-79" transform="translate(314.599609 0)"/>
     <use xlink:href="#LucidaGrande-20" transform="translate(366.845703 0)"/>
     <use xlink:href="#LucidaGrande-61" transform="translate(398.486328 0)"/>
     <use xlink:href="#LucidaGrande-6e" transform="translate(453.710938 0)"/>
     <use xlink:href="#LucidaGrande-61" transform="translate(515.771484 0)"/>
     <use xlink:href="#LucidaGrande-6c" transform="translate(570.996094 0)"/>
     <use xlink:href="#LucidaGrande-79" transform="translate(599.902344 0)"/>
     <use xlink:href="#LucidaGrande-73" transform="translate(652.148438 0)"/>
     <use xlink:href="#LucidaGrande-69" transform="translate(703.125 0)"/>
     <use xlink:href="#LucidaGrande-73" transform="translate(732.03125 0)"/>
     <use xlink:href="#LucidaGrande-20" transform="translate(783.007812 0)"/>
     <use xlink:href="#LucidaGrande-63" transform="translate(814.648438 0)"/>
     <use xlink:href="#LucidaGrande-6f" transform="translate(865.869141 0)"/>
     <use xlink:href="#LucidaGrande-68" transform="translate(927.294922 0)"/>
     <use xlink:href="#LucidaGrande-6f" transform="translate(989.355469 0)"/>
     <use xlink:href="#LucidaGrande-72" transform="translate(1050.78125 0)"/>
     <use xlink:href="#LucidaGrande-74" transform="translate(1091.699219 0)"/>
    </g>
   </g>
   <g id="text_6">
    <!-- B -->
    <g style="fill: #33b5a5" transform="translate(508.2 56.788688) scale(0.114 -0.114)">
     <defs>
      <path id="LucidaGrande-42" d="M 597 0 
L 597 4625 
L 1797 4625 
Q 2491 4625 2861 4362 
Q 3231 4100 3231 3606 
Q 3231 2766 2281 2409 
Q 3416 2063 3416 1156 
Q 3416 594 3041 297 
Q 2666 0 1959 0 
L 597 0 
z
M 1247 491 
L 1381 491 
Q 2103 491 2316 581 
Q 2722 753 2722 1219 
Q 2722 1631 2353 1904 
Q 1984 2178 1431 2178 
L 1247 2178 
L 1247 491 
z
M 1247 2594 
L 1456 2594 
Q 1981 2594 2270 2819 
Q 2559 3044 2559 3453 
Q 2559 4134 1503 4134 
L 1247 4134 
L 1247 2594 
z
" transform="scale(0.015625)"/>
     </defs>
     <use xlink:href="#LucidaGrande-42"/>
    </g>
   </g>
   <g id="text_7">
    <!-- Endpoint and target -->
    <g style="fill: #0f4d92" transform="translate(530.46 56.788688) scale(0.114 -0.114)">
     <defs>
      <path id="LucidaGrande-45" d="M 597 0 
L 597 4625 
L 3181 4625 
L 3181 4134 
L 1253 4134 
L 1253 2650 
L 2869 2650 
L 2869 2166 
L 1253 2166 
L 1253 491 
L 3316 491 
L 3316 0 
L 597 0 
z
" transform="scale(0.015625)"/>
      <path id="LucidaGrande-70" d="M 616 -1234 
L 616 3394 
L 1231 3394 
L 1231 2756 
Q 1609 3469 2366 3469 
Q 2978 3469 3329 3022 
Q 3681 2575 3681 1800 
Q 3681 956 3282 439 
Q 2884 -78 2234 -78 
Q 1631 -78 1231 384 
L 1231 -1234 
L 616 -1234 
z
M 1231 809 
Q 1706 384 2138 384 
Q 3025 384 3025 1738 
Q 3025 2931 2238 2931 
Q 1722 2931 1231 2372 
L 1231 809 
z
" transform="scale(0.015625)"/>
      <path id="LucidaGrande-67" d="M 628 -1128 
L 700 -594 
Q 1234 -847 1753 -847 
Q 2794 -847 2794 256 
L 2794 791 
Q 2453 78 1675 78 
Q 1066 78 706 522 
Q 347 966 347 1719 
Q 347 2494 756 2981 
Q 1166 3469 1816 3469 
Q 2384 3469 2794 3006 
L 2794 3394 
L 3413 3394 
L 3413 925 
Q 3413 128 3330 -255 
Q 3247 -638 3019 -881 
Q 2616 -1309 1766 -1309 
Q 1172 -1309 628 -1128 
z
M 2794 1175 
L 2794 2584 
Q 2388 3006 1909 3006 
Q 1484 3006 1243 2665 
Q 1003 2325 1003 1731 
Q 1003 616 1788 616 
Q 2322 616 2794 1175 
z
" transform="scale(0.015625)"/>
      <path id="LucidaGrande-65" d="M 3103 109 
Q 2484 -78 2044 -78 
Q 1294 -78 820 420 
Q 347 919 347 1713 
Q 347 2484 764 2978 
Q 1181 3472 1831 3472 
Q 2447 3472 2783 3034 
Q 3119 2597 3119 1791 
L 3116 1600 
L 975 1600 
Q 1109 391 2159 391 
Q 2544 391 3103 597 
L 3103 109 
z
M 1003 2063 
L 2500 2063 
Q 2500 3009 1794 3009 
Q 1084 3009 1003 2063 
z
" transform="scale(0.015625)"/>
     </defs>
     <use xlink:href="#LucidaGrande-45"/>
     <use xlink:href="#LucidaGrande-6e" transform="translate(54.199219 0)"/>
     <use xlink:href="#LucidaGrande-64" transform="translate(116.259766 0)"/>
     <use xlink:href="#LucidaGrande-70" transform="translate(179.199219 0)"/>
     <use xlink:href="#LucidaGrande-6f" transform="translate(242.138672 0)"/>
     <use xlink:href="#LucidaGrande-69" transform="translate(303.564453 0)"/>
     <use xlink:href="#LucidaGrande-6e" transform="translate(332.470703 0)"/>
     <use xlink:href="#LucidaGrande-74" transform="translate(394.53125 0)"/>
     <use xlink:href="#LucidaGrande-20" transform="translate(431.933594 0)"/>
     <use xlink:href="#LucidaGrande-61" transform="translate(463.574219 0)"/>
     <use xlink:href="#LucidaGrande-6e" transform="translate(518.798828 0)"/>
     <use xlink:href="#LucidaGrande-64" transform="translate(580.859375 0)"/>
     <use xlink:href="#LucidaGrande-20" transform="translate(643.798828 0)"/>
     <use xlink:href="#LucidaGrande-74" transform="translate(675.439453 0)"/>
     <use xlink:href="#LucidaGrande-61" transform="translate(712.841797 0)"/>
     <use xlink:href="#LucidaGrande-72" transform="translate(768.066406 0)"/>
     <use xlink:href="#LucidaGrande-67" transform="translate(808.984375 0)"/>
     <use xlink:href="#LucidaGrande-65" transform="translate(871.337891 0)"/>
     <use xlink:href="#LucidaGrande-74" transform="translate(927.050781 0)"/>
    </g>
   </g>
   <g id="text_8">
    <!-- Target -->
    <g style="fill: #4d4d4d" transform="translate(508.2 85.4245) scale(0.096 -0.096)">
     <defs>
      <path id="LucidaGrande-54" d="M 1697 0 
L 1697 4134 
L 56 4134 
L 56 4625 
L 3994 4625 
L 3994 4134 
L 2353 4134 
L 2353 0 
L 1697 0 
z
" transform="scale(0.015625)"/>
     </defs>
     <use xlink:href="#LucidaGrande-54"/>
     <use xlink:href="#LucidaGrande-61" transform="translate(63.232422 0)"/>
     <use xlink:href="#LucidaGrande-72" transform="translate(118.457031 0)"/>
     <use xlink:href="#LucidaGrande-67" transform="translate(159.375 0)"/>
     <use xlink:href="#LucidaGrande-65" transform="translate(221.728516 0)"/>
     <use xlink:href="#LucidaGrande-74" transform="translate(277.441406 0)"/>
    </g>
   </g>
   <g id="text_9">
    <!-- Early residual / non-GTR -->
    <g style="fill: #4d4d4d" transform="translate(656.868 85.845375) scale(0.1 -0.1)">
     <defs>
      <path id="LucidaGrande-75" d="M 2738 0 
L 2738 638 
Q 2247 -78 1547 -78 
Q 1103 -78 840 201 
Q 578 481 578 956 
L 578 3394 
L 1194 3394 
L 1194 1156 
Q 1194 775 1305 614 
Q 1416 453 1675 453 
Q 2238 453 2738 1194 
L 2738 3394 
L 3353 3394 
L 3353 0 
L 2738 0 
z
" transform="scale(0.015625)"/>
      <path id="LucidaGrande-2f" d="M 603 -925 
L 2269 4625 
L 2753 4625 
L 1088 -925 
L 603 -925 
z
" transform="scale(0.015625)"/>
      <path id="LucidaGrande-2d" d="M 463 1619 
L 463 2081 
L 3238 2081 
L 3238 1619 
L 463 1619 
z
" transform="scale(0.015625)"/>
      <path id="LucidaGrande-47" d="M 4072 125 
Q 3231 -116 2606 -116 
Q 1503 -116 914 512 
Q 325 1141 325 2313 
Q 325 3463 922 4102 
Q 1519 4741 2597 4741 
Q 3303 4741 4066 4531 
L 4066 3925 
Q 3109 4250 2600 4250 
Q 1850 4250 1436 3740 
Q 1022 3231 1022 2306 
Q 1022 1391 1465 883 
Q 1909 375 2709 375 
Q 3038 375 3419 491 
L 3419 1997 
L 4072 1997 
L 4072 125 
z
" transform="scale(0.015625)"/>
      <path id="LucidaGrande-52" d="M 597 0 
L 597 4625 
L 1997 4625 
Q 2663 4625 3017 4331 
Q 3372 4038 3372 3478 
Q 3372 2553 2438 2166 
L 3981 0 
L 3175 0 
L 1859 1956 
L 1247 1956 
L 1247 0 
L 597 0 
z
M 1247 2447 
L 1459 2447 
Q 2697 2447 2697 3419 
Q 2697 4134 1659 4134 
L 1247 4134 
L 1247 2447 
z
" transform="scale(0.015625)"/>
     </defs>
     <use xlink:href="#LucidaGrande-45"/>
     <use xlink:href="#LucidaGrande-61" transform="translate(54.199219 0)"/>
     <use xlink:href="#LucidaGrande-72" transform="translate(109.423828 0)"/>
     <use xlink:href="#LucidaGrande-6c" transform="translate(150.341797 0)"/>
     <use xlink:href="#LucidaGrande-79" transform="translate(179.248047 0)"/>
     <use xlink:href="#LucidaGrande-20" transform="translate(231.494141 0)"/>
     <use xlink:href="#LucidaGrande-72" transform="translate(263.134766 0)"/>
     <use xlink:href="#LucidaGrande-65" transform="translate(304.052734 0)"/>
     <use xlink:href="#LucidaGrande-73" transform="translate(359.765625 0)"/>
     <use xlink:href="#LucidaGrande-69" transform="translate(410.742188 0)"/>
     <use xlink:href="#LucidaGrande-64" transform="translate(439.648438 0)"/>
     <use xlink:href="#LucidaGrande-75" transform="translate(502.587891 0)"/>
     <use xlink:href="#LucidaGrande-61" transform="translate(564.648438 0)"/>
     <use xlink:href="#LucidaGrande-6c" transform="translate(619.873047 0)"/>
     <use xlink:href="#LucidaGrande-20" transform="translate(648.779297 0)"/>
     <use xlink:href="#LucidaGrande-2f" transform="translate(680.419922 0)"/>
     <use xlink:href="#LucidaGrande-20" transform="translate(732.861328 0)"/>
     <use xlink:href="#LucidaGrande-6e" transform="translate(764.501953 0)"/>
     <use xlink:href="#LucidaGrande-6f" transform="translate(826.5625 0)"/>
     <use xlink:href="#LucidaGrande-6e" transform="translate(887.988281 0)"/>
     <use xlink:href="#LucidaGrande-2d" transform="translate(950.048828 0)"/>
     <use xlink:href="#LucidaGrande-47" transform="translate(1007.910156 0)"/>
     <use xlink:href="#LucidaGrande-54" transform="translate(1080.175781 0)"/>
     <use xlink:href="#LucidaGrande-52" transform="translate(1143.408203 0)"/>
    </g>
   </g>
   <g id="text_10">
    <!-- Formal audited endpoint -->
    <g style="fill: #4d4d4d" transform="translate(656.868 102.166062) scale(0.086 -0.086)">
     <defs>
      <path id="LucidaGrande-46" d="M 597 0 
L 597 4625 
L 3181 4625 
L 3181 4134 
L 1253 4134 
L 1253 2584 
L 2872 2584 
L 2872 2100 
L 1253 2100 
L 1253 0 
L 597 0 
z
" transform="scale(0.015625)"/>
     </defs>
     <use xlink:href="#LucidaGrande-46"/>
     <use xlink:href="#LucidaGrande-6f" transform="translate(53.613281 0)"/>
     <use xlink:href="#LucidaGrande-72" transform="translate(115.039062 0)"/>
     <use xlink:href="#LucidaGrande-6d" transform="translate(155.957031 0)"/>
     <use xlink:href="#LucidaGrande-61" transform="translate(249.316406 0)"/>
     <use xlink:href="#LucidaGrande-6c" transform="translate(304.541016 0)"/>
     <use xlink:href="#LucidaGrande-20" transform="translate(333.447266 0)"/>
     <use xlink:href="#LucidaGrande-61" transform="translate(365.087891 0)"/>
     <use xlink:href="#LucidaGrande-75" transform="translate(420.3125 0)"/>
     <use xlink:href="#LucidaGrande-64" transform="translate(482.373047 0)"/>
     <use xlink:href="#LucidaGrande-69" transform="translate(545.3125 0)"/>
     <use xlink:href="#LucidaGrande-74" transform="translate(574.21875 0)"/>
     <use xlink:href="#LucidaGrande-65" transform="translate(611.621094 0)"/>
     <use xlink:href="#LucidaGrande-64" transform="translate(667.333984 0)"/>
     <use xlink:href="#LucidaGrande-20" transform="translate(730.273438 0)"/>
     <use xlink:href="#LucidaGrande-65" transform="translate(761.914062 0)"/>
     <use xlink:href="#LucidaGrande-6e" transform="translate(817.626953 0)"/>
     <use xlink:href="#LucidaGrande-64" transform="translate(879.6875 0)"/>
     <use xlink:href="#LucidaGrande-70" transform="translate(942.626953 0)"/>
     <use xlink:href="#LucidaGrande-6f" transform="translate(1005.566406 0)"/>
     <use xlink:href="#LucidaGrande-69" transform="translate(1066.992188 0)"/>
     <use xlink:href="#LucidaGrande-6e" transform="translate(1095.898438 0)"/>
     <use xlink:href="#LucidaGrande-74" transform="translate(1157.958984 0)"/>
    </g>
   </g>
   <g id="text_11">
    <!-- C -->
    <g style="fill: #4d4d4d" transform="translate(52 344.188688) scale(0.114 -0.114)">
     <use xlink:href="#LucidaGrande-43"/>
    </g>
   </g>
   <g id="text_12">
    <!-- Model workflow -->
    <g style="fill: #0f4d92" transform="translate(74.26 344.188688) scale(0.114 -0.114)">
     <defs>
      <path id="LucidaGrande-4d" d="M 597 0 
L 597 4625 
L 1506 4625 
L 2788 1047 
L 4106 4625 
L 4919 4625 
L 4919 0 
L 4306 0 
L 4306 3763 
L 3031 309 
L 2397 309 
L 1159 3772 
L 1159 0 
L 597 0 
z
" transform="scale(0.015625)"/>
      <path id="LucidaGrande-6b" d="M 616 0 
L 616 4934 
L 1231 4934 
L 1231 1747 
L 2669 3394 
L 3331 3394 
L 1959 1809 
L 3616 0 
L 2828 0 
L 1231 1741 
L 1231 0 
L 616 0 
z
" transform="scale(0.015625)"/>
      <path id="LucidaGrande-66" d="M 1350 2931 
L 1350 0 
L 731 0 
L 731 2931 
L 250 2931 
L 250 3394 
L 731 3394 
L 731 3800 
Q 731 5013 1838 5013 
Q 2147 5013 2541 4909 
L 2541 4422 
Q 2125 4550 1875 4550 
Q 1572 4550 1461 4404 
Q 1350 4259 1350 3866 
L 1350 3394 
L 2197 3394 
L 2197 2931 
L 1350 2931 
z
" transform="scale(0.015625)"/>
     </defs>
     <use xlink:href="#LucidaGrande-4d"/>
     <use xlink:href="#LucidaGrande-6f" transform="translate(86.132812 0)"/>
     <use xlink:href="#LucidaGrande-64" transform="translate(147.558594 0)"/>
     <use xlink:href="#LucidaGrande-65" transform="translate(210.498047 0)"/>
     <use xlink:href="#LucidaGrande-6c" transform="translate(266.210938 0)"/>
     <use xlink:href="#LucidaGrande-20" transform="translate(295.117188 0)"/>
     <use xlink:href="#LucidaGrande-77" transform="translate(326.757812 0)"/>
     <use xlink:href="#LucidaGrande-6f" transform="translate(403.808594 0)"/>
     <use xlink:href="#LucidaGrande-72" transform="translate(465.234375 0)"/>
     <use xlink:href="#LucidaGrande-6b" transform="translate(506.152344 0)"/>
     <use xlink:href="#LucidaGrande-66" transform="translate(564.599609 0)"/>
     <use xlink:href="#LucidaGrande-6c" transform="translate(601.367188 0)"/>
     <use xlink:href="#LucidaGrande-6f" transform="translate(630.273438 0)"/>
     <use xlink:href="#LucidaGrande-77" transform="translate(691.699219 0)"/>
    </g>
   </g>
   <g id="text_13">
    <!-- Model family -->
    <g style="fill: #4d4d4d" transform="translate(52 373.0555) scale(0.096 -0.096)">
     <use xlink:href="#LucidaGrande-4d"/>
     <use xlink:href="#LucidaGrande-6f" transform="translate(86.132812 0)"/>
     <use xlink:href="#LucidaGrande-64" transform="translate(147.558594 0)"/>
     <use xlink:href="#LucidaGrande-65" transform="translate(210.498047 0)"/>
     <use xlink:href="#LucidaGrande-6c" transform="translate(266.210938 0)"/>
     <use xlink:href="#LucidaGrande-20" transform="translate(295.117188 0)"/>
     <use xlink:href="#LucidaGrande-66" transform="translate(326.757812 0)"/>
     <use xlink:href="#LucidaGrande-61" transform="translate(363.525391 0)"/>
     <use xlink:href="#LucidaGrande-6d" transform="translate(418.75 0)"/>
     <use xlink:href="#LucidaGrande-69" transform="translate(512.109375 0)"/>
     <use xlink:href="#LucidaGrande-6c" transform="translate(541.015625 0)"/>
     <use xlink:href="#LucidaGrande-79" transform="translate(569.921875 0)"/>
    </g>
   </g>
   <g id="text_14">
    <!-- Gradient boosting -->
    <g style="fill: #4d4d4d" transform="translate(200.668 373.245375) scale(0.1 -0.1)">
     <defs>
      <path id="LucidaGrande-62" d="M 616 -38 
L 616 4934 
L 1231 4934 
L 1231 2756 
Q 1609 3469 2366 3469 
Q 2978 3469 3329 3022 
Q 3681 2575 3681 1800 
Q 3681 956 3282 439 
Q 2884 -78 2234 -78 
Q 1631 -78 1231 384 
L 1156 -38 
L 616 -38 
z
M 1231 809 
Q 1706 384 2138 384 
Q 3025 384 3025 1738 
Q 3025 2931 2238 2931 
Q 1722 2931 1231 2372 
L 1231 809 
z
" transform="scale(0.015625)"/>
     </defs>
     <use xlink:href="#LucidaGrande-47"/>
     <use xlink:href="#LucidaGrande-72" transform="translate(72.265625 0)"/>
     <use xlink:href="#LucidaGrande-61" transform="translate(113.183594 0)"/>
     <use xlink:href="#LucidaGrande-64" transform="translate(168.408203 0)"/>
     <use xlink:href="#LucidaGrande-69" transform="translate(231.347656 0)"/>
     <use xlink:href="#LucidaGrande-65" transform="translate(260.253906 0)"/>
     <use xlink:href="#LucidaGrande-6e" transform="translate(315.966797 0)"/>
     <use xlink:href="#LucidaGrande-74" transform="translate(378.027344 0)"/>
     <use xlink:href="#LucidaGrande-20" transform="translate(415.429688 0)"/>
     <use xlink:href="#LucidaGrande-62" transform="translate(447.070312 0)"/>
     <use xlink:href="#LucidaGrande-6f" transform="translate(510.009766 0)"/>
     <use xlink:href="#LucidaGrande-6f" transform="translate(571.435547 0)"/>
     <use xlink:href="#LucidaGrande-73" transform="translate(632.861328 0)"/>
     <use xlink:href="#LucidaGrande-74" transform="translate(683.837891 0)"/>
     <use xlink:href="#LucidaGrande-69" transform="translate(721.240234 0)"/>
     <use xlink:href="#LucidaGrande-6e" transform="translate(750.146484 0)"/>
     <use xlink:href="#LucidaGrande-67" transform="translate(812.207031 0)"/>
    </g>
   </g>
   <g id="text_15">
    <!-- Structured preoperative model -->
    <g style="fill: #4d4d4d" transform="translate(200.668 389.566063) scale(0.086 -0.086)">
     <defs>
      <path id="LucidaGrande-53" d="M 1503 -116 
Q 1038 -116 313 88 
L 313 738 
Q 1094 375 1597 375 
Q 1984 375 2220 578 
Q 2456 781 2456 1113 
Q 2456 1384 2301 1575 
Q 2147 1766 1731 2000 
L 1413 2184 
Q 822 2522 580 2820 
Q 338 3119 338 3516 
Q 338 4050 725 4395 
Q 1113 4741 1713 4741 
Q 2247 4741 2841 4563 
L 2841 3963 
Q 2109 4250 1750 4250 
Q 1409 4250 1187 4069 
Q 966 3888 966 3613 
Q 966 3381 1128 3203 
Q 1291 3025 1722 2778 
L 2053 2591 
Q 2653 2250 2890 1947 
Q 3128 1644 3128 1219 
Q 3128 616 2683 250 
Q 2238 -116 1503 -116 
z
" transform="scale(0.015625)"/>
      <path id="LucidaGrande-76" d="M 1319 0 
L 56 3394 
L 672 3394 
L 1659 753 
L 2700 3394 
L 3275 3394 
L 1934 0 
L 1319 0 
z
" transform="scale(0.015625)"/>
     </defs>
     <use xlink:href="#LucidaGrande-53"/>
     <use xlink:href="#LucidaGrande-74" transform="translate(53.857422 0)"/>
     <use xlink:href="#LucidaGrande-72" transform="translate(91.259766 0)"/>
     <use xlink:href="#LucidaGrande-75" transform="translate(132.177734 0)"/>
     <use xlink:href="#LucidaGrande-63" transform="translate(194.238281 0)"/>
     <use xlink:href="#LucidaGrande-74" transform="translate(245.458984 0)"/>
     <use xlink:href="#LucidaGrande-75" transform="translate(282.861328 0)"/>
     <use xlink:href="#LucidaGrande-72" transform="translate(344.921875 0)"/>
     <use xlink:href="#LucidaGrande-65" transform="translate(385.839844 0)"/>
     <use xlink:href="#LucidaGrande-64" transform="translate(441.552734 0)"/>
     <use xlink:href="#LucidaGrande-20" transform="translate(504.492188 0)"/>
     <use xlink:href="#LucidaGrande-70" transform="translate(536.132812 0)"/>
     <use xlink:href="#LucidaGrande-72" transform="translate(599.072266 0)"/>
     <use xlink:href="#LucidaGrande-65" transform="translate(639.990234 0)"/>
     <use xlink:href="#LucidaGrande-6f" transform="translate(695.703125 0)"/>
     <use xlink:href="#LucidaGrande-70" transform="translate(757.128906 0)"/>
     <use xlink:href="#LucidaGrande-65" transform="translate(820.068359 0)"/>
     <use xlink:href="#LucidaGrande-72" transform="translate(875.78125 0)"/>
     <use xlink:href="#LucidaGrande-61" transform="translate(916.699219 0)"/>
     <use xlink:href="#LucidaGrande-74" transform="translate(971.923828 0)"/>
     <use xlink:href="#LucidaGrande-69" transform="translate(1009.326172 0)"/>
     <use xlink:href="#LucidaGrande-76" transform="translate(1038.232422 0)"/>
     <use xlink:href="#LucidaGrande-65" transform="translate(1089.990234 0)"/>
     <use xlink:href="#LucidaGrande-20" transform="translate(1145.703125 0)"/>
     <use xlink:href="#LucidaGrande-6d" transform="translate(1177.34375 0)"/>
     <use xlink:href="#LucidaGrande-6f" transform="translate(1270.703125 0)"/>
     <use xlink:href="#LucidaGrande-64" transform="translate(1332.128906 0)"/>
     <use xlink:href="#LucidaGrande-65" transform="translate(1395.068359 0)"/>
     <use xlink:href="#LucidaGrande-6c" transform="translate(1450.78125 0)"/>
    </g>
   </g>
   <g id="text_16">
    <!-- D -->
    <g style="fill: #8b3a3a" transform="translate(508.2 344.188688) scale(0.114 -0.114)">
     <defs>
      <path id="LucidaGrande-44" d="M 597 0 
L 597 4625 
L 2134 4625 
Q 2822 4625 3245 4472 
Q 3669 4319 3978 3953 
Q 4469 3372 4469 2422 
Q 4469 1269 3859 634 
Q 3250 0 2144 0 
L 597 0 
z
M 1253 491 
L 2094 491 
Q 2994 491 3369 975 
Q 3772 1491 3772 2359 
Q 3772 3175 3375 3641 
Q 3134 3925 2800 4029 
Q 2466 4134 1794 4134 
L 1253 4134 
L 1253 491 
z
" transform="scale(0.015625)"/>
     </defs>
     <use xlink:href="#LucidaGrande-44"/>
    </g>
   </g>
   <g id="text_17">
    <!-- Validation and boundary -->
    <g style="fill: #0f4d92" transform="translate(530.46 344.188688) scale(0.114 -0.114)">
     <defs>
      <path id="LucidaGrande-56" d="M 1859 0 
L 113 4625 
L 769 4625 
L 2200 838 
L 3581 4625 
L 4156 4625 
L 2478 0 
L 1859 0 
z
" transform="scale(0.015625)"/>
     </defs>
     <use xlink:href="#LucidaGrande-56"/>
     <use xlink:href="#LucidaGrande-61" transform="translate(65.380859 0)"/>
     <use xlink:href="#LucidaGrande-6c" transform="translate(120.605469 0)"/>
     <use xlink:href="#LucidaGrande-69" transform="translate(149.511719 0)"/>
     <use xlink:href="#LucidaGrande-64" transform="translate(178.417969 0)"/>
     <use xlink:href="#LucidaGrande-61" transform="translate(241.357422 0)"/>
     <use xlink:href="#LucidaGrande-74" transform="translate(296.582031 0)"/>
     <use xlink:href="#LucidaGrande-69" transform="translate(333.984375 0)"/>
     <use xlink:href="#LucidaGrande-6f" transform="translate(362.890625 0)"/>
     <use xlink:href="#LucidaGrande-6e" transform="translate(424.316406 0)"/>
     <use xlink:href="#LucidaGrande-20" transform="translate(486.376953 0)"/>
     <use xlink:href="#LucidaGrande-61" transform="translate(518.017578 0)"/>
     <use xlink:href="#LucidaGrande-6e" transform="translate(573.242188 0)"/>
     <use xlink:href="#LucidaGrande-64" transform="translate(635.302734 0)"/>
     <use xlink:href="#LucidaGrande-20" transform="translate(698.242188 0)"/>
     <use xlink:href="#LucidaGrande-62" transform="translate(729.882812 0)"/>
     <use xlink:href="#LucidaGrande-6f" transform="translate(792.822266 0)"/>
     <use xlink:href="#LucidaGrande-75" transform="translate(854.248047 0)"/>
     <use xlink:href="#LucidaGrande-6e" transform="translate(916.308594 0)"/>
     <use xlink:href="#LucidaGrande-64" transform="translate(978.369141 0)"/>
     <use xlink:href="#LucidaGrande-61" transform="translate(1041.308594 0)"/>
     <use xlink:href="#LucidaGrande-72" transform="translate(1096.533203 0)"/>
     <use xlink:href="#LucidaGrande-79" transform="translate(1137.451172 0)"/>
    </g>
   </g>
   <g id="text_18">
    <!-- Validation -->
    <g style="fill: #4d4d4d" transform="translate(508.2 372.937) scale(0.096 -0.096)">
     <use xlink:href="#LucidaGrande-56"/>
     <use xlink:href="#LucidaGrande-61" transform="translate(65.380859 0)"/>
     <use xlink:href="#LucidaGrande-6c" transform="translate(120.605469 0)"/>
     <use xlink:href="#LucidaGrande-69" transform="translate(149.511719 0)"/>
     <use xlink:href="#LucidaGrande-64" transform="translate(178.417969 0)"/>
     <use xlink:href="#LucidaGrande-61" transform="translate(241.357422 0)"/>
     <use xlink:href="#LucidaGrande-74" transform="translate(296.582031 0)"/>
     <use xlink:href="#LucidaGrande-69" transform="translate(333.984375 0)"/>
     <use xlink:href="#LucidaGrande-6f" transform="translate(362.890625 0)"/>
     <use xlink:href="#LucidaGrande-6e" transform="translate(424.316406 0)"/>
    </g>
   </g>
   <g id="text_19">
    <!-- Repeated nested CV -->
    <g style="fill: #4d4d4d" transform="translate(656.868 373.245375) scale(0.1 -0.1)">
     <use xlink:href="#LucidaGrande-52"/>
     <use xlink:href="#LucidaGrande-65" transform="translate(63.232422 0)"/>
     <use xlink:href="#LucidaGrande-70" transform="translate(118.945312 0)"/>
     <use xlink:href="#LucidaGrande-65" transform="translate(181.884766 0)"/>
     <use xlink:href="#LucidaGrande-61" transform="translate(237.597656 0)"/>
     <use xlink:href="#LucidaGrande-74" transform="translate(292.822266 0)"/>
     <use xlink:href="#LucidaGrande-65" transform="translate(330.224609 0)"/>
     <use xlink:href="#LucidaGrande-64" transform="translate(385.9375 0)"/>
     <use xlink:href="#LucidaGrande-20" transform="translate(448.876953 0)"/>
     <use xlink:href="#LucidaGrande-6e" transform="translate(480.517578 0)"/>
     <use xlink:href="#LucidaGrande-65" transform="translate(542.578125 0)"/>
     <use xlink:href="#LucidaGrande-73" transform="translate(598.291016 0)"/>
     <use xlink:href="#LucidaGrande-74" transform="translate(649.267578 0)"/>
     <use xlink:href="#LucidaGrande-65" transform="translate(686.669922 0)"/>
     <use xlink:href="#LucidaGrande-64" transform="translate(742.382812 0)"/>
     <use xlink:href="#LucidaGrande-20" transform="translate(805.322266 0)"/>
     <use xlink:href="#LucidaGrande-43" transform="translate(836.962891 0)"/>
     <use xlink:href="#LucidaGrande-56" transform="translate(906.152344 0)"/>
    </g>
   </g>
   <g id="text_20">
    <!-- 5 outer folds x 20 repeats -->
    <g style="fill: #4d4d4d" transform="translate(656.868 389.672219) scale(0.086 -0.086)">
     <defs>
      <path id="LucidaGrande-35" d="M 778 -19 
L 778 531 
Q 1238 347 1653 347 
Q 2109 347 2370 615 
Q 2631 884 2631 1356 
Q 2631 2397 1197 2397 
Q 1034 2397 856 2375 
L 856 4625 
L 3197 4625 
L 3197 4088 
L 1397 4088 
L 1397 2869 
Q 2288 2869 2788 2459 
Q 3288 2050 3288 1325 
Q 3288 650 2833 267 
Q 2378 -116 1572 -116 
Q 1222 -116 778 -19 
z
" transform="scale(0.015625)"/>
      <path id="LucidaGrande-78" d="M 275 0 
L 1566 1753 
L 313 3394 
L 1044 3394 
L 2034 2088 
L 2931 3394 
L 3531 3394 
L 2356 1672 
L 3634 0 
L 2903 0 
L 1881 1344 
L 894 0 
L 275 0 
z
" transform="scale(0.015625)"/>
      <path id="LucidaGrande-32" d="M 531 0 
L 531 541 
Q 800 1169 1619 1909 
L 1972 2225 
Q 2653 2841 2653 3447 
Q 2653 3834 2420 4056 
Q 2188 4278 1781 4278 
Q 1300 4278 647 3906 
L 647 4450 
Q 1263 4741 1869 4741 
Q 2519 4741 2912 4391 
Q 3306 4041 3306 3463 
Q 3306 3047 3107 2725 
Q 2909 2403 2369 1944 
L 2131 1741 
Q 1391 1113 1275 541 
L 3284 541 
L 3284 0 
L 531 0 
z
" transform="scale(0.015625)"/>
     </defs>
     <use xlink:href="#LucidaGrande-35"/>
     <use xlink:href="#LucidaGrande-20" transform="translate(63.232422 0)"/>
     <use xlink:href="#LucidaGrande-6f" transform="translate(94.873047 0)"/>
     <use xlink:href="#LucidaGrande-75" transform="translate(156.298828 0)"/>
     <use xlink:href="#LucidaGrande-74" transform="translate(218.359375 0)"/>
     <use xlink:href="#LucidaGrande-65" transform="translate(255.761719 0)"/>
     <use xlink:href="#LucidaGrande-72" transform="translate(311.474609 0)"/>
     <use xlink:href="#LucidaGrande-20" transform="translate(352.392578 0)"/>
     <use xlink:href="#LucidaGrande-66" transform="translate(384.033203 0)"/>
     <use xlink:href="#LucidaGrande-6f" transform="translate(420.800781 0)"/>
     <use xlink:href="#LucidaGrande-6c" transform="translate(482.226562 0)"/>
     <use xlink:href="#LucidaGrande-64" transform="translate(511.132812 0)"/>
     <use xlink:href="#LucidaGrande-73" transform="translate(574.072266 0)"/>
     <use xlink:href="#LucidaGrande-20" transform="translate(625.048828 0)"/>
     <use xlink:href="#LucidaGrande-78" transform="translate(656.689453 0)"/>
     <use xlink:href="#LucidaGrande-20" transform="translate(718.017578 0)"/>
     <use xlink:href="#LucidaGrande-32" transform="translate(749.658203 0)"/>
     <use xlink:href="#LucidaGrande-30" transform="translate(812.890625 0)"/>
     <use xlink:href="#LucidaGrande-20" transform="translate(876.123047 0)"/>
     <use xlink:href="#LucidaGrande-72" transform="translate(907.763672 0)"/>
     <use xlink:href="#LucidaGrande-65" transform="translate(948.681641 0)"/>
     <use xlink:href="#LucidaGrande-70" transform="translate(1004.394531 0)"/>
     <use xlink:href="#LucidaGrande-65" transform="translate(1067.333984 0)"/>
     <use xlink:href="#LucidaGrande-61" transform="translate(1123.046875 0)"/>
     <use xlink:href="#LucidaGrande-74" transform="translate(1178.271484 0)"/>
     <use xlink:href="#LucidaGrande-73" transform="translate(1215.673828 0)"/>
    </g>
   </g>
  </g>
 </g>
 <defs>
  <clipPath id="p295875a0f6">
   <rect x="0" y="0" width="950.4" height="604.8"/>
  </clipPath>
 </defs>
</svg>
