<svg xmlns="http://www.w3.org/2000/svg" viewBox="0 0 320 320" role="img" aria-label="MedAutoScience logo">
  <title>MedAutoScience</title>
  <defs>
    <linearGradient id="bg" x1="0%" y1="0%" x2="100%" y2="100%">
      <stop offset="0%" stop-color="#F7FBFF" />
      <stop offset="100%" stop-color="#EAF4FB" />
    </linearGradient>
    <linearGradient id="doc" x1="0%" y1="0%" x2="0%" y2="100%">
      <stop offset="0%" stop-color="#90D7EE" />
      <stop offset="100%" stop-color="#66B7DF" />
    </linearGradient>
    <filter id="shadow" x="-20%" y="-20%" width="140%" height="140%">
      <feDropShadow dx="0" dy="10" stdDeviation="12" flood-color="#7DB4D6" flood-opacity="0.18" />
    </filter>
  </defs>
  <rect x="16" y="16" width="288" height="288" rx="48" fill="url(#bg)" stroke="#9FCBE3" stroke-width="2.5" />
  <g filter="url(#shadow)">
    <rect x="72" y="56" width="176" height="208" rx="30" fill="url(#doc)" stroke="#2F89B9" stroke-width="2.5" />
    <path d="M216 56V114C216 122.837 223.163 130 232 130H248" fill="#DDF5FD" fill-opacity="0.7" />
    <path d="M216 56V114C216 122.837 223.163 130 232 130H248" stroke="#4FA7D2" stroke-width="2" stroke-linejoin="round" />
    <g transform="translate(160 160)">
      <rect x="-18" y="-58" width="36" height="116" rx="18" fill="#F7FCFF" />
      <rect x="-58" y="-18" width="116" height="36" rx="18" fill="#F7FCFF" />
    </g>
  </g>
  <circle cx="88" cy="88" r="10" fill="#2F89B9" fill-opacity="0.16" />
  <circle cx="232" cy="232" r="12" fill="#6ECFCA" fill-opacity="0.2" />
</svg>
